{
	"patcher" : 	{
		"fileversion" : 1,
		"appversion" : 		{
			"major" : 7,
			"minor" : 0,
			"revision" : 3,
			"architecture" : "x64",
			"modernui" : 1
		}
,
		"rect" : [ 100.0, 90.0, 926.0, 677.0 ],
		"bgcolor" : [ 0.93, 0.93, 0.92, 1.0 ],
		"bglocked" : 0,
		"openinpresentation" : 0,
		"default_fontsize" : 11.595187,
		"default_fontface" : 0,
		"default_fontname" : "Arial",
		"gridonopen" : 1,
		"gridsize" : [ 15.0, 15.0 ],
		"gridsnaponopen" : 1,
		"objectsnaponopen" : 1,
		"statusbarvisible" : 2,
		"toolbarvisible" : 1,
		"lefttoolbarpinned" : 0,
		"toptoolbarpinned" : 0,
		"righttoolbarpinned" : 0,
		"bottomtoolbarpinned" : 0,
		"toolbars_unpinned_last_save" : 0,
		"tallnewobj" : 0,
		"boxanimatetime" : 200,
		"enablehscroll" : 1,
		"enablevscroll" : 1,
		"devicewidth" : 0.0,
		"description" : "",
		"digest" : "",
		"tags" : "",
		"style" : "",
		"subpatcher_template" : "",
		"showrootpatcherontab" : 0,
		"showontab" : 0,
		"boxes" : [ 			{
				"box" : 				{
					"bgcolor" : [ 1.0, 1.0, 1.0, 1.0 ],
					"color" : [ 0.734694, 0.734694, 0.734694, 1.0 ],
					"fontname" : "Arial",
					"fontsize" : 12.0,
					"hidden" : 1,
					"id" : "obj-11",
					"maxclass" : "newobj",
					"numinlets" : 0,
					"numoutlets" : 0,
					"patcher" : 					{
						"fileversion" : 1,
						"appversion" : 						{
							"major" : 7,
							"minor" : 0,
							"revision" : 3,
							"architecture" : "x64",
							"modernui" : 1
						}
,
						"rect" : [ 100.0, 116.0, 926.0, 651.0 ],
						"bgcolor" : [ 0.93, 0.93, 0.92, 1.0 ],
						"bglocked" : 0,
						"openinpresentation" : 0,
						"default_fontsize" : 11.595187,
						"default_fontface" : 0,
						"default_fontname" : "Arial",
						"gridonopen" : 1,
						"gridsize" : [ 15.0, 15.0 ],
						"gridsnaponopen" : 1,
						"objectsnaponopen" : 1,
						"statusbarvisible" : 2,
						"toolbarvisible" : 1,
						"lefttoolbarpinned" : 0,
						"toptoolbarpinned" : 0,
						"righttoolbarpinned" : 0,
						"bottomtoolbarpinned" : 0,
						"toolbars_unpinned_last_save" : 0,
						"tallnewobj" : 0,
						"boxanimatetime" : 200,
						"enablehscroll" : 1,
						"enablevscroll" : 1,
						"devicewidth" : 0.0,
						"description" : "",
						"digest" : "",
						"tags" : "",
						"style" : "",
						"subpatcher_template" : "",
						"showontab" : 1,
						"boxes" : [ 							{
								"box" : 								{
									"fontface" : 0,
									"fontname" : "Arial",
									"fontsize" : 11.595187,
									"id" : "obj-45",
									"maxclass" : "number~",
									"mode" : 2,
									"numinlets" : 2,
									"numoutlets" : 2,
									"outlettype" : [ "signal", "float" ],
									"patching_rect" : [ 807.499878, 534.5, 56.0, 21.0 ],
									"sig" : 0.0,
									"style" : ""
								}

							}
, 							{
								"box" : 								{
									"fontface" : 0,
									"fontname" : "Arial",
									"fontsize" : 11.595187,
									"id" : "obj-47",
									"maxclass" : "number~",
									"mode" : 2,
									"numinlets" : 2,
									"numoutlets" : 2,
									"outlettype" : [ "signal", "float" ],
									"patching_rect" : [ 750.249939, 534.5, 56.0, 21.0 ],
									"sig" : 0.0,
									"style" : ""
								}

							}
, 							{
								"box" : 								{
									"fontface" : 0,
									"fontname" : "Arial",
									"fontsize" : 11.595187,
									"id" : "obj-48",
									"maxclass" : "number~",
									"mode" : 2,
									"numinlets" : 2,
									"numoutlets" : 2,
									"outlettype" : [ "signal", "float" ],
									"patching_rect" : [ 692.999939, 534.5, 56.0, 21.0 ],
									"sig" : 0.0,
									"style" : ""
								}

							}
, 							{
								"box" : 								{
									"fontface" : 0,
									"fontname" : "Arial",
									"fontsize" : 11.595187,
									"id" : "obj-49",
									"maxclass" : "number~",
									"mode" : 2,
									"numinlets" : 2,
									"numoutlets" : 2,
									"outlettype" : [ "signal", "float" ],
									"patching_rect" : [ 635.749939, 534.5, 56.0, 21.0 ],
									"sig" : 0.0,
									"style" : ""
								}

							}
, 							{
								"box" : 								{
									"fontface" : 0,
									"fontname" : "Arial",
									"fontsize" : 11.595187,
									"id" : "obj-50",
									"maxclass" : "number~",
									"mode" : 2,
									"numinlets" : 2,
									"numoutlets" : 2,
									"outlettype" : [ "signal", "float" ],
									"patching_rect" : [ 578.5, 534.5, 56.0, 21.0 ],
									"sig" : 0.0,
									"style" : ""
								}

							}
, 							{
								"box" : 								{
									"fontface" : 0,
									"fontname" : "Arial",
									"fontsize" : 11.595187,
									"id" : "obj-51",
									"maxclass" : "number~",
									"mode" : 2,
									"numinlets" : 2,
									"numoutlets" : 2,
									"outlettype" : [ "signal", "float" ],
									"patching_rect" : [ 521.25, 534.5, 56.0, 21.0 ],
									"sig" : 0.0,
									"style" : ""
								}

							}
, 							{
								"box" : 								{
									"fontface" : 0,
									"fontname" : "Arial",
									"fontsize" : 11.595187,
									"id" : "obj-63",
									"maxclass" : "number~",
									"mode" : 2,
									"numinlets" : 2,
									"numoutlets" : 2,
									"outlettype" : [ "signal", "float" ],
									"patching_rect" : [ 464.0, 534.5, 56.0, 21.0 ],
									"sig" : 0.0,
									"style" : ""
								}

							}
, 							{
								"box" : 								{
									"id" : "obj-64",
									"maxclass" : "newobj",
									"numinlets" : 7,
									"numoutlets" : 7,
									"outlettype" : [ "signal", "signal", "signal", "signal", "signal", "signal", "signal" ],
									"patching_rect" : [ 464.0, 506.5, 362.499878, 21.0 ],
									"style" : "",
									"text" : "hoa.2d.exchanger~ 3 fromDaniel"
								}

							}
, 							{
								"box" : 								{
									"fontface" : 0,
									"fontname" : "Arial",
									"fontsize" : 11.595187,
									"id" : "obj-37",
									"maxclass" : "number~",
									"mode" : 2,
									"numinlets" : 2,
									"numoutlets" : 2,
									"outlettype" : [ "signal", "float" ],
									"patching_rect" : [ 807.499878, 459.5, 56.0, 21.0 ],
									"sig" : 0.0,
									"style" : ""
								}

							}
, 							{
								"box" : 								{
									"fontface" : 0,
									"fontname" : "Arial",
									"fontsize" : 11.595187,
									"id" : "obj-38",
									"maxclass" : "number~",
									"mode" : 2,
									"numinlets" : 2,
									"numoutlets" : 2,
									"outlettype" : [ "signal", "float" ],
									"patching_rect" : [ 750.249939, 459.5, 56.0, 21.0 ],
									"sig" : 0.0,
									"style" : ""
								}

							}
, 							{
								"box" : 								{
									"fontface" : 0,
									"fontname" : "Arial",
									"fontsize" : 11.595187,
									"id" : "obj-39",
									"maxclass" : "number~",
									"mode" : 2,
									"numinlets" : 2,
									"numoutlets" : 2,
									"outlettype" : [ "signal", "float" ],
									"patching_rect" : [ 692.999939, 459.5, 56.0, 21.0 ],
									"sig" : 0.0,
									"style" : ""
								}

							}
, 							{
								"box" : 								{
									"fontface" : 0,
									"fontname" : "Arial",
									"fontsize" : 11.595187,
									"id" : "obj-40",
									"maxclass" : "number~",
									"mode" : 2,
									"numinlets" : 2,
									"numoutlets" : 2,
									"outlettype" : [ "signal", "float" ],
									"patching_rect" : [ 635.749939, 459.5, 56.0, 21.0 ],
									"sig" : 0.0,
									"style" : ""
								}

							}
, 							{
								"box" : 								{
									"fontface" : 0,
									"fontname" : "Arial",
									"fontsize" : 11.595187,
									"id" : "obj-41",
									"maxclass" : "number~",
									"mode" : 2,
									"numinlets" : 2,
									"numoutlets" : 2,
									"outlettype" : [ "signal", "float" ],
									"patching_rect" : [ 578.5, 459.5, 56.0, 21.0 ],
									"sig" : 0.0,
									"style" : ""
								}

							}
, 							{
								"box" : 								{
									"fontface" : 0,
									"fontname" : "Arial",
									"fontsize" : 11.595187,
									"id" : "obj-42",
									"maxclass" : "number~",
									"mode" : 2,
									"numinlets" : 2,
									"numoutlets" : 2,
									"outlettype" : [ "signal", "float" ],
									"patching_rect" : [ 521.25, 459.5, 56.0, 21.0 ],
									"sig" : 0.0,
									"style" : ""
								}

							}
, 							{
								"box" : 								{
									"fontface" : 0,
									"fontname" : "Arial",
									"fontsize" : 11.595187,
									"id" : "obj-43",
									"maxclass" : "number~",
									"mode" : 2,
									"numinlets" : 2,
									"numoutlets" : 2,
									"outlettype" : [ "signal", "float" ],
									"patching_rect" : [ 464.0, 459.5, 56.0, 21.0 ],
									"sig" : 0.0,
									"style" : ""
								}

							}
, 							{
								"box" : 								{
									"id" : "obj-44",
									"maxclass" : "newobj",
									"numinlets" : 7,
									"numoutlets" : 7,
									"outlettype" : [ "signal", "signal", "signal", "signal", "signal", "signal", "signal" ],
									"patching_rect" : [ 464.0, 431.5, 362.499878, 21.0 ],
									"style" : "",
									"text" : "hoa.2d.exchanger~ 3 toN2D toSID"
								}

							}
, 							{
								"box" : 								{
									"fontface" : 0,
									"fontname" : "Arial",
									"fontsize" : 11.595187,
									"id" : "obj-24",
									"maxclass" : "number~",
									"mode" : 2,
									"numinlets" : 2,
									"numoutlets" : 2,
									"outlettype" : [ "signal", "float" ],
									"patching_rect" : [ 807.499878, 384.5, 56.0, 21.0 ],
									"sig" : 0.0,
									"style" : ""
								}

							}
, 							{
								"box" : 								{
									"fontface" : 0,
									"fontname" : "Arial",
									"fontsize" : 11.595187,
									"id" : "obj-26",
									"maxclass" : "number~",
									"mode" : 2,
									"numinlets" : 2,
									"numoutlets" : 2,
									"outlettype" : [ "signal", "float" ],
									"patching_rect" : [ 750.249939, 384.5, 56.0, 21.0 ],
									"sig" : 0.0,
									"style" : ""
								}

							}
, 							{
								"box" : 								{
									"fontface" : 0,
									"fontname" : "Arial",
									"fontsize" : 11.595187,
									"id" : "obj-27",
									"maxclass" : "number~",
									"mode" : 2,
									"numinlets" : 2,
									"numoutlets" : 2,
									"outlettype" : [ "signal", "float" ],
									"patching_rect" : [ 692.999939, 384.5, 56.0, 21.0 ],
									"sig" : 0.0,
									"style" : ""
								}

							}
, 							{
								"box" : 								{
									"fontface" : 0,
									"fontname" : "Arial",
									"fontsize" : 11.595187,
									"id" : "obj-28",
									"maxclass" : "number~",
									"mode" : 2,
									"numinlets" : 2,
									"numoutlets" : 2,
									"outlettype" : [ "signal", "float" ],
									"patching_rect" : [ 635.749939, 384.5, 56.0, 21.0 ],
									"sig" : 0.0,
									"style" : ""
								}

							}
, 							{
								"box" : 								{
									"fontface" : 0,
									"fontname" : "Arial",
									"fontsize" : 11.595187,
									"id" : "obj-29",
									"maxclass" : "number~",
									"mode" : 2,
									"numinlets" : 2,
									"numoutlets" : 2,
									"outlettype" : [ "signal", "float" ],
									"patching_rect" : [ 578.5, 384.5, 56.0, 21.0 ],
									"sig" : 0.0,
									"style" : ""
								}

							}
, 							{
								"box" : 								{
									"fontface" : 0,
									"fontname" : "Arial",
									"fontsize" : 11.595187,
									"id" : "obj-31",
									"maxclass" : "number~",
									"mode" : 2,
									"numinlets" : 2,
									"numoutlets" : 2,
									"outlettype" : [ "signal", "float" ],
									"patching_rect" : [ 521.25, 384.5, 56.0, 21.0 ],
									"sig" : 0.0,
									"style" : ""
								}

							}
, 							{
								"box" : 								{
									"fontface" : 0,
									"fontname" : "Arial",
									"fontsize" : 11.595187,
									"id" : "obj-32",
									"maxclass" : "number~",
									"mode" : 2,
									"numinlets" : 2,
									"numoutlets" : 2,
									"outlettype" : [ "signal", "float" ],
									"patching_rect" : [ 464.0, 384.5, 56.0, 21.0 ],
									"sig" : 0.0,
									"style" : ""
								}

							}
, 							{
								"box" : 								{
									"id" : "obj-33",
									"maxclass" : "newobj",
									"numinlets" : 7,
									"numoutlets" : 7,
									"outlettype" : [ "signal", "signal", "signal", "signal", "signal", "signal", "signal" ],
									"patching_rect" : [ 464.0, 356.5, 362.499878, 21.0 ],
									"style" : "",
									"text" : "hoa.2d.exchanger~ 3 fromBFormat"
								}

							}
, 							{
								"box" : 								{
									"fontface" : 0,
									"fontname" : "Arial",
									"fontsize" : 11.595187,
									"id" : "obj-13",
									"maxclass" : "number~",
									"mode" : 2,
									"numinlets" : 2,
									"numoutlets" : 2,
									"outlettype" : [ "signal", "float" ],
									"patching_rect" : [ 807.499878, 309.5, 56.0, 21.0 ],
									"sig" : 0.0,
									"style" : ""
								}

							}
, 							{
								"box" : 								{
									"fontface" : 0,
									"fontname" : "Arial",
									"fontsize" : 11.595187,
									"id" : "obj-14",
									"maxclass" : "number~",
									"mode" : 2,
									"numinlets" : 2,
									"numoutlets" : 2,
									"outlettype" : [ "signal", "float" ],
									"patching_rect" : [ 750.249939, 309.5, 56.0, 21.0 ],
									"sig" : 0.0,
									"style" : ""
								}

							}
, 							{
								"box" : 								{
									"fontface" : 0,
									"fontname" : "Arial",
									"fontsize" : 11.595187,
									"id" : "obj-15",
									"maxclass" : "number~",
									"mode" : 2,
									"numinlets" : 2,
									"numoutlets" : 2,
									"outlettype" : [ "signal", "float" ],
									"patching_rect" : [ 692.999939, 309.5, 56.0, 21.0 ],
									"sig" : 0.0,
									"style" : ""
								}

							}
, 							{
								"box" : 								{
									"fontface" : 0,
									"fontname" : "Arial",
									"fontsize" : 11.595187,
									"id" : "obj-16",
									"maxclass" : "number~",
									"mode" : 2,
									"numinlets" : 2,
									"numoutlets" : 2,
									"outlettype" : [ "signal", "float" ],
									"patching_rect" : [ 635.749939, 309.5, 56.0, 21.0 ],
									"sig" : 0.0,
									"style" : ""
								}

							}
, 							{
								"box" : 								{
									"fontface" : 0,
									"fontname" : "Arial",
									"fontsize" : 11.595187,
									"id" : "obj-17",
									"maxclass" : "number~",
									"mode" : 2,
									"numinlets" : 2,
									"numoutlets" : 2,
									"outlettype" : [ "signal", "float" ],
									"patching_rect" : [ 578.5, 309.5, 56.0, 21.0 ],
									"sig" : 0.0,
									"style" : ""
								}

							}
, 							{
								"box" : 								{
									"fontface" : 0,
									"fontname" : "Arial",
									"fontsize" : 11.595187,
									"id" : "obj-19",
									"maxclass" : "number~",
									"mode" : 2,
									"numinlets" : 2,
									"numoutlets" : 2,
									"outlettype" : [ "signal", "float" ],
									"patching_rect" : [ 521.25, 309.5, 56.0, 21.0 ],
									"sig" : 0.0,
									"style" : ""
								}

							}
, 							{
								"box" : 								{
									"fontface" : 0,
									"fontname" : "Arial",
									"fontsize" : 11.595187,
									"id" : "obj-20",
									"maxclass" : "number~",
									"mode" : 2,
									"numinlets" : 2,
									"numoutlets" : 2,
									"outlettype" : [ "signal", "float" ],
									"patching_rect" : [ 464.0, 309.5, 56.0, 21.0 ],
									"sig" : 0.0,
									"style" : ""
								}

							}
, 							{
								"box" : 								{
									"id" : "obj-21",
									"maxclass" : "newobj",
									"numinlets" : 7,
									"numoutlets" : 7,
									"outlettype" : [ "signal", "signal", "signal", "signal", "signal", "signal", "signal" ],
									"patching_rect" : [ 464.0, 281.5, 362.5, 21.0 ],
									"style" : "",
									"text" : "hoa.2d.exchanger~ 3 toBFormat"
								}

							}
, 							{
								"box" : 								{
									"id" : "obj-59",
									"maxclass" : "comment",
									"numinlets" : 1,
									"numoutlets" : 0,
									"patching_rect" : [ 17.75, 488.5, 285.0, 19.0 ],
									"style" : "",
									"text" : "FUMA : [W], [X], [Y], [U], [V], [P], [Q]."
								}

							}
, 							{
								"box" : 								{
									"id" : "obj-54",
									"maxclass" : "comment",
									"numinlets" : 1,
									"numoutlets" : 0,
									"patching_rect" : [ 17.75, 433.5, 288.0, 19.0 ],
									"style" : "",
									"text" : "ACN : [0, 0], [1, -1], [1, 1], [2, -2], [2, 2], [3, -3], [3, 3] ..."
								}

							}
, 							{
								"box" : 								{
									"id" : "obj-53",
									"maxclass" : "comment",
									"numinlets" : 1,
									"numoutlets" : 0,
									"patching_rect" : [ 17.75, 461.5, 288.0, 19.0 ],
									"style" : "",
									"text" : "SID : [0, 0], [1, 1], [1, -1], [2, 2], [2, -2], [3, 3], [3, -3] ..."
								}

							}
, 							{
								"box" : 								{
									"fontname" : "Arial",
									"fontsize" : 12.0,
									"id" : "obj-166",
									"maxclass" : "comment",
									"numinlets" : 1,
									"numoutlets" : 0,
									"patching_rect" : [ 6.25, 126.0, 185.0, 20.0 ],
									"style" : "",
									"text" : "click here for further informations",
									"textcolor" : [ 0.392157, 0.494118, 0.666667, 1.0 ]
								}

							}
, 							{
								"box" : 								{
									"handoff" : "",
									"hilite" : 0,
									"id" : "obj-167",
									"maxclass" : "ubutton",
									"numinlets" : 1,
									"numoutlets" : 4,
									"outlettype" : [ "bang", "bang", "", "int" ],
									"patching_rect" : [ 6.25, 126.0, 185.0, 20.0 ]
								}

							}
, 							{
								"box" : 								{
									"fontname" : "Arial",
									"fontsize" : 4.0,
									"hidden" : 1,
									"id" : "obj-168",
									"linecount" : 2,
									"maxclass" : "message",
									"numinlets" : 2,
									"numoutlets" : 1,
									"outlettype" : [ "" ],
									"patching_rect" : [ 6.25, 152.5, 158.0, 17.0 ],
									"style" : "",
									"text" : ";\rmax launchbrowser http://en.wikipedia.org/wiki/Ambisonic_data_exchange_formats"
								}

							}
, 							{
								"box" : 								{
									"fontname" : "Arial",
									"fontsize" : 11.595187,
									"id" : "obj-161",
									"linecount" : 2,
									"maxclass" : "comment",
									"numinlets" : 1,
									"numoutlets" : 0,
									"patching_rect" : [ 147.25, 583.5, 54.0, 32.0 ],
									"style" : "",
									"text" : "Audio\nOn/Off",
									"textcolor" : [ 0.317518, 0.317518, 0.317518, 1.0 ]
								}

							}
, 							{
								"box" : 								{
									"bgcolor" : [ 0.853045, 0.853045, 0.853045, 1.0 ],
									"color" : [ 0.92549, 0.364706, 0.341176, 1.0 ],
									"id" : "obj-162",
									"local" : 1,
									"maxclass" : "ezdac~",
									"numinlets" : 2,
									"numoutlets" : 0,
									"patching_rect" : [ 94.75, 577.0, 45.0, 45.0 ],
									"style" : ""
								}

							}
, 							{
								"box" : 								{
									"angle" : 0.0,
									"bgcolor" : [ 0.0, 0.0, 0.0, 0.05 ],
									"bordercolor" : [ 0.235294, 0.235294, 0.235294, 0.2 ],
									"id" : "obj-6",
									"maxclass" : "panel",
									"mode" : 0,
									"numinlets" : 1,
									"numoutlets" : 0,
									"patching_rect" : [ 91.75, 574.0, 120.0, 51.0 ],
									"proportion" : 0.39,
									"rounded" : 6,
									"shadow" : -1,
									"style" : ""
								}

							}
, 							{
								"box" : 								{
									"id" : "obj-160",
									"maxclass" : "newobj",
									"numinlets" : 1,
									"numoutlets" : 1,
									"outlettype" : [ "signal" ],
									"patching_rect" : [ 464.0, 172.5, 42.0, 21.0 ],
									"style" : "",
									"text" : "sig~ 1"
								}

							}
, 							{
								"box" : 								{
									"fontface" : 0,
									"fontname" : "Arial",
									"fontsize" : 11.595187,
									"id" : "obj-65",
									"maxclass" : "number~",
									"mode" : 2,
									"numinlets" : 2,
									"numoutlets" : 2,
									"outlettype" : [ "signal", "float" ],
									"patching_rect" : [ 807.499878, 234.5, 56.0, 21.0 ],
									"sig" : 0.0,
									"style" : ""
								}

							}
, 							{
								"box" : 								{
									"fontface" : 0,
									"fontname" : "Arial",
									"fontsize" : 11.595187,
									"id" : "obj-60",
									"maxclass" : "number~",
									"mode" : 2,
									"numinlets" : 2,
									"numoutlets" : 2,
									"outlettype" : [ "signal", "float" ],
									"patching_rect" : [ 750.249939, 234.5, 56.0, 21.0 ],
									"sig" : 0.0,
									"style" : ""
								}

							}
, 							{
								"box" : 								{
									"fontface" : 0,
									"fontname" : "Arial",
									"fontsize" : 11.595187,
									"id" : "obj-61",
									"maxclass" : "number~",
									"mode" : 2,
									"numinlets" : 2,
									"numoutlets" : 2,
									"outlettype" : [ "signal", "float" ],
									"patching_rect" : [ 692.999939, 234.5, 56.0, 21.0 ],
									"sig" : 0.0,
									"style" : ""
								}

							}
, 							{
								"box" : 								{
									"fontface" : 0,
									"fontname" : "Arial",
									"fontsize" : 11.595187,
									"id" : "obj-62",
									"maxclass" : "number~",
									"mode" : 2,
									"numinlets" : 2,
									"numoutlets" : 2,
									"outlettype" : [ "signal", "float" ],
									"patching_rect" : [ 635.749939, 234.5, 56.0, 21.0 ],
									"sig" : 0.0,
									"style" : ""
								}

							}
, 							{
								"box" : 								{
									"fontface" : 0,
									"fontname" : "Arial",
									"fontsize" : 11.595187,
									"id" : "obj-36",
									"maxclass" : "number~",
									"mode" : 2,
									"numinlets" : 2,
									"numoutlets" : 2,
									"outlettype" : [ "signal", "float" ],
									"patching_rect" : [ 578.5, 234.5, 56.0, 21.0 ],
									"sig" : 0.0,
									"style" : ""
								}

							}
, 							{
								"box" : 								{
									"fontface" : 0,
									"fontname" : "Arial",
									"fontsize" : 11.595187,
									"id" : "obj-35",
									"maxclass" : "number~",
									"mode" : 2,
									"numinlets" : 2,
									"numoutlets" : 2,
									"outlettype" : [ "signal", "float" ],
									"patching_rect" : [ 521.25, 234.5, 56.0, 21.0 ],
									"sig" : 0.0,
									"style" : ""
								}

							}
, 							{
								"box" : 								{
									"fontface" : 0,
									"fontname" : "Arial",
									"fontsize" : 11.595187,
									"id" : "obj-34",
									"maxclass" : "number~",
									"mode" : 2,
									"numinlets" : 2,
									"numoutlets" : 2,
									"outlettype" : [ "signal", "float" ],
									"patching_rect" : [ 464.0, 234.5, 56.0, 21.0 ],
									"sig" : 0.0,
									"style" : ""
								}

							}
, 							{
								"box" : 								{
									"id" : "obj-30",
									"maxclass" : "newobj",
									"numinlets" : 2,
									"numoutlets" : 7,
									"outlettype" : [ "signal", "signal", "signal", "signal", "signal", "signal", "signal" ],
									"patching_rect" : [ 464.0, 206.5, 362.499908, 21.0 ],
									"style" : "",
									"text" : "hoa.2d.encoder~ 3"
								}

							}
, 							{
								"box" : 								{
									"fontname" : "Arial",
									"fontsize" : 12.0,
									"id" : "obj-22",
									"linecount" : 17,
									"maxclass" : "comment",
									"numinlets" : 1,
									"numoutlets" : 0,
									"patching_rect" : [ 17.75, 189.5, 307.0, 234.0 ],
									"style" : "",
									"text" : " - Numbering : \n    • toFurseMalham\n    • toSID\n    • fromFurseMalham\n    • fromSID\n\n - Normaliaztion : \n    • toMaxN\n    • toN2D\n    • fromMaxN\n    • fromN2D\n\n - The standards : \n    • toBFormat (aka. toFurseMalham & toMaxN)\n    • toDaniel (aka. toSID & toN2D)\n    • fromBFormat (aka. fromFurseMalham & fromMaxN)\n    • fromDaniel (aka. fromSID & fromN2D)",
									"textcolor" : [ 0.30292, 0.30292, 0.30292, 1.0 ],
									"varname" : "autohelp_top_description[6]"
								}

							}
, 							{
								"box" : 								{
									"angle" : 0.0,
									"bgcolor" : [ 0.94324, 0.954082, 0.954082, 1.0 ],
									"border" : 1,
									"bordercolor" : [ 0.75, 0.75, 0.75, 1.0 ],
									"id" : "obj-23",
									"maxclass" : "panel",
									"mode" : 0,
									"numinlets" : 1,
									"numoutlets" : 0,
									"patching_rect" : [ 17.75, 189.5, 307.0, 234.0 ],
									"proportion" : 0.39,
									"rounded" : 0,
									"style" : ""
								}

							}
, 							{
								"box" : 								{
									"fontname" : "Arial",
									"fontsize" : 12.0,
									"id" : "obj-18",
									"linecount" : 4,
									"maxclass" : "comment",
									"numinlets" : 1,
									"numoutlets" : 0,
									"patching_rect" : [ 6.25, 67.5, 480.0, 60.0 ],
									"style" : "",
									"text" : "hoa.2d.exchanger~ renumbers and normalizes the channels.\nThe library default normalization is SN2D and the numbering is ACN (cf tutorials). \nThe exchangers will always convert from or to the standard.\nIt can take one or two arguments for the numbering and the normalization.",
									"textcolor" : [ 0.30292, 0.30292, 0.30292, 1.0 ],
									"varname" : "autohelp_top_description[3]"
								}

							}
, 							{
								"box" : 								{
									"angle" : 0.0,
									"bgcolor" : [ 0.94324, 0.954082, 0.954082, 1.0 ],
									"border" : 1,
									"bordercolor" : [ 0.75, 0.75, 0.75, 1.0 ],
									"id" : "obj-7",
									"maxclass" : "panel",
									"mode" : 0,
									"numinlets" : 1,
									"numoutlets" : 0,
									"patching_rect" : [ 6.25, 67.5, 480.0, 78.5 ],
									"proportion" : 0.39,
									"rounded" : 0,
									"style" : ""
								}

							}
, 							{
								"box" : 								{
									"args" : [ "@size", 1 ],
									"bgmode" : 0,
									"border" : 0,
									"clickthrough" : 0,
									"enablehscroll" : 0,
									"enablevscroll" : 0,
									"id" : "obj-25",
									"lockeddragscroll" : 0,
									"maxclass" : "bpatcher",
									"name" : "hoa.helpcredit.maxpat",
									"numinlets" : 1,
									"numoutlets" : 0,
									"offset" : [ 0.0, 0.0 ],
									"patching_rect" : [ 498.5, 16.5, 332.0, 35.0 ],
									"viewvisibility" : 1
								}

							}
, 							{
								"box" : 								{
									"args" : [ "@obj-name", "hoa.2d.exchanger~", "@obj-desc", "Renumbers and normalizes the channels." ],
									"bgmode" : 0,
									"border" : 0,
									"clickthrough" : 0,
									"enablehscroll" : 0,
									"enablevscroll" : 0,
									"id" : "obj-56",
									"lockeddragscroll" : 0,
									"maxclass" : "bpatcher",
									"name" : "hoa.helpheader.maxpat",
									"numinlets" : 1,
									"numoutlets" : 0,
									"offset" : [ 0.0, 0.0 ],
									"patching_rect" : [ 6.25, 6.0, 483.0, 56.0 ],
									"viewvisibility" : 1
								}

							}
, 							{
								"box" : 								{
									"fontname" : "Arial",
									"fontsize" : 7.180877,
									"hidden" : 1,
									"id" : "obj-57",
									"linecount" : 2,
									"maxclass" : "newobj",
									"numinlets" : 4,
									"numoutlets" : 0,
									"patching_rect" : [ 418.25, 22.5, 52.0, 25.0 ],
									"style" : "",
									"text" : "bgcolor 0.93 0.93 0.92 1."
								}

							}
, 							{
								"box" : 								{
									"fontname" : "Arial",
									"fontsize" : 11.595187,
									"hidden" : 1,
									"id" : "obj-46",
									"maxclass" : "newobj",
									"numinlets" : 0,
									"numoutlets" : 1,
									"outlettype" : [ "bang" ],
									"patcher" : 									{
										"fileversion" : 1,
										"appversion" : 										{
											"major" : 7,
											"minor" : 0,
											"revision" : 3,
											"architecture" : "x64",
											"modernui" : 1
										}
,
										"rect" : [ 413.0, 101.0, 204.0, 214.0 ],
										"bglocked" : 0,
										"openinpresentation" : 0,
										"default_fontsize" : 12.0,
										"default_fontface" : 0,
										"default_fontname" : "Arial",
										"gridonopen" : 1,
										"gridsize" : [ 15.0, 15.0 ],
										"gridsnaponopen" : 1,
										"objectsnaponopen" : 1,
										"statusbarvisible" : 2,
										"toolbarvisible" : 1,
										"lefttoolbarpinned" : 0,
										"toptoolbarpinned" : 0,
										"righttoolbarpinned" : 0,
										"bottomtoolbarpinned" : 0,
										"toolbars_unpinned_last_save" : 0,
										"tallnewobj" : 0,
										"boxanimatetime" : 200,
										"enablehscroll" : 1,
										"enablevscroll" : 1,
										"devicewidth" : 0.0,
										"description" : "",
										"digest" : "",
										"tags" : "",
										"style" : "",
										"subpatcher_template" : "",
										"boxes" : [ 											{
												"box" : 												{
													"fontname" : "Arial",
													"fontsize" : 12.0,
													"id" : "obj-5",
													"maxclass" : "newobj",
													"numinlets" : 1,
													"numoutlets" : 2,
													"outlettype" : [ "int", "int" ],
													"patching_rect" : [ 85.0, 78.0, 49.0, 20.0 ],
													"style" : "",
													"text" : "unpack"
												}

											}
, 											{
												"box" : 												{
													"fontname" : "Arial",
													"fontsize" : 12.0,
													"id" : "obj-4",
													"maxclass" : "newobj",
													"numinlets" : 1,
													"numoutlets" : 1,
													"outlettype" : [ "bang" ],
													"patching_rect" : [ 85.0, 9.0, 60.0, 20.0 ],
													"style" : "",
													"text" : "loadbang"
												}

											}
, 											{
												"box" : 												{
													"fontname" : "Arial",
													"fontsize" : 12.0,
													"id" : "obj-3",
													"maxclass" : "number",
													"numinlets" : 1,
													"numoutlets" : 2,
													"outlettype" : [ "", "bang" ],
													"parameter_enable" : 0,
													"patching_rect" : [ 145.0, 119.0, 50.0, 20.0 ],
													"style" : ""
												}

											}
, 											{
												"box" : 												{
													"fontname" : "Arial",
													"fontsize" : 12.0,
													"id" : "obj-1",
													"maxclass" : "newobj",
													"numinlets" : 1,
													"numoutlets" : 2,
													"outlettype" : [ "", "" ],
													"patching_rect" : [ 85.0, 41.0, 74.0, 20.0 ],
													"style" : "",
													"text" : "patcherargs"
												}

											}
, 											{
												"box" : 												{
													"id" : "obj-10",
													"maxclass" : "button",
													"numinlets" : 1,
													"numoutlets" : 1,
													"outlettype" : [ "bang" ],
													"patching_rect" : [ 16.5, 149.0, 20.0, 20.0 ],
													"style" : ""
												}

											}
, 											{
												"box" : 												{
													"fontname" : "Arial",
													"fontsize" : 11.595187,
													"id" : "obj-23",
													"maxclass" : "newobj",
													"numinlets" : 2,
													"numoutlets" : 2,
													"outlettype" : [ "bang", "" ],
													"patching_rect" : [ 16.5, 119.0, 117.5, 19.0 ],
													"style" : "",
													"text" : "sel 32"
												}

											}
, 											{
												"box" : 												{
													"fontname" : "Arial",
													"fontsize" : 11.595187,
													"id" : "obj-17",
													"maxclass" : "newobj",
													"numinlets" : 0,
													"numoutlets" : 4,
													"outlettype" : [ "int", "int", "int", "int" ],
													"patching_rect" : [ 16.5, 78.0, 59.5, 19.0 ],
													"style" : "",
													"text" : "key"
												}

											}
, 											{
												"box" : 												{
													"comment" : "",
													"id" : "obj-45",
													"maxclass" : "outlet",
													"numinlets" : 1,
													"numoutlets" : 0,
													"patching_rect" : [ 16.5, 178.0, 25.0, 25.0 ],
													"style" : ""
												}

											}
 ],
										"lines" : [ 											{
												"patchline" : 												{
													"destination" : [ "obj-5", 0 ],
													"disabled" : 0,
													"hidden" : 0,
													"source" : [ "obj-1", 0 ]
												}

											}
, 											{
												"patchline" : 												{
													"destination" : [ "obj-45", 0 ],
													"disabled" : 0,
													"hidden" : 0,
													"source" : [ "obj-10", 0 ]
												}

											}
, 											{
												"patchline" : 												{
													"destination" : [ "obj-23", 0 ],
													"disabled" : 0,
													"hidden" : 0,
													"source" : [ "obj-17", 0 ]
												}

											}
, 											{
												"patchline" : 												{
													"destination" : [ "obj-10", 0 ],
													"disabled" : 0,
													"hidden" : 0,
													"midpoints" : [ 26.0, 140.0, 26.0, 140.0 ],
													"source" : [ "obj-23", 0 ]
												}

											}
, 											{
												"patchline" : 												{
													"destination" : [ "obj-1", 0 ],
													"disabled" : 0,
													"hidden" : 0,
													"source" : [ "obj-4", 0 ]
												}

											}
, 											{
												"patchline" : 												{
													"destination" : [ "obj-23", 1 ],
													"disabled" : 0,
													"hidden" : 0,
													"source" : [ "obj-5", 1 ]
												}

											}
, 											{
												"patchline" : 												{
													"destination" : [ "obj-3", 0 ],
													"disabled" : 0,
													"hidden" : 0,
													"source" : [ "obj-5", 1 ]
												}

											}
 ]
									}
,
									"patching_rect" : [ 846.0, 11.0, 69.0, 21.0 ],
									"saved_object_attributes" : 									{
										"description" : "",
										"digest" : "",
										"globalpatchername" : "",
										"style" : "",
										"tags" : ""
									}
,
									"style" : "",
									"text" : "p keysel 32"
								}

							}
, 							{
								"box" : 								{
									"fontname" : "Arial",
									"fontsize" : 11.595187,
									"hidden" : 1,
									"id" : "obj-10",
									"maxclass" : "newobj",
									"numinlets" : 1,
									"numoutlets" : 0,
									"patching_rect" : [ 846.0, 41.0, 74.0, 21.0 ],
									"saved_object_attributes" : 									{
										"nhcolor" : [ 0.0, 0.0, 1.0, 1.0 ],
										"phcolor" : [ 1.0, 0.0, 0.0, 1.0 ],
										"planecolor" : [ 1.0, 1.0, 1.0, 1.0 ],
										"zhcolor" : [ 0.2, 0.2, 0.2, 1.0 ]
									}
,
									"style" : "",
									"text" : "hoa.connect"
								}

							}
 ],
						"lines" : [ 							{
								"patchline" : 								{
									"destination" : [ "obj-30", 0 ],
									"disabled" : 0,
									"hidden" : 0,
									"source" : [ "obj-160", 0 ]
								}

							}
, 							{
								"patchline" : 								{
									"destination" : [ "obj-168", 0 ],
									"disabled" : 0,
									"hidden" : 1,
									"source" : [ "obj-167", 1 ]
								}

							}
, 							{
								"patchline" : 								{
									"color" : [ 1.0, 0.0, 0.0, 1.0 ],
									"destination" : [ "obj-13", 0 ],
									"disabled" : 0,
									"hidden" : 0,
									"source" : [ "obj-21", 6 ]
								}

							}
, 							{
								"patchline" : 								{
									"color" : [ 0.0, 0.0, 1.0, 1.0 ],
									"destination" : [ "obj-14", 0 ],
									"disabled" : 0,
									"hidden" : 0,
									"source" : [ "obj-21", 5 ]
								}

							}
, 							{
								"patchline" : 								{
									"color" : [ 1.0, 0.0, 0.0, 1.0 ],
									"destination" : [ "obj-15", 0 ],
									"disabled" : 0,
									"hidden" : 0,
									"source" : [ "obj-21", 4 ]
								}

							}
, 							{
								"patchline" : 								{
									"color" : [ 0.0, 0.0, 1.0, 1.0 ],
									"destination" : [ "obj-16", 0 ],
									"disabled" : 0,
									"hidden" : 0,
									"source" : [ "obj-21", 3 ]
								}

							}
, 							{
								"patchline" : 								{
									"color" : [ 1.0, 0.0, 0.0, 1.0 ],
									"destination" : [ "obj-17", 0 ],
									"disabled" : 0,
									"hidden" : 0,
									"source" : [ "obj-21", 2 ]
								}

							}
, 							{
								"patchline" : 								{
									"color" : [ 0.0, 0.0, 1.0, 1.0 ],
									"destination" : [ "obj-19", 0 ],
									"disabled" : 0,
									"hidden" : 0,
									"source" : [ "obj-21", 1 ]
								}

							}
, 							{
								"patchline" : 								{
									"color" : [ 0.2, 0.2, 0.2, 1.0 ],
									"destination" : [ "obj-20", 0 ],
									"disabled" : 0,
									"hidden" : 0,
									"source" : [ "obj-21", 0 ]
								}

							}
, 							{
								"patchline" : 								{
									"color" : [ 1.0, 0.0, 0.0, 1.0 ],
									"destination" : [ "obj-33", 6 ],
									"disabled" : 0,
									"hidden" : 0,
									"source" : [ "obj-21", 6 ]
								}

							}
, 							{
								"patchline" : 								{
									"color" : [ 0.0, 0.0, 1.0, 1.0 ],
									"destination" : [ "obj-33", 5 ],
									"disabled" : 0,
									"hidden" : 0,
									"source" : [ "obj-21", 5 ]
								}

							}
, 							{
								"patchline" : 								{
									"color" : [ 1.0, 0.0, 0.0, 1.0 ],
									"destination" : [ "obj-33", 4 ],
									"disabled" : 0,
									"hidden" : 0,
									"source" : [ "obj-21", 4 ]
								}

							}
, 							{
								"patchline" : 								{
									"color" : [ 0.0, 0.0, 1.0, 1.0 ],
									"destination" : [ "obj-33", 3 ],
									"disabled" : 0,
									"hidden" : 0,
									"source" : [ "obj-21", 3 ]
								}

							}
, 							{
								"patchline" : 								{
									"color" : [ 1.0, 0.0, 0.0, 1.0 ],
									"destination" : [ "obj-33", 2 ],
									"disabled" : 0,
									"hidden" : 0,
									"source" : [ "obj-21", 2 ]
								}

							}
, 							{
								"patchline" : 								{
									"color" : [ 0.0, 0.0, 1.0, 1.0 ],
									"destination" : [ "obj-33", 1 ],
									"disabled" : 0,
									"hidden" : 0,
									"source" : [ "obj-21", 1 ]
								}

							}
, 							{
								"patchline" : 								{
									"color" : [ 0.2, 0.2, 0.2, 1.0 ],
									"destination" : [ "obj-33", 0 ],
									"disabled" : 0,
									"hidden" : 0,
									"source" : [ "obj-21", 0 ]
								}

							}
, 							{
								"patchline" : 								{
									"color" : [ 1.0, 0.0, 0.0, 1.0 ],
									"destination" : [ "obj-21", 6 ],
									"disabled" : 0,
									"hidden" : 0,
									"source" : [ "obj-30", 6 ]
								}

							}
, 							{
								"patchline" : 								{
									"color" : [ 0.0, 0.0, 1.0, 1.0 ],
									"destination" : [ "obj-21", 5 ],
									"disabled" : 0,
									"hidden" : 0,
									"source" : [ "obj-30", 5 ]
								}

							}
, 							{
								"patchline" : 								{
									"color" : [ 1.0, 0.0, 0.0, 1.0 ],
									"destination" : [ "obj-21", 4 ],
									"disabled" : 0,
									"hidden" : 0,
									"source" : [ "obj-30", 4 ]
								}

							}
, 							{
								"patchline" : 								{
									"color" : [ 0.0, 0.0, 1.0, 1.0 ],
									"destination" : [ "obj-21", 3 ],
									"disabled" : 0,
									"hidden" : 0,
									"source" : [ "obj-30", 3 ]
								}

							}
, 							{
								"patchline" : 								{
									"color" : [ 1.0, 0.0, 0.0, 1.0 ],
									"destination" : [ "obj-21", 2 ],
									"disabled" : 0,
									"hidden" : 0,
									"source" : [ "obj-30", 2 ]
								}

							}
, 							{
								"patchline" : 								{
									"color" : [ 0.0, 0.0, 1.0, 1.0 ],
									"destination" : [ "obj-21", 1 ],
									"disabled" : 0,
									"hidden" : 0,
									"source" : [ "obj-30", 1 ]
								}

							}
, 							{
								"patchline" : 								{
									"color" : [ 0.2, 0.2, 0.2, 1.0 ],
									"destination" : [ "obj-21", 0 ],
									"disabled" : 0,
									"hidden" : 0,
									"source" : [ "obj-30", 0 ]
								}

							}
, 							{
								"patchline" : 								{
									"color" : [ 0.2, 0.2, 0.2, 1.0 ],
									"destination" : [ "obj-34", 0 ],
									"disabled" : 0,
									"hidden" : 0,
									"source" : [ "obj-30", 0 ]
								}

							}
, 							{
								"patchline" : 								{
									"color" : [ 0.0, 0.0, 1.0, 1.0 ],
									"destination" : [ "obj-35", 0 ],
									"disabled" : 0,
									"hidden" : 0,
									"source" : [ "obj-30", 1 ]
								}

							}
, 							{
								"patchline" : 								{
									"color" : [ 1.0, 0.0, 0.0, 1.0 ],
									"destination" : [ "obj-36", 0 ],
									"disabled" : 0,
									"hidden" : 0,
									"source" : [ "obj-30", 2 ]
								}

							}
, 							{
								"patchline" : 								{
									"color" : [ 0.0, 0.0, 1.0, 1.0 ],
									"destination" : [ "obj-60", 0 ],
									"disabled" : 0,
									"hidden" : 0,
									"source" : [ "obj-30", 5 ]
								}

							}
, 							{
								"patchline" : 								{
									"color" : [ 1.0, 0.0, 0.0, 1.0 ],
									"destination" : [ "obj-61", 0 ],
									"disabled" : 0,
									"hidden" : 0,
									"source" : [ "obj-30", 4 ]
								}

							}
, 							{
								"patchline" : 								{
									"color" : [ 0.0, 0.0, 1.0, 1.0 ],
									"destination" : [ "obj-62", 0 ],
									"disabled" : 0,
									"hidden" : 0,
									"source" : [ "obj-30", 3 ]
								}

							}
, 							{
								"patchline" : 								{
									"color" : [ 1.0, 0.0, 0.0, 1.0 ],
									"destination" : [ "obj-65", 0 ],
									"disabled" : 0,
									"hidden" : 0,
									"source" : [ "obj-30", 6 ]
								}

							}
, 							{
								"patchline" : 								{
									"color" : [ 1.0, 0.0, 0.0, 1.0 ],
									"destination" : [ "obj-24", 0 ],
									"disabled" : 0,
									"hidden" : 0,
									"source" : [ "obj-33", 6 ]
								}

							}
, 							{
								"patchline" : 								{
									"color" : [ 0.0, 0.0, 1.0, 1.0 ],
									"destination" : [ "obj-26", 0 ],
									"disabled" : 0,
									"hidden" : 0,
									"source" : [ "obj-33", 5 ]
								}

							}
, 							{
								"patchline" : 								{
									"color" : [ 1.0, 0.0, 0.0, 1.0 ],
									"destination" : [ "obj-27", 0 ],
									"disabled" : 0,
									"hidden" : 0,
									"source" : [ "obj-33", 4 ]
								}

							}
, 							{
								"patchline" : 								{
									"color" : [ 0.0, 0.0, 1.0, 1.0 ],
									"destination" : [ "obj-28", 0 ],
									"disabled" : 0,
									"hidden" : 0,
									"source" : [ "obj-33", 3 ]
								}

							}
, 							{
								"patchline" : 								{
									"color" : [ 1.0, 0.0, 0.0, 1.0 ],
									"destination" : [ "obj-29", 0 ],
									"disabled" : 0,
									"hidden" : 0,
									"source" : [ "obj-33", 2 ]
								}

							}
, 							{
								"patchline" : 								{
									"color" : [ 0.0, 0.0, 1.0, 1.0 ],
									"destination" : [ "obj-31", 0 ],
									"disabled" : 0,
									"hidden" : 0,
									"source" : [ "obj-33", 1 ]
								}

							}
, 							{
								"patchline" : 								{
									"color" : [ 0.2, 0.2, 0.2, 1.0 ],
									"destination" : [ "obj-32", 0 ],
									"disabled" : 0,
									"hidden" : 0,
									"source" : [ "obj-33", 0 ]
								}

							}
, 							{
								"patchline" : 								{
									"color" : [ 1.0, 0.0, 0.0, 1.0 ],
									"destination" : [ "obj-44", 6 ],
									"disabled" : 0,
									"hidden" : 0,
									"source" : [ "obj-33", 6 ]
								}

							}
, 							{
								"patchline" : 								{
									"color" : [ 0.0, 0.0, 1.0, 1.0 ],
									"destination" : [ "obj-44", 5 ],
									"disabled" : 0,
									"hidden" : 0,
									"source" : [ "obj-33", 5 ]
								}

							}
, 							{
								"patchline" : 								{
									"color" : [ 1.0, 0.0, 0.0, 1.0 ],
									"destination" : [ "obj-44", 4 ],
									"disabled" : 0,
									"hidden" : 0,
									"source" : [ "obj-33", 4 ]
								}

							}
, 							{
								"patchline" : 								{
									"color" : [ 0.0, 0.0, 1.0, 1.0 ],
									"destination" : [ "obj-44", 3 ],
									"disabled" : 0,
									"hidden" : 0,
									"source" : [ "obj-33", 3 ]
								}

							}
, 							{
								"patchline" : 								{
									"color" : [ 1.0, 0.0, 0.0, 1.0 ],
									"destination" : [ "obj-44", 2 ],
									"disabled" : 0,
									"hidden" : 0,
									"source" : [ "obj-33", 2 ]
								}

							}
, 							{
								"patchline" : 								{
									"color" : [ 0.0, 0.0, 1.0, 1.0 ],
									"destination" : [ "obj-44", 1 ],
									"disabled" : 0,
									"hidden" : 0,
									"source" : [ "obj-33", 1 ]
								}

							}
, 							{
								"patchline" : 								{
									"color" : [ 0.2, 0.2, 0.2, 1.0 ],
									"destination" : [ "obj-44", 0 ],
									"disabled" : 0,
									"hidden" : 0,
									"source" : [ "obj-33", 0 ]
								}

							}
, 							{
								"patchline" : 								{
									"color" : [ 1.0, 0.0, 0.0, 1.0 ],
									"destination" : [ "obj-37", 0 ],
									"disabled" : 0,
									"hidden" : 0,
									"source" : [ "obj-44", 6 ]
								}

							}
, 							{
								"patchline" : 								{
									"color" : [ 0.0, 0.0, 1.0, 1.0 ],
									"destination" : [ "obj-38", 0 ],
									"disabled" : 0,
									"hidden" : 0,
									"source" : [ "obj-44", 5 ]
								}

							}
, 							{
								"patchline" : 								{
									"color" : [ 1.0, 0.0, 0.0, 1.0 ],
									"destination" : [ "obj-39", 0 ],
									"disabled" : 0,
									"hidden" : 0,
									"source" : [ "obj-44", 4 ]
								}

							}
, 							{
								"patchline" : 								{
									"color" : [ 0.0, 0.0, 1.0, 1.0 ],
									"destination" : [ "obj-40", 0 ],
									"disabled" : 0,
									"hidden" : 0,
									"source" : [ "obj-44", 3 ]
								}

							}
, 							{
								"patchline" : 								{
									"color" : [ 1.0, 0.0, 0.0, 1.0 ],
									"destination" : [ "obj-41", 0 ],
									"disabled" : 0,
									"hidden" : 0,
									"source" : [ "obj-44", 2 ]
								}

							}
, 							{
								"patchline" : 								{
									"color" : [ 0.0, 0.0, 1.0, 1.0 ],
									"destination" : [ "obj-42", 0 ],
									"disabled" : 0,
									"hidden" : 0,
									"source" : [ "obj-44", 1 ]
								}

							}
, 							{
								"patchline" : 								{
									"color" : [ 0.2, 0.2, 0.2, 1.0 ],
									"destination" : [ "obj-43", 0 ],
									"disabled" : 0,
									"hidden" : 0,
									"source" : [ "obj-44", 0 ]
								}

							}
, 							{
								"patchline" : 								{
									"color" : [ 1.0, 0.0, 0.0, 1.0 ],
									"destination" : [ "obj-64", 6 ],
									"disabled" : 0,
									"hidden" : 0,
									"source" : [ "obj-44", 6 ]
								}

							}
, 							{
								"patchline" : 								{
									"color" : [ 0.0, 0.0, 1.0, 1.0 ],
									"destination" : [ "obj-64", 5 ],
									"disabled" : 0,
									"hidden" : 0,
									"source" : [ "obj-44", 5 ]
								}

							}
, 							{
								"patchline" : 								{
									"color" : [ 1.0, 0.0, 0.0, 1.0 ],
									"destination" : [ "obj-64", 4 ],
									"disabled" : 0,
									"hidden" : 0,
									"source" : [ "obj-44", 4 ]
								}

							}
, 							{
								"patchline" : 								{
									"color" : [ 0.0, 0.0, 1.0, 1.0 ],
									"destination" : [ "obj-64", 3 ],
									"disabled" : 0,
									"hidden" : 0,
									"source" : [ "obj-44", 3 ]
								}

							}
, 							{
								"patchline" : 								{
									"color" : [ 1.0, 0.0, 0.0, 1.0 ],
									"destination" : [ "obj-64", 2 ],
									"disabled" : 0,
									"hidden" : 0,
									"source" : [ "obj-44", 2 ]
								}

							}
, 							{
								"patchline" : 								{
									"color" : [ 0.0, 0.0, 1.0, 1.0 ],
									"destination" : [ "obj-64", 1 ],
									"disabled" : 0,
									"hidden" : 0,
									"source" : [ "obj-44", 1 ]
								}

							}
, 							{
								"patchline" : 								{
									"color" : [ 0.2, 0.2, 0.2, 1.0 ],
									"destination" : [ "obj-64", 0 ],
									"disabled" : 0,
									"hidden" : 0,
									"source" : [ "obj-44", 0 ]
								}

							}
, 							{
								"patchline" : 								{
									"destination" : [ "obj-10", 0 ],
									"disabled" : 0,
									"hidden" : 1,
									"midpoints" : [ 855.5, 32.0, 855.5, 32.0 ],
									"source" : [ "obj-46", 0 ]
								}

							}
, 							{
								"patchline" : 								{
									"color" : [ 1.0, 0.0, 0.0, 1.0 ],
									"destination" : [ "obj-45", 0 ],
									"disabled" : 0,
									"hidden" : 0,
									"source" : [ "obj-64", 6 ]
								}

							}
, 							{
								"patchline" : 								{
									"color" : [ 0.0, 0.0, 1.0, 1.0 ],
									"destination" : [ "obj-47", 0 ],
									"disabled" : 0,
									"hidden" : 0,
									"source" : [ "obj-64", 5 ]
								}

							}
, 							{
								"patchline" : 								{
									"color" : [ 1.0, 0.0, 0.0, 1.0 ],
									"destination" : [ "obj-48", 0 ],
									"disabled" : 0,
									"hidden" : 0,
									"source" : [ "obj-64", 4 ]
								}

							}
, 							{
								"patchline" : 								{
									"color" : [ 0.0, 0.0, 1.0, 1.0 ],
									"destination" : [ "obj-49", 0 ],
									"disabled" : 0,
									"hidden" : 0,
									"source" : [ "obj-64", 3 ]
								}

							}
, 							{
								"patchline" : 								{
									"color" : [ 1.0, 0.0, 0.0, 1.0 ],
									"destination" : [ "obj-50", 0 ],
									"disabled" : 0,
									"hidden" : 0,
									"source" : [ "obj-64", 2 ]
								}

							}
, 							{
								"patchline" : 								{
									"color" : [ 0.0, 0.0, 1.0, 1.0 ],
									"destination" : [ "obj-51", 0 ],
									"disabled" : 0,
									"hidden" : 0,
									"source" : [ "obj-64", 1 ]
								}

							}
, 							{
								"patchline" : 								{
									"color" : [ 0.2, 0.2, 0.2, 1.0 ],
									"destination" : [ "obj-63", 0 ],
									"disabled" : 0,
									"hidden" : 0,
									"source" : [ "obj-64", 0 ]
								}

							}
 ],
						"styles" : [ 							{
								"name" : "AudioStatus_Menu",
								"default" : 								{
									"bgfillcolor" : 									{
										"type" : "color",
										"color" : [ 0.294118, 0.313726, 0.337255, 1 ],
										"color1" : [ 0.454902, 0.462745, 0.482353, 0.0 ],
										"color2" : [ 0.290196, 0.309804, 0.301961, 1.0 ],
										"angle" : 270.0,
										"proportion" : 0.39,
										"autogradient" : 0
									}

								}
,
								"parentstyle" : "",
								"multi" : 0
							}
, 							{
								"name" : "newobjBlue-1",
								"default" : 								{
									"accentcolor" : [ 0.317647, 0.654902, 0.976471, 1.0 ]
								}
,
								"parentstyle" : "",
								"multi" : 0
							}
, 							{
								"name" : "newobjGreen-1",
								"default" : 								{
									"accentcolor" : [ 0.0, 0.533333, 0.168627, 1.0 ]
								}
,
								"parentstyle" : "",
								"multi" : 0
							}
, 							{
								"name" : "newobjYellow-1",
								"default" : 								{
									"fontsize" : [ 12.059008 ],
									"accentcolor" : [ 0.82517, 0.78181, 0.059545, 1.0 ]
								}
,
								"parentstyle" : "",
								"multi" : 0
							}
 ]
					}
,
					"patching_rect" : [ 22.0, 27.0, 51.0, 22.0 ],
					"saved_object_attributes" : 					{
						"description" : "",
						"digest" : "",
						"fontsize" : 11.595187,
						"globalpatchername" : "",
						"style" : "",
						"tags" : ""
					}
,
					"style" : "",
					"text" : "p basic",
					"textcolor" : [ 0.209184, 0.209184, 0.209184, 1.0 ]
				}

			}
, 			{
				"box" : 				{
					"bgcolor" : [ 1.0, 1.0, 1.0, 1.0 ],
					"color" : [ 0.734694, 0.734694, 0.734694, 1.0 ],
					"fontname" : "Arial",
					"fontsize" : 12.0,
					"hidden" : 1,
					"id" : "obj-24",
					"maxclass" : "newobj",
					"numinlets" : 0,
					"numoutlets" : 0,
					"patcher" : 					{
						"fileversion" : 1,
						"appversion" : 						{
							"major" : 7,
							"minor" : 0,
							"revision" : 3,
							"architecture" : "x64",
							"modernui" : 1
						}
,
						"rect" : [ 0.0, 26.0, 926.0, 651.0 ],
						"bglocked" : 0,
						"openinpresentation" : 0,
						"default_fontsize" : 13.0,
						"default_fontface" : 0,
						"default_fontname" : "Arial",
						"gridonopen" : 1,
						"gridsize" : [ 5.0, 5.0 ],
						"gridsnaponopen" : 1,
						"objectsnaponopen" : 1,
						"statusbarvisible" : 2,
						"toolbarvisible" : 1,
						"lefttoolbarpinned" : 0,
						"toptoolbarpinned" : 0,
						"righttoolbarpinned" : 0,
						"bottomtoolbarpinned" : 0,
						"toolbars_unpinned_last_save" : 0,
						"tallnewobj" : 0,
						"boxanimatetime" : 200,
						"enablehscroll" : 1,
						"enablevscroll" : 1,
						"devicewidth" : 0.0,
						"description" : "",
						"digest" : "",
						"tags" : "",
						"style" : "",
						"subpatcher_template" : "",
						"showontab" : 1,
						"boxes" : [  ],
						"lines" : [  ]
					}
,
					"patching_rect" : [ 80.0, 27.0, 50.0, 22.0 ],
					"saved_object_attributes" : 					{
						"description" : "",
						"digest" : "",
						"fontsize" : 13.0,
						"globalpatchername" : "",
						"style" : "",
						"tags" : ""
					}
,
					"style" : "",
					"text" : "p ?",
					"textcolor" : [ 0.209184, 0.209184, 0.209184, 1.0 ],
					"varname" : "q_tab"
				}

			}
 ],
		"lines" : [  ],
		"parameters" : 		{

		}
,
		"dependency_cache" : [ 			{
				"name" : "hoa.helpheader.maxpat",
				"bootpath" : "~/Documents/programmation/CICM/sourceTree/HoaLibrary-Max/Package/HoaLibrary/misc/others",
				"patcherrelativepath" : "../../misc/others",
				"type" : "JSON",
				"implicit" : 1
			}
, 			{
				"name" : "hoa.2d.scope~.svg",
				"bootpath" : "~/Documents/programmation/CICM/sourceTree/HoaLibrary-Max/Package/HoaLibrary/misc/object-palettes",
				"patcherrelativepath" : "../../misc/object-palettes",
				"type" : "svg ",
				"implicit" : 1
			}
, 			{
				"name" : "hoa.helpcredit.maxpat",
				"bootpath" : "~/Documents/programmation/CICM/sourceTree/HoaLibrary-Max/Package/HoaLibrary/misc/others",
				"patcherrelativepath" : "../../misc/others",
				"type" : "JSON",
				"implicit" : 1
			}
, 			{
				"name" : "hoa.connect.mxo",
				"type" : "iLaX"
			}
, 			{
				"name" : "hoa.2d.encoder~.mxo",
				"type" : "iLaX"
			}
, 			{
				"name" : "hoa.2d.exchanger~.mxo",
				"type" : "iLaX"
			}
 ],
		"embedsnapshot" : 0
	}

}
