{
	"patcher" : 	{
		"fileversion" : 1,
		"appversion" : 		{
			"major" : 7,
			"minor" : 0,
			"revision" : 3,
			"architecture" : "x64",
			"modernui" : 1
		}
,
		"rect" : [ 871.0, 95.0, 1171.0, 756.0 ],
		"bgcolor" : [ 0.93, 0.93, 0.92, 1.0 ],
		"bglocked" : 0,
		"openinpresentation" : 0,
		"default_fontsize" : 12.0,
		"default_fontface" : 0,
		"default_fontname" : "Arial",
		"gridonopen" : 1,
		"gridsize" : [ 15.0, 15.0 ],
		"gridsnaponopen" : 1,
		"objectsnaponopen" : 1,
		"statusbarvisible" : 2,
		"toolbarvisible" : 1,
		"lefttoolbarpinned" : 0,
		"toptoolbarpinned" : 0,
		"righttoolbarpinned" : 0,
		"bottomtoolbarpinned" : 0,
		"toolbars_unpinned_last_save" : 0,
		"tallnewobj" : 0,
		"boxanimatetime" : 200,
		"enablehscroll" : 1,
		"enablevscroll" : 1,
		"devicewidth" : 0.0,
		"description" : "",
		"digest" : "",
		"tags" : "",
		"style" : "",
		"subpatcher_template" : "",
		"boxes" : [ 			{
				"box" : 				{
					"fontface" : 3,
					"fontname" : "Arial",
					"fontsize" : 13.036499,
					"id" : "obj-40",
					"maxclass" : "comment",
					"numinlets" : 1,
					"numoutlets" : 0,
					"patching_rect" : [ 21.0, 453.0, 329.0, 21.0 ],
					"style" : "",
					"text" : "L'ambisonie implique aussi quelques restrictions :",
					"textcolor" : [ 0.317518, 0.317518, 0.317518, 1.0 ]
				}

			}
, 			{
				"box" : 				{
					"angle" : 0.0,
					"background" : 1,
					"bgcolor" : [ 1.0, 1.0, 1.0, 1.0 ],
					"border" : 1,
					"bordercolor" : [ 0.187636, 0.74902, 0.121902, 1.0 ],
					"id" : "obj-30",
					"maxclass" : "panel",
					"mode" : 0,
					"numinlets" : 1,
					"numoutlets" : 0,
					"patching_rect" : [ 21.0, 108.058365, 329.0, 21.0 ],
					"proportion" : 0.39,
					"rounded" : 0,
					"style" : ""
				}

			}
, 			{
				"box" : 				{
					"fontface" : 3,
					"fontname" : "Arial",
					"fontsize" : 13.036499,
					"id" : "obj-19",
					"maxclass" : "comment",
					"numinlets" : 1,
					"numoutlets" : 0,
					"patching_rect" : [ 21.0, 108.058365, 329.0, 21.0 ],
					"style" : "",
					"text" : "L'ambisonie offre un certain nombre d'avantages :",
					"textcolor" : [ 0.317518, 0.317518, 0.317518, 1.0 ]
				}

			}
, 			{
				"box" : 				{
					"fontname" : "Arial",
					"fontsize" : 11.595187,
					"id" : "obj-13",
					"linecount" : 19,
					"maxclass" : "comment",
					"numinlets" : 1,
					"numoutlets" : 0,
					"patching_rect" : [ 21.0, 478.525024, 329.0, 253.0 ],
					"style" : "",
					"text" : "• En ambisonie, l'auditeur doit être placé idéalement au centre des haut-parleurs pour percevoir parfaitement le champ sonore.\nNéanmoins, l'emploi d'une optimisation inPhase ou maxRe (cf tutoriel 8) peut aider à contourner cette limitation (au détriment de la résolution spatiale) et permettre un placement plus libre de l'auditeur dans l'espace.\n\n• le système de restitution est restreint par l'ordre de décomposition.\nLe nombre de haut-parleurs doit être supérieur ou égal au nombre d'harmoniques. De plus, ils doivent être placés sur un cercle ou une sphère à égale distance les uns des autres. Néanmoins, ces restrictions peuvent être contournées (au détriment de la qualité de la réstitution du champ sonore). En pratique, il est possible de projeter le champ sonore pour s'adapter à un grand nombre de configurations (stereo, 5.1, casque..), voir le tutoriel 7 et l'aide de l'objet decoder pour plus de détails.",
					"textcolor" : [ 0.317518, 0.317518, 0.317518, 1.0 ]
				}

			}
, 			{
				"box" : 				{
					"fontname" : "Arial",
					"fontsize" : 11.595187,
					"id" : "obj-8",
					"linecount" : 22,
					"maxclass" : "comment",
					"numinlets" : 1,
					"numoutlets" : 0,
					"patching_rect" : [ 21.0, 134.0, 329.0, 291.0 ],
					"style" : "",
					"text" : "• L'ambisonie permet de synthétiser et de décoder plusieurs champs sonores en une seule opération, réduisant ainsi l'usage du CPU.\nLa séparation de ces deux opérations permet de donner un accès direct aux harmoniques et à un grand nombre de traitements. Dans la même mesure cela rend possible l'enregistrement du champ sonore dans le domaine des harmoniques, ce qui peut permettre d'adapter le champ sonore à une autre configuration d'écoute.\n\n• L'ambisonie offre un rendu homogène du champ sonore. à la différence d'autres techniques où la résolution angulaire varie en fonction de la direction de la source, l'ambisonie garanti une résolution angulaire constante.\n\n• L'ambisonie offre un grand nombre de transformations \"classiques\" du champ sonore comme la rotation ou encore la distorsion.\n\n• Ce model donne aussi une représentation du champ sonore qui permet d'explorer de nouvelles techniques de synthèse et transformation du champ sonore au fort potentiel musical.",
					"textcolor" : [ 0.317518, 0.317518, 0.317518, 1.0 ]
				}

			}
, 			{
				"box" : 				{
					"fontname" : "Arial",
					"fontsize" : 11.595187,
					"hidden" : 1,
					"id" : "obj-46",
					"maxclass" : "newobj",
					"numinlets" : 0,
					"numoutlets" : 1,
					"outlettype" : [ "bang" ],
					"patcher" : 					{
						"fileversion" : 1,
						"appversion" : 						{
							"major" : 7,
							"minor" : 0,
							"revision" : 3,
							"architecture" : "x64",
							"modernui" : 1
						}
,
						"rect" : [ 413.0, 101.0, 204.0, 214.0 ],
						"bglocked" : 0,
						"openinpresentation" : 0,
						"default_fontsize" : 12.0,
						"default_fontface" : 0,
						"default_fontname" : "Arial",
						"gridonopen" : 1,
						"gridsize" : [ 15.0, 15.0 ],
						"gridsnaponopen" : 1,
						"objectsnaponopen" : 1,
						"statusbarvisible" : 2,
						"toolbarvisible" : 1,
						"lefttoolbarpinned" : 0,
						"toptoolbarpinned" : 0,
						"righttoolbarpinned" : 0,
						"bottomtoolbarpinned" : 0,
						"toolbars_unpinned_last_save" : 0,
						"tallnewobj" : 0,
						"boxanimatetime" : 200,
						"enablehscroll" : 1,
						"enablevscroll" : 1,
						"devicewidth" : 0.0,
						"description" : "",
						"digest" : "",
						"tags" : "",
						"style" : "",
						"subpatcher_template" : "",
						"boxes" : [ 							{
								"box" : 								{
									"fontname" : "Arial",
									"fontsize" : 12.0,
									"id" : "obj-5",
									"maxclass" : "newobj",
									"numinlets" : 1,
									"numoutlets" : 2,
									"outlettype" : [ "int", "int" ],
									"patching_rect" : [ 85.0, 78.0, 49.0, 20.0 ],
									"style" : "",
									"text" : "unpack"
								}

							}
, 							{
								"box" : 								{
									"fontname" : "Arial",
									"fontsize" : 12.0,
									"id" : "obj-4",
									"maxclass" : "newobj",
									"numinlets" : 1,
									"numoutlets" : 1,
									"outlettype" : [ "bang" ],
									"patching_rect" : [ 85.0, 9.0, 60.0, 20.0 ],
									"style" : "",
									"text" : "loadbang"
								}

							}
, 							{
								"box" : 								{
									"fontname" : "Arial",
									"fontsize" : 12.0,
									"id" : "obj-3",
									"maxclass" : "number",
									"numinlets" : 1,
									"numoutlets" : 2,
									"outlettype" : [ "", "bang" ],
									"parameter_enable" : 0,
									"patching_rect" : [ 145.0, 119.0, 50.0, 20.0 ],
									"style" : ""
								}

							}
, 							{
								"box" : 								{
									"fontname" : "Arial",
									"fontsize" : 12.0,
									"id" : "obj-1",
									"maxclass" : "newobj",
									"numinlets" : 1,
									"numoutlets" : 2,
									"outlettype" : [ "", "" ],
									"patching_rect" : [ 85.0, 41.0, 74.0, 20.0 ],
									"style" : "",
									"text" : "patcherargs"
								}

							}
, 							{
								"box" : 								{
									"id" : "obj-10",
									"maxclass" : "button",
									"numinlets" : 1,
									"numoutlets" : 1,
									"outlettype" : [ "bang" ],
									"patching_rect" : [ 16.5, 149.0, 20.0, 20.0 ],
									"style" : ""
								}

							}
, 							{
								"box" : 								{
									"fontname" : "Arial",
									"fontsize" : 11.595187,
									"id" : "obj-23",
									"maxclass" : "newobj",
									"numinlets" : 2,
									"numoutlets" : 2,
									"outlettype" : [ "bang", "" ],
									"patching_rect" : [ 16.5, 119.0, 117.5, 19.0 ],
									"style" : "",
									"text" : "sel 32"
								}

							}
, 							{
								"box" : 								{
									"fontname" : "Arial",
									"fontsize" : 11.595187,
									"id" : "obj-17",
									"maxclass" : "newobj",
									"numinlets" : 0,
									"numoutlets" : 4,
									"outlettype" : [ "int", "int", "int", "int" ],
									"patching_rect" : [ 16.5, 78.0, 59.5, 19.0 ],
									"style" : "",
									"text" : "key"
								}

							}
, 							{
								"box" : 								{
									"comment" : "",
									"id" : "obj-45",
									"maxclass" : "outlet",
									"numinlets" : 1,
									"numoutlets" : 0,
									"patching_rect" : [ 16.5, 178.0, 25.0, 25.0 ],
									"style" : ""
								}

							}
 ],
						"lines" : [ 							{
								"patchline" : 								{
									"destination" : [ "obj-5", 0 ],
									"disabled" : 0,
									"hidden" : 0,
									"source" : [ "obj-1", 0 ]
								}

							}
, 							{
								"patchline" : 								{
									"destination" : [ "obj-45", 0 ],
									"disabled" : 0,
									"hidden" : 0,
									"source" : [ "obj-10", 0 ]
								}

							}
, 							{
								"patchline" : 								{
									"destination" : [ "obj-23", 0 ],
									"disabled" : 0,
									"hidden" : 0,
									"source" : [ "obj-17", 0 ]
								}

							}
, 							{
								"patchline" : 								{
									"destination" : [ "obj-10", 0 ],
									"disabled" : 0,
									"hidden" : 0,
									"midpoints" : [ 26.0, 140.0, 26.0, 140.0 ],
									"source" : [ "obj-23", 0 ]
								}

							}
, 							{
								"patchline" : 								{
									"destination" : [ "obj-1", 0 ],
									"disabled" : 0,
									"hidden" : 0,
									"source" : [ "obj-4", 0 ]
								}

							}
, 							{
								"patchline" : 								{
									"destination" : [ "obj-23", 1 ],
									"disabled" : 0,
									"hidden" : 0,
									"source" : [ "obj-5", 1 ]
								}

							}
, 							{
								"patchline" : 								{
									"destination" : [ "obj-3", 0 ],
									"disabled" : 0,
									"hidden" : 0,
									"source" : [ "obj-5", 1 ]
								}

							}
 ]
					}
,
					"patching_rect" : [ 1027.0, 524.0, 69.0, 21.0 ],
					"saved_object_attributes" : 					{
						"description" : "",
						"digest" : "",
						"globalpatchername" : "",
						"style" : "",
						"tags" : ""
					}
,
					"style" : "",
					"text" : "p keysel 32"
				}

			}
, 			{
				"box" : 				{
					"fontname" : "Arial",
					"fontsize" : 11.595187,
					"hidden" : 1,
					"id" : "obj-17",
					"maxclass" : "newobj",
					"numinlets" : 1,
					"numoutlets" : 0,
					"patching_rect" : [ 1027.0, 555.0, 74.0, 21.0 ],
					"style" : "",
					"text" : "hoa.connect"
				}

			}
, 			{
				"box" : 				{
					"fontface" : 0,
					"fontname" : "Arial",
					"fontsize" : 12.0,
					"id" : "obj-7",
					"maxclass" : "number~",
					"mode" : 2,
					"numinlets" : 2,
					"numoutlets" : 2,
					"outlettype" : [ "signal", "float" ],
					"patching_rect" : [ 767.599976, 167.5, 56.0, 22.0 ],
					"sig" : 0.0,
					"style" : ""
				}

			}
, 			{
				"box" : 				{
					"fontname" : "Arial",
					"fontsize" : 12.0,
					"hidden" : 1,
					"id" : "obj-6",
					"maxclass" : "newobj",
					"numinlets" : 2,
					"numoutlets" : 1,
					"outlettype" : [ "signal" ],
					"patching_rect" : [ 767.150024, 147.5, 60.0, 22.0 ],
					"style" : "",
					"text" : "hoa.pi~ 2"
				}

			}
, 			{
				"box" : 				{
					"fontname" : "Arial",
					"fontsize" : 12.0,
					"hidden" : 1,
					"id" : "obj-3",
					"maxclass" : "newobj",
					"numinlets" : 2,
					"numoutlets" : 1,
					"outlettype" : [ "signal" ],
					"patching_rect" : [ 808.150024, 116.0, 74.0, 22.0 ],
					"style" : "",
					"text" : "phasor~ 0.1"
				}

			}
, 			{
				"box" : 				{
					"fontname" : "Arial",
					"fontsize" : 11.595187,
					"id" : "obj-36",
					"linecount" : 2,
					"maxclass" : "comment",
					"numinlets" : 1,
					"numoutlets" : 0,
					"patching_rect" : [ 1081.5, 694.5, 54.0, 32.0 ],
					"style" : "",
					"text" : "Audio\nOn/Off",
					"textcolor" : [ 0.317518, 0.317518, 0.317518, 1.0 ]
				}

			}
, 			{
				"box" : 				{
					"bgcolor" : [ 0.853045, 0.853045, 0.853045, 1.0 ],
					"color" : [ 0.92549, 0.364706, 0.341176, 1.0 ],
					"id" : "obj-65",
					"local" : 1,
					"maxclass" : "ezdac~",
					"numinlets" : 2,
					"numoutlets" : 0,
					"patching_rect" : [ 1029.0, 688.0, 45.0, 45.0 ],
					"style" : ""
				}

			}
, 			{
				"box" : 				{
					"fontname" : "Arial",
					"fontsize" : 11.595187,
					"id" : "obj-14",
					"linecount" : 2,
					"maxclass" : "comment",
					"numinlets" : 1,
					"numoutlets" : 0,
					"patching_rect" : [ 5.0, 68.5, 926.0, 32.0 ],
					"style" : "",
					"text" : "L'ambisonie est un ensemble de techniques d'enregistrement, de synthèse, de transformation et de restitution du champ sonore basé sur une représentation physique de l'espace dans le domaine des harmoniques sphérique ou circulaire ou dans le domaine des ondes planes qui permet d'effectuer un grand nombre de traitements du son et de l'espace.",
					"textcolor" : [ 0.317518, 0.317518, 0.317518, 1.0 ]
				}

			}
, 			{
				"box" : 				{
					"angle" : 0.0,
					"bgcolor" : [ 0.94324, 0.954082, 0.954082, 1.0 ],
					"border" : 1,
					"bordercolor" : [ 0.75, 0.75, 0.75, 1.0 ],
					"id" : "obj-15",
					"maxclass" : "panel",
					"mode" : 0,
					"numinlets" : 1,
					"numoutlets" : 0,
					"patching_rect" : [ 5.0, 68.5, 922.650024, 32.0 ],
					"proportion" : 0.39,
					"rounded" : 0,
					"style" : ""
				}

			}
, 			{
				"box" : 				{
					"args" : [ "@size", 1 ],
					"bgmode" : 0,
					"border" : 0,
					"clickthrough" : 0,
					"enablehscroll" : 0,
					"enablevscroll" : 0,
					"id" : "obj-10",
					"lockeddragscroll" : 0,
					"maxclass" : "bpatcher",
					"name" : "hoa.helpcredit.maxpat",
					"numinlets" : 1,
					"numoutlets" : 0,
					"offset" : [ 0.0, 0.0 ],
					"patching_rect" : [ 495.0, 15.0, 332.0, 35.0 ],
					"viewvisibility" : 1
				}

			}
, 			{
				"box" : 				{
					"args" : [ "@obj-name", "Tutoriel 1 : ", "@obj-desc", "Introduction" ],
					"bgmode" : 0,
					"border" : 0,
					"clickthrough" : 0,
					"enablehscroll" : 0,
					"enablevscroll" : 0,
					"id" : "obj-56",
					"lockeddragscroll" : 0,
					"maxclass" : "bpatcher",
					"name" : "hoa.helpheader.maxpat",
					"numinlets" : 1,
					"numoutlets" : 0,
					"offset" : [ 0.0, 0.0 ],
					"patching_rect" : [ 5.0, 5.0, 483.0, 56.0 ],
					"viewvisibility" : 1
				}

			}
, 			{
				"box" : 				{
					"fontname" : "Arial",
					"fontsize" : 7.180877,
					"hidden" : 1,
					"id" : "obj-5",
					"linecount" : 2,
					"maxclass" : "newobj",
					"numinlets" : 4,
					"numoutlets" : 0,
					"patching_rect" : [ 417.0, 21.5, 52.0, 25.0 ],
					"style" : "",
					"text" : "bgcolor 0.93 0.93 0.92 1."
				}

			}
, 			{
				"box" : 				{
					"fontname" : "Arial",
					"fontsize" : 11.595187,
					"id" : "obj-31",
					"linecount" : 2,
					"maxclass" : "comment",
					"numinlets" : 1,
					"numoutlets" : 0,
					"patching_rect" : [ 827.650024, 161.0, 126.25, 32.0 ],
					"style" : "",
					"text" : "Angle d'encodage en radians",
					"textcolor" : [ 0.317518, 0.317518, 0.317518, 1.0 ]
				}

			}
, 			{
				"box" : 				{
					"fontname" : "Arial",
					"fontsize" : 11.595187,
					"id" : "obj-28",
					"maxclass" : "comment",
					"numinlets" : 1,
					"numoutlets" : 0,
					"patching_rect" : [ 421.25, 167.5, 125.0, 19.0 ],
					"style" : "",
					"text" : "Synthèse de la source",
					"textcolor" : [ 0.317518, 0.317518, 0.317518, 1.0 ]
				}

			}
, 			{
				"box" : 				{
					"fontname" : "Arial",
					"fontsize" : 11.595187,
					"id" : "obj-25",
					"linecount" : 3,
					"maxclass" : "comment",
					"numinlets" : 1,
					"numoutlets" : 0,
					"patching_rect" : [ 800.650024, 503.525024, 123.0, 45.0 ],
					"style" : "",
					"text" : "Représentation de la contribution des 16 haut-parleurs",
					"textcolor" : [ 0.317518, 0.317518, 0.317518, 1.0 ]
				}

			}
, 			{
				"box" : 				{
					"fontname" : "Arial",
					"fontsize" : 11.595187,
					"id" : "obj-23",
					"linecount" : 4,
					"maxclass" : "comment",
					"numinlets" : 1,
					"numoutlets" : 0,
					"patching_rect" : [ 1047.0, 225.0, 90.0, 58.0 ],
					"style" : "",
					"text" : "Représentation des harmoniques circulaires",
					"textcolor" : [ 0.317518, 0.317518, 0.317518, 1.0 ]
				}

			}
, 			{
				"box" : 				{
					"fontname" : "Arial",
					"fontsize" : 11.595187,
					"id" : "obj-21",
					"linecount" : 2,
					"maxclass" : "comment",
					"numinlets" : 1,
					"numoutlets" : 0,
					"patching_rect" : [ 415.150024, 450.0, 161.0, 32.0 ],
					"style" : "",
					"text" : "Signaux à envoyer aux haut-parleurs",
					"textcolor" : [ 0.317518, 0.317518, 0.317518, 1.0 ]
				}

			}
, 			{
				"box" : 				{
					"angle" : 0.0,
					"bgcolor" : [ 0.0, 0.0, 0.0, 0.05 ],
					"bordercolor" : [ 0.235294, 0.235294, 0.235294, 0.2 ],
					"id" : "obj-22",
					"maxclass" : "panel",
					"mode" : 0,
					"numinlets" : 1,
					"numoutlets" : 0,
					"patching_rect" : [ 415.150024, 450.0, 379.850006, 32.0 ],
					"proportion" : 0.39,
					"rounded" : 0,
					"shadow" : -1,
					"style" : ""
				}

			}
, 			{
				"box" : 				{
					"fontname" : "Arial",
					"fontsize" : 11.595187,
					"id" : "obj-16",
					"linecount" : 2,
					"maxclass" : "comment",
					"numinlets" : 1,
					"numoutlets" : 0,
					"patching_rect" : [ 415.150024, 301.0, 161.0, 32.0 ],
					"style" : "",
					"text" : "Signaux dépendant des harmoniques circulaires",
					"textcolor" : [ 0.317518, 0.317518, 0.317518, 1.0 ]
				}

			}
, 			{
				"box" : 				{
					"angle" : 0.0,
					"bgcolor" : [ 0.0, 0.0, 0.0, 0.05 ],
					"bordercolor" : [ 0.235294, 0.235294, 0.235294, 0.2 ],
					"id" : "obj-18",
					"maxclass" : "panel",
					"mode" : 0,
					"numinlets" : 1,
					"numoutlets" : 0,
					"patching_rect" : [ 415.150024, 301.0, 379.850006, 32.0 ],
					"proportion" : 0.39,
					"rounded" : 0,
					"shadow" : -1,
					"style" : ""
				}

			}
, 			{
				"box" : 				{
					"fontname" : "Arial",
					"fontsize" : 11.595187,
					"id" : "obj-9",
					"linecount" : 2,
					"maxclass" : "comment",
					"numinlets" : 1,
					"numoutlets" : 0,
					"patching_rect" : [ 374.0, 408.0, 193.5, 32.0 ],
					"style" : "",
					"text" : "2 - Décodage régulier pour un ensemble de haut-parleurs",
					"textcolor" : [ 0.317518, 0.317518, 0.317518, 1.0 ]
				}

			}
, 			{
				"box" : 				{
					"fontname" : "Arial",
					"fontsize" : 11.595187,
					"id" : "obj-2",
					"linecount" : 2,
					"maxclass" : "comment",
					"numinlets" : 1,
					"numoutlets" : 0,
					"patching_rect" : [ 374.0, 211.5, 187.0, 32.0 ],
					"style" : "",
					"text" : "1 - Encodage dans le domaine des harmoniques circulaires",
					"textcolor" : [ 0.317518, 0.317518, 0.317518, 1.0 ]
				}

			}
, 			{
				"box" : 				{
					"angles" : [ 0.0, 22.500001, 45.000001, 67.5, 90.000003, 112.499998, 135.0, 157.499996, 180.000005, 202.500001, 224.999996, 247.499992, 270.000001, 292.50001, 314.999992, 337.500001 ],
					"channels" : 16.0,
					"color" : [ 1.0, 1.0, 1.0, 1.0 ],
					"id" : "obj-1",
					"maxclass" : "hoa.2d.meter~",
					"numinlets" : 16,
					"numoutlets" : 0,
					"patching_rect" : [ 564.650024, 503.525024, 221.949997, 221.949997 ]
				}

			}
, 			{
				"box" : 				{
					"fontname" : "Arial",
					"fontsize" : 12.0,
					"id" : "obj-43",
					"maxclass" : "newobj",
					"numinlets" : 1,
					"numoutlets" : 1,
					"outlettype" : [ "signal" ],
					"patching_rect" : [ 564.400024, 166.0, 43.0, 22.0 ],
					"style" : "",
					"text" : "sig~ 1"
				}

			}
, 			{
				"box" : 				{
					"color" : [ 1.0, 1.0, 1.0, 1.0 ],
					"id" : "obj-20",
					"maxclass" : "hoa.2d.scope~",
					"numinlets" : 15,
					"numoutlets" : 0,
					"order" : 7,
					"patching_rect" : [ 817.650024, 225.0, 221.949997, 221.949997 ]
				}

			}
, 			{
				"box" : 				{
					"fontname" : "Arial",
					"fontsize" : 11.595187,
					"id" : "obj-34",
					"maxclass" : "newobj",
					"numinlets" : 2,
					"numoutlets" : 15,
					"outlettype" : [ "signal", "signal", "signal", "signal", "signal", "signal", "signal", "signal", "signal", "signal", "signal", "signal", "signal", "signal", "signal" ],
					"patching_rect" : [ 564.400024, 218.0, 221.75, 21.0 ],
					"style" : "",
					"text" : "hoa.2d.encoder~ 7"
				}

			}
, 			{
				"box" : 				{
					"fontname" : "Arial",
					"fontsize" : 11.595187,
					"id" : "obj-12",
					"maxclass" : "newobj",
					"numinlets" : 15,
					"numoutlets" : 16,
					"outlettype" : [ "signal", "signal", "signal", "signal", "signal", "signal", "signal", "signal", "signal", "signal", "signal", "signal", "signal", "signal", "signal", "signal" ],
					"patching_rect" : [ 564.650024, 414.0, 221.5, 21.0 ],
					"style" : "",
					"text" : "hoa.2d.decoder~ 7"
				}

			}
, 			{
				"box" : 				{
					"angle" : 0.0,
					"bgcolor" : [ 0.0, 0.0, 0.0, 0.05 ],
					"bordercolor" : [ 0.235294, 0.235294, 0.235294, 0.2 ],
					"id" : "obj-11",
					"maxclass" : "panel",
					"mode" : 0,
					"numinlets" : 1,
					"numoutlets" : 0,
					"patching_rect" : [ 374.0, 408.0, 421.0, 32.0 ],
					"proportion" : 0.39,
					"rounded" : 0,
					"shadow" : -1,
					"style" : ""
				}

			}
, 			{
				"box" : 				{
					"angle" : 0.0,
					"bgcolor" : [ 0.0, 0.0, 0.0, 0.05 ],
					"bordercolor" : [ 0.235294, 0.235294, 0.235294, 0.2 ],
					"id" : "obj-4",
					"maxclass" : "panel",
					"mode" : 0,
					"numinlets" : 1,
					"numoutlets" : 0,
					"patching_rect" : [ 374.0, 211.5, 421.0, 33.5 ],
					"proportion" : 0.39,
					"rounded" : 0,
					"shadow" : -1,
					"style" : ""
				}

			}
, 			{
				"box" : 				{
					"angle" : 0.0,
					"bgcolor" : [ 0.0, 0.0, 0.0, 0.05 ],
					"bordercolor" : [ 0.235294, 0.235294, 0.235294, 0.2 ],
					"id" : "obj-26",
					"maxclass" : "panel",
					"mode" : 0,
					"numinlets" : 1,
					"numoutlets" : 0,
					"patching_rect" : [ 546.650024, 490.525024, 381.0, 246.0 ],
					"proportion" : 0.39,
					"rounded" : 0,
					"shadow" : -1,
					"style" : ""
				}

			}
, 			{
				"box" : 				{
					"angle" : 0.0,
					"bgcolor" : [ 0.0, 0.0, 0.0, 0.05 ],
					"bordercolor" : [ 0.235294, 0.235294, 0.235294, 0.2 ],
					"id" : "obj-29",
					"maxclass" : "panel",
					"mode" : 0,
					"numinlets" : 1,
					"numoutlets" : 0,
					"patching_rect" : [ 415.150024, 161.0, 223.850006, 32.0 ],
					"proportion" : 0.39,
					"rounded" : 0,
					"shadow" : -1,
					"style" : ""
				}

			}
, 			{
				"box" : 				{
					"angle" : 0.0,
					"bgcolor" : [ 0.0, 0.0, 0.0, 0.05 ],
					"bordercolor" : [ 0.235294, 0.235294, 0.235294, 0.2 ],
					"id" : "obj-24",
					"maxclass" : "panel",
					"mode" : 0,
					"numinlets" : 1,
					"numoutlets" : 0,
					"patching_rect" : [ 802.650024, 212.0, 343.350006, 247.0 ],
					"proportion" : 0.39,
					"rounded" : 0,
					"shadow" : -1,
					"style" : ""
				}

			}
, 			{
				"box" : 				{
					"angle" : 0.0,
					"bgcolor" : [ 0.0, 0.0, 0.0, 0.05 ],
					"bordercolor" : [ 0.235294, 0.235294, 0.235294, 0.2 ],
					"id" : "obj-32",
					"maxclass" : "panel",
					"mode" : 0,
					"numinlets" : 1,
					"numoutlets" : 0,
					"patching_rect" : [ 759.049988, 161.0, 194.850006, 32.0 ],
					"proportion" : 0.39,
					"rounded" : 0,
					"shadow" : -1,
					"style" : ""
				}

			}
, 			{
				"box" : 				{
					"angle" : 0.0,
					"bgcolor" : [ 1.0, 1.0, 1.0, 1.0 ],
					"border" : 1,
					"bordercolor" : [ 0.74902, 0.0, 0.0, 0.5 ],
					"id" : "obj-39",
					"maxclass" : "panel",
					"mode" : 0,
					"numinlets" : 1,
					"numoutlets" : 0,
					"patching_rect" : [ 21.0, 453.0, 329.0, 21.0 ],
					"proportion" : 0.39,
					"rounded" : 0,
					"style" : ""
				}

			}
, 			{
				"box" : 				{
					"angle" : 0.0,
					"bgcolor" : [ 0.94324, 0.954082, 0.954082, 1.0 ],
					"border" : 1,
					"bordercolor" : [ 0.75, 0.75, 0.75, 1.0 ],
					"id" : "obj-38",
					"maxclass" : "panel",
					"mode" : 0,
					"numinlets" : 1,
					"numoutlets" : 0,
					"patching_rect" : [ 21.0, 134.0, 329.0, 291.0 ],
					"proportion" : 0.39,
					"rounded" : 0,
					"style" : ""
				}

			}
, 			{
				"box" : 				{
					"angle" : 0.0,
					"bgcolor" : [ 0.94324, 0.954082, 0.954082, 1.0 ],
					"border" : 1,
					"bordercolor" : [ 0.75, 0.75, 0.75, 1.0 ],
					"id" : "obj-41",
					"maxclass" : "panel",
					"mode" : 0,
					"numinlets" : 1,
					"numoutlets" : 0,
					"patching_rect" : [ 21.0, 478.525024, 329.0, 253.0 ],
					"proportion" : 0.39,
					"rounded" : 0,
					"style" : ""
				}

			}
, 			{
				"box" : 				{
					"angle" : 0.0,
					"bgcolor" : [ 0.0, 0.0, 0.0, 0.05 ],
					"bordercolor" : [ 0.235294, 0.235294, 0.235294, 0.2 ],
					"id" : "obj-37",
					"maxclass" : "panel",
					"mode" : 0,
					"numinlets" : 1,
					"numoutlets" : 0,
					"patching_rect" : [ 1026.0, 685.0, 120.0, 51.0 ],
					"proportion" : 0.39,
					"rounded" : 6,
					"shadow" : -1,
					"style" : ""
				}

			}
 ],
		"lines" : [ 			{
				"patchline" : 				{
					"destination" : [ "obj-1", 15 ],
					"disabled" : 0,
					"hidden" : 0,
					"source" : [ "obj-12", 15 ]
				}

			}
, 			{
				"patchline" : 				{
					"destination" : [ "obj-1", 14 ],
					"disabled" : 0,
					"hidden" : 0,
					"source" : [ "obj-12", 14 ]
				}

			}
, 			{
				"patchline" : 				{
					"destination" : [ "obj-1", 13 ],
					"disabled" : 0,
					"hidden" : 0,
					"source" : [ "obj-12", 13 ]
				}

			}
, 			{
				"patchline" : 				{
					"destination" : [ "obj-1", 12 ],
					"disabled" : 0,
					"hidden" : 0,
					"source" : [ "obj-12", 12 ]
				}

			}
, 			{
				"patchline" : 				{
					"destination" : [ "obj-1", 11 ],
					"disabled" : 0,
					"hidden" : 0,
					"source" : [ "obj-12", 11 ]
				}

			}
, 			{
				"patchline" : 				{
					"destination" : [ "obj-1", 10 ],
					"disabled" : 0,
					"hidden" : 0,
					"source" : [ "obj-12", 10 ]
				}

			}
, 			{
				"patchline" : 				{
					"destination" : [ "obj-1", 9 ],
					"disabled" : 0,
					"hidden" : 0,
					"source" : [ "obj-12", 9 ]
				}

			}
, 			{
				"patchline" : 				{
					"destination" : [ "obj-1", 8 ],
					"disabled" : 0,
					"hidden" : 0,
					"source" : [ "obj-12", 8 ]
				}

			}
, 			{
				"patchline" : 				{
					"destination" : [ "obj-1", 7 ],
					"disabled" : 0,
					"hidden" : 0,
					"source" : [ "obj-12", 7 ]
				}

			}
, 			{
				"patchline" : 				{
					"destination" : [ "obj-1", 6 ],
					"disabled" : 0,
					"hidden" : 0,
					"source" : [ "obj-12", 6 ]
				}

			}
, 			{
				"patchline" : 				{
					"destination" : [ "obj-1", 5 ],
					"disabled" : 0,
					"hidden" : 0,
					"source" : [ "obj-12", 5 ]
				}

			}
, 			{
				"patchline" : 				{
					"destination" : [ "obj-1", 4 ],
					"disabled" : 0,
					"hidden" : 0,
					"source" : [ "obj-12", 4 ]
				}

			}
, 			{
				"patchline" : 				{
					"destination" : [ "obj-1", 3 ],
					"disabled" : 0,
					"hidden" : 0,
					"source" : [ "obj-12", 3 ]
				}

			}
, 			{
				"patchline" : 				{
					"destination" : [ "obj-1", 2 ],
					"disabled" : 0,
					"hidden" : 0,
					"source" : [ "obj-12", 2 ]
				}

			}
, 			{
				"patchline" : 				{
					"destination" : [ "obj-1", 1 ],
					"disabled" : 0,
					"hidden" : 0,
					"source" : [ "obj-12", 1 ]
				}

			}
, 			{
				"patchline" : 				{
					"destination" : [ "obj-1", 0 ],
					"disabled" : 0,
					"hidden" : 0,
					"source" : [ "obj-12", 0 ]
				}

			}
, 			{
				"patchline" : 				{
					"destination" : [ "obj-6", 1 ],
					"disabled" : 0,
					"hidden" : 1,
					"source" : [ "obj-3", 0 ]
				}

			}
, 			{
				"patchline" : 				{
					"color" : [ 1.0, 0.0, 0.0, 1.0 ],
					"destination" : [ "obj-12", 14 ],
					"disabled" : 0,
					"hidden" : 0,
					"source" : [ "obj-34", 14 ]
				}

			}
, 			{
				"patchline" : 				{
					"color" : [ 0.0, 0.0, 1.0, 1.0 ],
					"destination" : [ "obj-12", 13 ],
					"disabled" : 0,
					"hidden" : 0,
					"source" : [ "obj-34", 13 ]
				}

			}
, 			{
				"patchline" : 				{
					"color" : [ 1.0, 0.0, 0.0, 1.0 ],
					"destination" : [ "obj-12", 12 ],
					"disabled" : 0,
					"hidden" : 0,
					"source" : [ "obj-34", 12 ]
				}

			}
, 			{
				"patchline" : 				{
					"color" : [ 0.0, 0.0, 1.0, 1.0 ],
					"destination" : [ "obj-12", 11 ],
					"disabled" : 0,
					"hidden" : 0,
					"source" : [ "obj-34", 11 ]
				}

			}
, 			{
				"patchline" : 				{
					"color" : [ 1.0, 0.0, 0.0, 1.0 ],
					"destination" : [ "obj-12", 10 ],
					"disabled" : 0,
					"hidden" : 0,
					"source" : [ "obj-34", 10 ]
				}

			}
, 			{
				"patchline" : 				{
					"color" : [ 0.0, 0.0, 1.0, 1.0 ],
					"destination" : [ "obj-12", 9 ],
					"disabled" : 0,
					"hidden" : 0,
					"source" : [ "obj-34", 9 ]
				}

			}
, 			{
				"patchline" : 				{
					"color" : [ 1.0, 0.0, 0.0, 1.0 ],
					"destination" : [ "obj-12", 8 ],
					"disabled" : 0,
					"hidden" : 0,
					"source" : [ "obj-34", 8 ]
				}

			}
, 			{
				"patchline" : 				{
					"color" : [ 0.0, 0.0, 1.0, 1.0 ],
					"destination" : [ "obj-12", 7 ],
					"disabled" : 0,
					"hidden" : 0,
					"source" : [ "obj-34", 7 ]
				}

			}
, 			{
				"patchline" : 				{
					"color" : [ 1.0, 0.0, 0.0, 1.0 ],
					"destination" : [ "obj-12", 6 ],
					"disabled" : 0,
					"hidden" : 0,
					"source" : [ "obj-34", 6 ]
				}

			}
, 			{
				"patchline" : 				{
					"color" : [ 0.0, 0.0, 1.0, 1.0 ],
					"destination" : [ "obj-12", 5 ],
					"disabled" : 0,
					"hidden" : 0,
					"source" : [ "obj-34", 5 ]
				}

			}
, 			{
				"patchline" : 				{
					"color" : [ 1.0, 0.0, 0.0, 1.0 ],
					"destination" : [ "obj-12", 4 ],
					"disabled" : 0,
					"hidden" : 0,
					"source" : [ "obj-34", 4 ]
				}

			}
, 			{
				"patchline" : 				{
					"color" : [ 0.0, 0.0, 1.0, 1.0 ],
					"destination" : [ "obj-12", 3 ],
					"disabled" : 0,
					"hidden" : 0,
					"source" : [ "obj-34", 3 ]
				}

			}
, 			{
				"patchline" : 				{
					"color" : [ 1.0, 0.0, 0.0, 1.0 ],
					"destination" : [ "obj-12", 2 ],
					"disabled" : 0,
					"hidden" : 0,
					"source" : [ "obj-34", 2 ]
				}

			}
, 			{
				"patchline" : 				{
					"color" : [ 0.0, 0.0, 1.0, 1.0 ],
					"destination" : [ "obj-12", 1 ],
					"disabled" : 0,
					"hidden" : 0,
					"source" : [ "obj-34", 1 ]
				}

			}
, 			{
				"patchline" : 				{
					"color" : [ 0.2, 0.2, 0.2, 1.0 ],
					"destination" : [ "obj-12", 0 ],
					"disabled" : 0,
					"hidden" : 0,
					"source" : [ "obj-34", 0 ]
				}

			}
, 			{
				"patchline" : 				{
					"color" : [ 1.0, 0.0, 0.0, 1.0 ],
					"destination" : [ "obj-20", 14 ],
					"disabled" : 0,
					"hidden" : 1,
					"source" : [ "obj-34", 14 ]
				}

			}
, 			{
				"patchline" : 				{
					"color" : [ 0.0, 0.0, 1.0, 1.0 ],
					"destination" : [ "obj-20", 13 ],
					"disabled" : 0,
					"hidden" : 1,
					"source" : [ "obj-34", 13 ]
				}

			}
, 			{
				"patchline" : 				{
					"color" : [ 1.0, 0.0, 0.0, 1.0 ],
					"destination" : [ "obj-20", 12 ],
					"disabled" : 0,
					"hidden" : 1,
					"source" : [ "obj-34", 12 ]
				}

			}
, 			{
				"patchline" : 				{
					"color" : [ 0.0, 0.0, 1.0, 1.0 ],
					"destination" : [ "obj-20", 11 ],
					"disabled" : 0,
					"hidden" : 1,
					"source" : [ "obj-34", 11 ]
				}

			}
, 			{
				"patchline" : 				{
					"color" : [ 1.0, 0.0, 0.0, 1.0 ],
					"destination" : [ "obj-20", 10 ],
					"disabled" : 0,
					"hidden" : 1,
					"source" : [ "obj-34", 10 ]
				}

			}
, 			{
				"patchline" : 				{
					"color" : [ 0.0, 0.0, 1.0, 1.0 ],
					"destination" : [ "obj-20", 9 ],
					"disabled" : 0,
					"hidden" : 1,
					"source" : [ "obj-34", 9 ]
				}

			}
, 			{
				"patchline" : 				{
					"color" : [ 1.0, 0.0, 0.0, 1.0 ],
					"destination" : [ "obj-20", 8 ],
					"disabled" : 0,
					"hidden" : 1,
					"source" : [ "obj-34", 8 ]
				}

			}
, 			{
				"patchline" : 				{
					"color" : [ 0.0, 0.0, 1.0, 1.0 ],
					"destination" : [ "obj-20", 7 ],
					"disabled" : 0,
					"hidden" : 1,
					"source" : [ "obj-34", 7 ]
				}

			}
, 			{
				"patchline" : 				{
					"color" : [ 1.0, 0.0, 0.0, 1.0 ],
					"destination" : [ "obj-20", 6 ],
					"disabled" : 0,
					"hidden" : 1,
					"source" : [ "obj-34", 6 ]
				}

			}
, 			{
				"patchline" : 				{
					"color" : [ 0.0, 0.0, 1.0, 1.0 ],
					"destination" : [ "obj-20", 5 ],
					"disabled" : 0,
					"hidden" : 1,
					"source" : [ "obj-34", 5 ]
				}

			}
, 			{
				"patchline" : 				{
					"color" : [ 1.0, 0.0, 0.0, 1.0 ],
					"destination" : [ "obj-20", 4 ],
					"disabled" : 0,
					"hidden" : 1,
					"source" : [ "obj-34", 4 ]
				}

			}
, 			{
				"patchline" : 				{
					"color" : [ 0.0, 0.0, 1.0, 1.0 ],
					"destination" : [ "obj-20", 3 ],
					"disabled" : 0,
					"hidden" : 1,
					"source" : [ "obj-34", 3 ]
				}

			}
, 			{
				"patchline" : 				{
					"color" : [ 1.0, 0.0, 0.0, 1.0 ],
					"destination" : [ "obj-20", 2 ],
					"disabled" : 0,
					"hidden" : 1,
					"source" : [ "obj-34", 2 ]
				}

			}
, 			{
				"patchline" : 				{
					"color" : [ 0.0, 0.0, 1.0, 1.0 ],
					"destination" : [ "obj-20", 1 ],
					"disabled" : 0,
					"hidden" : 1,
					"source" : [ "obj-34", 1 ]
				}

			}
, 			{
				"patchline" : 				{
					"color" : [ 0.2, 0.2, 0.2, 1.0 ],
					"destination" : [ "obj-20", 0 ],
					"disabled" : 0,
					"hidden" : 1,
					"source" : [ "obj-34", 0 ]
				}

			}
, 			{
				"patchline" : 				{
					"destination" : [ "obj-34", 0 ],
					"disabled" : 0,
					"hidden" : 0,
					"source" : [ "obj-43", 0 ]
				}

			}
, 			{
				"patchline" : 				{
					"destination" : [ "obj-17", 0 ],
					"disabled" : 0,
					"hidden" : 1,
					"midpoints" : [ 1036.5, 546.0, 1036.5, 546.0 ],
					"source" : [ "obj-46", 0 ]
				}

			}
, 			{
				"patchline" : 				{
					"destination" : [ "obj-34", 1 ],
					"disabled" : 0,
					"hidden" : 0,
					"source" : [ "obj-6", 0 ]
				}

			}
, 			{
				"patchline" : 				{
					"destination" : [ "obj-7", 0 ],
					"disabled" : 0,
					"hidden" : 1,
					"source" : [ "obj-6", 0 ]
				}

			}
 ],
		"dependency_cache" : [ 			{
				"name" : "hoa.helpheader.maxpat",
				"bootpath" : "~/Documents/programmation/CICM/sourceTree/HoaLibrary-Max/Package/HoaLibrary/misc/others",
				"patcherrelativepath" : "../../../misc/others",
				"type" : "JSON",
				"implicit" : 1
			}
, 			{
				"name" : "hoa.2d.scope~.svg",
				"bootpath" : "~/Documents/programmation/CICM/sourceTree/HoaLibrary-Max/Package/HoaLibrary/misc/object-palettes",
				"patcherrelativepath" : "../../../misc/object-palettes",
				"type" : "svg ",
				"implicit" : 1
			}
, 			{
				"name" : "hoa.helpcredit.maxpat",
				"bootpath" : "~/Documents/programmation/CICM/sourceTree/HoaLibrary-Max/Package/HoaLibrary/misc/others",
				"patcherrelativepath" : "../../../misc/others",
				"type" : "JSON",
				"implicit" : 1
			}
, 			{
				"name" : "hoa.2d.decoder~.mxo",
				"type" : "iLaX"
			}
, 			{
				"name" : "hoa.2d.encoder~.mxo",
				"type" : "iLaX"
			}
, 			{
				"name" : "hoa.2d.scope~.mxo",
				"type" : "iLaX"
			}
, 			{
				"name" : "hoa.2d.meter~.mxo",
				"type" : "iLaX"
			}
, 			{
				"name" : "hoa.pi~.mxo",
				"type" : "iLaX"
			}
, 			{
				"name" : "hoa.connect.mxo",
				"type" : "iLaX"
			}
 ],
		"embedsnapshot" : 0,
		"styles" : [ 			{
				"name" : "newobjBlue-1",
				"default" : 				{
					"accentcolor" : [ 0.317647, 0.654902, 0.976471, 1.0 ]
				}
,
				"parentstyle" : "",
				"multi" : 0
			}
, 			{
				"name" : "newobjGreen-1",
				"default" : 				{
					"accentcolor" : [ 0.0, 0.533333, 0.168627, 1.0 ]
				}
,
				"parentstyle" : "",
				"multi" : 0
			}
, 			{
				"name" : "newobjYellow-1",
				"default" : 				{
					"accentcolor" : [ 0.82517, 0.78181, 0.059545, 1.0 ],
					"fontsize" : [ 12.059008 ]
				}
,
				"parentstyle" : "",
				"multi" : 0
			}
 ]
	}

}
