{
	"patcher" : 	{
		"fileversion" : 1,
		"appversion" : 		{
			"major" : 7,
			"minor" : 0,
			"revision" : 0,
			"architecture" : "x86",
			"modernui" : 1
		}
,
		"rect" : [ 402.0, 392.0, 573.0, 395.0 ],
		"bgcolor" : [ 0.93, 0.93, 0.92, 1.0 ],
		"bglocked" : 0,
		"openinpresentation" : 0,
		"default_fontsize" : 11.595187,
		"default_fontface" : 0,
		"default_fontname" : "Arial",
		"gridonopen" : 1,
		"gridsize" : [ 15.0, 15.0 ],
		"gridsnaponopen" : 1,
		"objectsnaponopen" : 1,
		"statusbarvisible" : 2,
		"toolbarvisible" : 1,
		"lefttoolbarpinned" : 0,
		"toptoolbarpinned" : 0,
		"righttoolbarpinned" : 0,
		"bottomtoolbarpinned" : 0,
		"toolbars_unpinned_last_save" : 0,
		"tallnewobj" : 0,
		"boxanimatetime" : 200,
		"enablehscroll" : 1,
		"enablevscroll" : 1,
		"devicewidth" : 0.0,
		"description" : "",
		"digest" : "",
		"tags" : "",
		"style" : "",
		"subpatcher_template" : "",
		"showrootpatcherontab" : 0,
		"showontab" : 0,
		"boxes" : [ 			{
				"box" : 				{
					"bgcolor" : [ 1.0, 1.0, 1.0, 1.0 ],
					"color" : [ 0.734694, 0.734694, 0.734694, 1.0 ],
					"fontname" : "Arial",
					"fontsize" : 12.0,
					"id" : "obj-1",
					"maxclass" : "newobj",
					"numinlets" : 0,
					"numoutlets" : 0,
					"patcher" : 					{
						"fileversion" : 1,
						"appversion" : 						{
							"major" : 7,
							"minor" : 0,
							"revision" : 0,
							"architecture" : "x86",
							"modernui" : 1
						}
,
						"rect" : [ 402.0, 418.0, 573.0, 369.0 ],
						"bgcolor" : [ 0.93, 0.93, 0.92, 1.0 ],
						"bglocked" : 0,
						"openinpresentation" : 0,
						"default_fontsize" : 11.595187,
						"default_fontface" : 0,
						"default_fontname" : "Arial",
						"gridonopen" : 1,
						"gridsize" : [ 15.0, 15.0 ],
						"gridsnaponopen" : 1,
						"objectsnaponopen" : 1,
						"statusbarvisible" : 2,
						"toolbarvisible" : 1,
						"lefttoolbarpinned" : 0,
						"toptoolbarpinned" : 0,
						"righttoolbarpinned" : 0,
						"bottomtoolbarpinned" : 0,
						"toolbars_unpinned_last_save" : 0,
						"tallnewobj" : 0,
						"boxanimatetime" : 200,
						"enablehscroll" : 1,
						"enablevscroll" : 1,
						"devicewidth" : 0.0,
						"description" : "",
						"digest" : "",
						"tags" : "",
						"style" : "",
						"subpatcher_template" : "",
						"showontab" : 1,
						"boxes" : [ 							{
								"box" : 								{
									"bgcolor" : [ 0.853045, 0.853045, 0.853045, 1.0 ],
									"color" : [ 0.92549, 0.364706, 0.341176, 1.0 ],
									"id" : "obj-65",
									"local" : 1,
									"maxclass" : "ezdac~",
									"numinlets" : 2,
									"numoutlets" : 0,
									"patching_rect" : [ 247.5, 261.0, 45.0, 45.0 ],
									"style" : ""
								}

							}
, 							{
								"box" : 								{
									"fontname" : "Arial",
									"fontsize" : 12.0,
									"id" : "obj-2",
									"maxclass" : "comment",
									"numinlets" : 1,
									"numoutlets" : 0,
									"patching_rect" : [ 7.0, 73.0, 526.0, 20.0 ],
									"style" : "",
									"text" : "hoa.3d.play~ creates an sfplay~ object with the best arguments to play an ambisonic soundfield.",
									"textcolor" : [ 0.30292, 0.30292, 0.30292, 1.0 ],
									"varname" : "autohelp_top_description[3]"
								}

							}
, 							{
								"box" : 								{
									"angle" : 0.0,
									"bgcolor" : [ 0.94324, 0.954082, 0.954082, 1.0 ],
									"border" : 1,
									"bordercolor" : [ 0.75, 0.75, 0.75, 1.0 ],
									"id" : "obj-3",
									"maxclass" : "panel",
									"mode" : 0,
									"numinlets" : 1,
									"numoutlets" : 0,
									"patching_rect" : [ 7.0, 73.0, 526.0, 20.0 ],
									"proportion" : 0.39,
									"rounded" : 0,
									"style" : ""
								}

							}
, 							{
								"box" : 								{
									"args" : [ "@size", 0 ],
									"bgmode" : 0,
									"border" : 0,
									"clickthrough" : 0,
									"enablehscroll" : 0,
									"enablevscroll" : 0,
									"id" : "obj-25",
									"lockeddragscroll" : 0,
									"maxclass" : "bpatcher",
									"name" : "hoa.helpcredit.maxpat",
									"numinlets" : 1,
									"numoutlets" : 0,
									"offset" : [ 0.0, 0.0 ],
									"patching_rect" : [ 10.0, 333.0, 548.0, 23.0 ],
									"viewvisibility" : 1
								}

							}
, 							{
								"box" : 								{
									"args" : [ "@obj-name", "hoa.3d.play~", "@obj-desc", "A", "custom", "sfplay~", "object", "for", "ambisonics." ],
									"bgmode" : 0,
									"border" : 0,
									"clickthrough" : 0,
									"enablehscroll" : 0,
									"enablevscroll" : 0,
									"id" : "obj-6",
									"lockeddragscroll" : 0,
									"maxclass" : "bpatcher",
									"name" : "hoa.helpheader.maxpat",
									"numinlets" : 1,
									"numoutlets" : 0,
									"offset" : [ 0.0, 0.0 ],
									"patching_rect" : [ 7.0, 7.0, 483.0, 56.0 ],
									"viewvisibility" : 1
								}

							}
, 							{
								"box" : 								{
									"fontname" : "Arial",
									"fontsize" : 7.180877,
									"hidden" : 1,
									"id" : "obj-8",
									"linecount" : 2,
									"maxclass" : "newobj",
									"numinlets" : 4,
									"numoutlets" : 0,
									"patching_rect" : [ 424.0, 23.5, 52.0, 25.0 ],
									"style" : "",
									"text" : "bgcolor 0.93 0.93 0.92 1."
								}

							}
, 							{
								"box" : 								{
									"bgfillcolor_angle" : 270.0,
									"bgfillcolor_autogradient" : 0.79,
									"bgfillcolor_color" : [ 0.290196, 0.309804, 0.301961, 1.0 ],
									"bgfillcolor_color1" : [ 1.0, 1.0, 1.0, 1.0 ],
									"bgfillcolor_color2" : [ 0.685, 0.685, 0.685, 1.0 ],
									"bgfillcolor_proportion" : 0.39,
									"bgfillcolor_type" : "gradient",
									"fontname" : "Arial",
									"fontsize" : 11.595187,
									"id" : "obj-14",
									"maxclass" : "message",
									"numinlets" : 2,
									"numoutlets" : 1,
									"outlettype" : [ "" ],
									"patching_rect" : [ 326.5, 183.0, 48.0, 21.0 ],
									"style" : "",
									"text" : "sfplay~",
									"textcolor" : [ 0.0, 0.0, 0.0, 1.0 ]
								}

							}
, 							{
								"box" : 								{
									"fontname" : "Arial",
									"fontsize" : 12.0,
									"hidden" : 1,
									"id" : "obj-101",
									"maxclass" : "newobj",
									"numinlets" : 1,
									"numoutlets" : 0,
									"patcher" : 									{
										"fileversion" : 1,
										"appversion" : 										{
											"major" : 7,
											"minor" : 0,
											"revision" : 0,
											"architecture" : "x86",
											"modernui" : 1
										}
,
										"rect" : [ 50.0, 94.0, 264.0, 148.0 ],
										"bglocked" : 0,
										"openinpresentation" : 0,
										"default_fontsize" : 12.0,
										"default_fontface" : 0,
										"default_fontname" : "Arial",
										"gridonopen" : 1,
										"gridsize" : [ 15.0, 15.0 ],
										"gridsnaponopen" : 1,
										"objectsnaponopen" : 1,
										"statusbarvisible" : 2,
										"toolbarvisible" : 1,
										"lefttoolbarpinned" : 0,
										"toptoolbarpinned" : 0,
										"righttoolbarpinned" : 0,
										"bottomtoolbarpinned" : 0,
										"toolbars_unpinned_last_save" : 0,
										"tallnewobj" : 0,
										"boxanimatetime" : 200,
										"enablehscroll" : 1,
										"enablevscroll" : 1,
										"devicewidth" : 0.0,
										"description" : "",
										"digest" : "",
										"tags" : "",
										"style" : "",
										"subpatcher_template" : "",
										"boxes" : [ 											{
												"box" : 												{
													"fontname" : "Arial",
													"fontsize" : 12.0,
													"id" : "obj-2",
													"maxclass" : "newobj",
													"numinlets" : 1,
													"numoutlets" : 1,
													"outlettype" : [ "" ],
													"patching_rect" : [ 99.0, 63.5, 83.0, 20.0 ],
													"style" : "",
													"text" : "prepend help",
													"varname" : "phelp"
												}

											}
, 											{
												"box" : 												{
													"fontname" : "Arial",
													"fontsize" : 12.0,
													"id" : "obj-3",
													"maxclass" : "newobj",
													"numinlets" : 1,
													"numoutlets" : 1,
													"outlettype" : [ "" ],
													"patching_rect" : [ 99.0, 90.5, 56.0, 20.0 ],
													"style" : "",
													"text" : "pcontrol"
												}

											}
, 											{
												"box" : 												{
													"comment" : "From umenu label out",
													"id" : "obj-4",
													"maxclass" : "inlet",
													"numinlets" : 0,
													"numoutlets" : 1,
													"outlettype" : [ "" ],
													"patching_rect" : [ 99.0, 36.0, 25.0, 25.0 ],
													"style" : ""
												}

											}
 ],
										"lines" : [ 											{
												"patchline" : 												{
													"destination" : [ "obj-3", 0 ],
													"disabled" : 0,
													"hidden" : 0,
													"source" : [ "obj-2", 0 ]
												}

											}
, 											{
												"patchline" : 												{
													"destination" : [ "obj-2", 0 ],
													"disabled" : 0,
													"hidden" : 0,
													"source" : [ "obj-4", 0 ]
												}

											}
 ]
									}
,
									"patching_rect" : [ 363.5, 209.0, 69.0, 22.0 ],
									"saved_object_attributes" : 									{
										"description" : "",
										"digest" : "",
										"globalpatchername" : "",
										"style" : "",
										"tags" : ""
									}
,
									"style" : "",
									"text" : "p see_also"
								}

							}
, 							{
								"box" : 								{
									"fontname" : "Arial",
									"fontsize" : 11.595187,
									"id" : "obj-36",
									"maxclass" : "message",
									"numinlets" : 2,
									"numoutlets" : 1,
									"outlettype" : [ "" ],
									"patching_rect" : [ 145.0, 114.0, 49.0, 21.0 ],
									"style" : "",
									"text" : "resume"
								}

							}
, 							{
								"box" : 								{
									"fontname" : "Arial",
									"fontsize" : 11.595187,
									"id" : "obj-37",
									"maxclass" : "message",
									"numinlets" : 2,
									"numoutlets" : 1,
									"outlettype" : [ "" ],
									"patching_rect" : [ 94.0, 114.0, 42.0, 21.0 ],
									"style" : "",
									"text" : "pause"
								}

							}
, 							{
								"box" : 								{
									"fontname" : "Arial",
									"fontsize" : 11.595187,
									"id" : "obj-10",
									"maxclass" : "message",
									"numinlets" : 2,
									"numoutlets" : 1,
									"outlettype" : [ "" ],
									"patching_rect" : [ 54.0, 114.0, 32.5, 21.0 ],
									"style" : "",
									"text" : "1"
								}

							}
, 							{
								"box" : 								{
									"fontname" : "Arial",
									"fontsize" : 11.595187,
									"id" : "obj-41",
									"maxclass" : "message",
									"numinlets" : 2,
									"numoutlets" : 1,
									"outlettype" : [ "" ],
									"patching_rect" : [ 10.0, 114.0, 36.0, 21.0 ],
									"style" : "",
									"text" : "open"
								}

							}
, 							{
								"box" : 								{
									"id" : "obj-7",
									"maxclass" : "button",
									"numinlets" : 1,
									"numoutlets" : 1,
									"outlettype" : [ "bang" ],
									"patching_rect" : [ 177.0625, 194.0, 20.0, 20.0 ],
									"style" : ""
								}

							}
, 							{
								"box" : 								{
									"fontname" : "Arial",
									"fontsize" : 11.595187,
									"id" : "obj-4",
									"maxclass" : "newobj",
									"numinlets" : 9,
									"numoutlets" : 12,
									"outlettype" : [ "signal", "signal", "signal", "signal", "signal", "signal", "signal", "signal", "signal", "signal", "signal", "signal" ],
									"patching_rect" : [ 10.0, 261.0, 167.5, 21.0 ],
									"style" : "",
									"text" : "hoa.3d.decoder~ 2 12"
								}

							}
, 							{
								"box" : 								{
									"fontname" : "Arial",
									"fontsize" : 11.595187,
									"id" : "obj-1",
									"maxclass" : "newobj",
									"numinlets" : 2,
									"numoutlets" : 10,
									"outlettype" : [ "signal", "signal", "signal", "signal", "signal", "signal", "signal", "signal", "signal", "bang" ],
									"patching_rect" : [ 10.0, 156.0, 186.0625, 21.0 ],
									"saved_object_attributes" : 									{
										"basictuning" : 440,
										"followglobaltempo" : 0,
										"formantcorrection" : 0,
										"mode" : "basic",
										"originallength" : [ 0.0, "ticks" ],
										"originaltempo" : 120.0,
										"pitchcorrection" : 0,
										"quality" : "basic",
										"timestretch" : [ 0 ]
									}
,
									"style" : "",
									"text" : "hoa.3d.play~ 2"
								}

							}
, 							{
								"box" : 								{
									"fontname" : "Arial",
									"fontsize" : 11.595187,
									"id" : "obj-12",
									"maxclass" : "newobj",
									"numinlets" : 12,
									"numoutlets" : 0,
									"patching_rect" : [ 10.0, 304.0, 167.5, 21.0 ],
									"style" : "",
									"text" : "hoa.dac~ 1:12"
								}

							}
, 							{
								"box" : 								{
									"fontname" : "Arial",
									"fontsize" : 11.595187,
									"hidden" : 1,
									"id" : "obj-15",
									"maxclass" : "newobj",
									"numinlets" : 1,
									"numoutlets" : 0,
									"patching_rect" : [ 266.0, 144.0, 74.0, 21.0 ],
									"saved_object_attributes" : 									{
										"nhcolor" : [ 0.0, 0.0, 1.0, 1.0 ],
										"phcolor" : [ 1.0, 0.0, 0.0, 1.0 ],
										"planecolor" : [ 1.0, 1.0, 1.0, 1.0 ],
										"zhcolor" : [ 0.2, 0.2, 0.2, 1.0 ]
									}
,
									"style" : "",
									"text" : "hoa.connect"
								}

							}
, 							{
								"box" : 								{
									"fontname" : "Arial",
									"fontsize" : 11.595187,
									"hidden" : 1,
									"id" : "obj-22",
									"maxclass" : "newobj",
									"numinlets" : 0,
									"numoutlets" : 1,
									"outlettype" : [ "bang" ],
									"patcher" : 									{
										"fileversion" : 1,
										"appversion" : 										{
											"major" : 7,
											"minor" : 0,
											"revision" : 0,
											"architecture" : "x86",
											"modernui" : 1
										}
,
										"rect" : [ 50.0, 94.0, 640.0, 480.0 ],
										"bglocked" : 0,
										"openinpresentation" : 0,
										"default_fontsize" : 12.0,
										"default_fontface" : 0,
										"default_fontname" : "Arial",
										"gridonopen" : 1,
										"gridsize" : [ 15.0, 15.0 ],
										"gridsnaponopen" : 1,
										"objectsnaponopen" : 1,
										"statusbarvisible" : 2,
										"toolbarvisible" : 1,
										"lefttoolbarpinned" : 0,
										"toptoolbarpinned" : 0,
										"righttoolbarpinned" : 0,
										"bottomtoolbarpinned" : 0,
										"toolbars_unpinned_last_save" : 0,
										"tallnewobj" : 0,
										"boxanimatetime" : 200,
										"enablehscroll" : 1,
										"enablevscroll" : 1,
										"devicewidth" : 0.0,
										"description" : "",
										"digest" : "",
										"tags" : "",
										"style" : "",
										"subpatcher_template" : "",
										"boxes" : [ 											{
												"box" : 												{
													"id" : "obj-10",
													"maxclass" : "button",
													"numinlets" : 1,
													"numoutlets" : 1,
													"outlettype" : [ "bang" ],
													"patching_rect" : [ 50.0, 160.0, 20.0, 20.0 ],
													"style" : ""
												}

											}
, 											{
												"box" : 												{
													"fontname" : "Arial",
													"fontsize" : 11.595187,
													"id" : "obj-23",
													"maxclass" : "newobj",
													"numinlets" : 2,
													"numoutlets" : 2,
													"outlettype" : [ "bang", "" ],
													"patching_rect" : [ 50.0, 130.0, 41.0, 19.0 ],
													"style" : "",
													"text" : "sel 32"
												}

											}
, 											{
												"box" : 												{
													"fontname" : "Arial",
													"fontsize" : 11.595187,
													"id" : "obj-17",
													"maxclass" : "newobj",
													"numinlets" : 0,
													"numoutlets" : 4,
													"outlettype" : [ "int", "int", "int", "int" ],
													"patching_rect" : [ 50.0, 100.0, 59.5, 19.0 ],
													"style" : "",
													"text" : "key"
												}

											}
, 											{
												"box" : 												{
													"comment" : "",
													"id" : "obj-21",
													"maxclass" : "outlet",
													"numinlets" : 1,
													"numoutlets" : 0,
													"patching_rect" : [ 50.0, 240.0, 25.0, 25.0 ],
													"style" : ""
												}

											}
 ],
										"lines" : [ 											{
												"patchline" : 												{
													"destination" : [ "obj-21", 0 ],
													"disabled" : 0,
													"hidden" : 0,
													"source" : [ "obj-10", 0 ]
												}

											}
, 											{
												"patchline" : 												{
													"destination" : [ "obj-23", 0 ],
													"disabled" : 0,
													"hidden" : 0,
													"source" : [ "obj-17", 0 ]
												}

											}
, 											{
												"patchline" : 												{
													"destination" : [ "obj-10", 0 ],
													"disabled" : 0,
													"hidden" : 0,
													"source" : [ "obj-23", 0 ]
												}

											}
 ],
										"styles" : [ 											{
												"name" : "AudioStatus_Menu",
												"default" : 												{
													"bgfillcolor" : 													{
														"type" : "color",
														"color" : [ 0.294118, 0.313726, 0.337255, 1 ],
														"color1" : [ 0.454902, 0.462745, 0.482353, 0.0 ],
														"color2" : [ 0.290196, 0.309804, 0.301961, 1.0 ],
														"angle" : 270.0,
														"proportion" : 0.39,
														"autogradient" : 0
													}

												}
,
												"parentstyle" : "",
												"multi" : 0
											}
 ]
									}
,
									"patching_rect" : [ 266.0, 114.0, 69.0, 21.0 ],
									"saved_object_attributes" : 									{
										"description" : "",
										"digest" : "",
										"globalpatchername" : "",
										"style" : "",
										"tags" : ""
									}
,
									"style" : "",
									"text" : "p spaceBar"
								}

							}
, 							{
								"box" : 								{
									"fontname" : "Arial",
									"fontsize" : 11.595187,
									"id" : "obj-17",
									"linecount" : 2,
									"maxclass" : "comment",
									"numinlets" : 1,
									"numoutlets" : 0,
									"patching_rect" : [ 301.5, 182.0, 166.0, 32.0 ],
									"style" : "",
									"text" : "see                 help for more information about this object"
								}

							}
, 							{
								"box" : 								{
									"angle" : 0.0,
									"bgcolor" : [ 0.94324, 0.954082, 0.954082, 1.0 ],
									"border" : 1,
									"bordercolor" : [ 0.75, 0.75, 0.75, 1.0 ],
									"id" : "obj-9",
									"maxclass" : "panel",
									"mode" : 0,
									"numinlets" : 1,
									"numoutlets" : 0,
									"patching_rect" : [ 301.5, 182.0, 166.0, 32.0 ],
									"proportion" : 0.39,
									"rounded" : 0,
									"style" : ""
								}

							}
 ],
						"lines" : [ 							{
								"patchline" : 								{
									"destination" : [ "obj-4", 8 ],
									"disabled" : 0,
									"hidden" : 0,
									"source" : [ "obj-1", 8 ]
								}

							}
, 							{
								"patchline" : 								{
									"destination" : [ "obj-4", 7 ],
									"disabled" : 0,
									"hidden" : 0,
									"source" : [ "obj-1", 7 ]
								}

							}
, 							{
								"patchline" : 								{
									"destination" : [ "obj-4", 6 ],
									"disabled" : 0,
									"hidden" : 0,
									"source" : [ "obj-1", 6 ]
								}

							}
, 							{
								"patchline" : 								{
									"destination" : [ "obj-4", 5 ],
									"disabled" : 0,
									"hidden" : 0,
									"source" : [ "obj-1", 5 ]
								}

							}
, 							{
								"patchline" : 								{
									"destination" : [ "obj-4", 4 ],
									"disabled" : 0,
									"hidden" : 0,
									"source" : [ "obj-1", 4 ]
								}

							}
, 							{
								"patchline" : 								{
									"destination" : [ "obj-4", 3 ],
									"disabled" : 0,
									"hidden" : 0,
									"source" : [ "obj-1", 3 ]
								}

							}
, 							{
								"patchline" : 								{
									"destination" : [ "obj-4", 2 ],
									"disabled" : 0,
									"hidden" : 0,
									"source" : [ "obj-1", 2 ]
								}

							}
, 							{
								"patchline" : 								{
									"destination" : [ "obj-4", 1 ],
									"disabled" : 0,
									"hidden" : 0,
									"source" : [ "obj-1", 1 ]
								}

							}
, 							{
								"patchline" : 								{
									"destination" : [ "obj-4", 0 ],
									"disabled" : 0,
									"hidden" : 0,
									"source" : [ "obj-1", 0 ]
								}

							}
, 							{
								"patchline" : 								{
									"destination" : [ "obj-7", 0 ],
									"disabled" : 0,
									"hidden" : 0,
									"source" : [ "obj-1", 9 ]
								}

							}
, 							{
								"patchline" : 								{
									"destination" : [ "obj-1", 0 ],
									"disabled" : 0,
									"hidden" : 0,
									"midpoints" : [ 63.5, 141.0, 19.5, 141.0 ],
									"source" : [ "obj-10", 0 ]
								}

							}
, 							{
								"patchline" : 								{
									"destination" : [ "obj-101", 0 ],
									"disabled" : 0,
									"hidden" : 1,
									"source" : [ "obj-14", 0 ]
								}

							}
, 							{
								"patchline" : 								{
									"destination" : [ "obj-15", 0 ],
									"disabled" : 0,
									"hidden" : 1,
									"midpoints" : [ 275.5, 135.0, 275.5, 135.0 ],
									"source" : [ "obj-22", 0 ]
								}

							}
, 							{
								"patchline" : 								{
									"destination" : [ "obj-1", 0 ],
									"disabled" : 0,
									"hidden" : 0,
									"midpoints" : [ 154.5, 141.0, 19.5, 141.0 ],
									"source" : [ "obj-36", 0 ]
								}

							}
, 							{
								"patchline" : 								{
									"destination" : [ "obj-1", 0 ],
									"disabled" : 0,
									"hidden" : 0,
									"midpoints" : [ 103.5, 141.0, 19.5, 141.0 ],
									"source" : [ "obj-37", 0 ]
								}

							}
, 							{
								"patchline" : 								{
									"destination" : [ "obj-12", 11 ],
									"disabled" : 0,
									"hidden" : 0,
									"source" : [ "obj-4", 11 ]
								}

							}
, 							{
								"patchline" : 								{
									"destination" : [ "obj-12", 10 ],
									"disabled" : 0,
									"hidden" : 0,
									"source" : [ "obj-4", 10 ]
								}

							}
, 							{
								"patchline" : 								{
									"destination" : [ "obj-12", 9 ],
									"disabled" : 0,
									"hidden" : 0,
									"source" : [ "obj-4", 9 ]
								}

							}
, 							{
								"patchline" : 								{
									"destination" : [ "obj-12", 8 ],
									"disabled" : 0,
									"hidden" : 0,
									"source" : [ "obj-4", 8 ]
								}

							}
, 							{
								"patchline" : 								{
									"destination" : [ "obj-12", 7 ],
									"disabled" : 0,
									"hidden" : 0,
									"source" : [ "obj-4", 7 ]
								}

							}
, 							{
								"patchline" : 								{
									"destination" : [ "obj-12", 6 ],
									"disabled" : 0,
									"hidden" : 0,
									"source" : [ "obj-4", 6 ]
								}

							}
, 							{
								"patchline" : 								{
									"destination" : [ "obj-12", 5 ],
									"disabled" : 0,
									"hidden" : 0,
									"source" : [ "obj-4", 5 ]
								}

							}
, 							{
								"patchline" : 								{
									"destination" : [ "obj-12", 4 ],
									"disabled" : 0,
									"hidden" : 0,
									"source" : [ "obj-4", 4 ]
								}

							}
, 							{
								"patchline" : 								{
									"destination" : [ "obj-12", 3 ],
									"disabled" : 0,
									"hidden" : 0,
									"source" : [ "obj-4", 3 ]
								}

							}
, 							{
								"patchline" : 								{
									"destination" : [ "obj-12", 2 ],
									"disabled" : 0,
									"hidden" : 0,
									"source" : [ "obj-4", 2 ]
								}

							}
, 							{
								"patchline" : 								{
									"destination" : [ "obj-12", 1 ],
									"disabled" : 0,
									"hidden" : 0,
									"source" : [ "obj-4", 1 ]
								}

							}
, 							{
								"patchline" : 								{
									"destination" : [ "obj-12", 0 ],
									"disabled" : 0,
									"hidden" : 0,
									"source" : [ "obj-4", 0 ]
								}

							}
, 							{
								"patchline" : 								{
									"destination" : [ "obj-1", 0 ],
									"disabled" : 0,
									"hidden" : 0,
									"source" : [ "obj-41", 0 ]
								}

							}
 ],
						"styles" : [ 							{
								"name" : "newobjBlue-1",
								"default" : 								{
									"accentcolor" : [ 0.317647, 0.654902, 0.976471, 1.0 ]
								}
,
								"parentstyle" : "",
								"multi" : 0
							}
, 							{
								"name" : "newobjGreen-1",
								"default" : 								{
									"accentcolor" : [ 0.0, 0.533333, 0.168627, 1.0 ]
								}
,
								"parentstyle" : "",
								"multi" : 0
							}
, 							{
								"name" : "newobjYellow-1",
								"default" : 								{
									"fontsize" : [ 12.059008 ],
									"accentcolor" : [ 0.82517, 0.78181, 0.059545, 1.0 ]
								}
,
								"parentstyle" : "",
								"multi" : 0
							}
 ]
					}
,
					"patching_rect" : [ 28.5, 47.0, 34.0, 20.0 ],
					"saved_object_attributes" : 					{
						"description" : "",
						"digest" : "",
						"fontsize" : 11.595187,
						"globalpatchername" : "",
						"style" : "",
						"tags" : ""
					}
,
					"style" : "",
					"text" : "p 3d",
					"textcolor" : [ 0.209184, 0.209184, 0.209184, 1.0 ]
				}

			}
, 			{
				"box" : 				{
					"bgcolor" : [ 1.0, 1.0, 1.0, 1.0 ],
					"color" : [ 0.734694, 0.734694, 0.734694, 1.0 ],
					"fontname" : "Arial",
					"fontsize" : 12.0,
					"id" : "obj-5",
					"maxclass" : "newobj",
					"numinlets" : 0,
					"numoutlets" : 0,
					"patcher" : 					{
						"fileversion" : 1,
						"appversion" : 						{
							"major" : 7,
							"minor" : 0,
							"revision" : 0,
							"architecture" : "x86",
							"modernui" : 1
						}
,
						"rect" : [ 0.0, 26.0, 573.0, 369.0 ],
						"bgcolor" : [ 0.93, 0.93, 0.92, 1.0 ],
						"bglocked" : 0,
						"openinpresentation" : 0,
						"default_fontsize" : 11.595187,
						"default_fontface" : 0,
						"default_fontname" : "Arial",
						"gridonopen" : 1,
						"gridsize" : [ 15.0, 15.0 ],
						"gridsnaponopen" : 1,
						"objectsnaponopen" : 1,
						"statusbarvisible" : 2,
						"toolbarvisible" : 1,
						"lefttoolbarpinned" : 0,
						"toptoolbarpinned" : 0,
						"righttoolbarpinned" : 0,
						"bottomtoolbarpinned" : 0,
						"toolbars_unpinned_last_save" : 0,
						"tallnewobj" : 0,
						"boxanimatetime" : 200,
						"enablehscroll" : 1,
						"enablevscroll" : 1,
						"devicewidth" : 0.0,
						"description" : "",
						"digest" : "",
						"tags" : "",
						"style" : "",
						"subpatcher_template" : "",
						"showontab" : 1,
						"boxes" : [ 							{
								"box" : 								{
									"bgcolor" : [ 0.853045, 0.853045, 0.853045, 1.0 ],
									"color" : [ 0.92549, 0.364706, 0.341176, 1.0 ],
									"id" : "obj-5",
									"local" : 1,
									"maxclass" : "ezdac~",
									"numinlets" : 2,
									"numoutlets" : 0,
									"patching_rect" : [ 255.5, 278.0, 45.0, 45.0 ],
									"style" : ""
								}

							}
, 							{
								"box" : 								{
									"fontname" : "Arial",
									"fontsize" : 12.0,
									"id" : "obj-2",
									"maxclass" : "comment",
									"numinlets" : 1,
									"numoutlets" : 0,
									"patching_rect" : [ 7.0, 73.0, 526.0, 20.0 ],
									"style" : "",
									"text" : "hoa.2d.play~ creates an sfplay~ object with the best arguments to play an ambisonic soundfield.",
									"textcolor" : [ 0.30292, 0.30292, 0.30292, 1.0 ],
									"varname" : "autohelp_top_description[3]"
								}

							}
, 							{
								"box" : 								{
									"angle" : 0.0,
									"bgcolor" : [ 0.94324, 0.954082, 0.954082, 1.0 ],
									"border" : 1,
									"bordercolor" : [ 0.75, 0.75, 0.75, 1.0 ],
									"id" : "obj-3",
									"maxclass" : "panel",
									"mode" : 0,
									"numinlets" : 1,
									"numoutlets" : 0,
									"patching_rect" : [ 7.0, 73.0, 526.0, 20.0 ],
									"proportion" : 0.39,
									"rounded" : 0,
									"style" : ""
								}

							}
, 							{
								"box" : 								{
									"args" : [ "@size", 0 ],
									"bgmode" : 0,
									"border" : 0,
									"clickthrough" : 0,
									"enablehscroll" : 0,
									"enablevscroll" : 0,
									"id" : "obj-25",
									"lockeddragscroll" : 0,
									"maxclass" : "bpatcher",
									"name" : "hoa.helpcredit.maxpat",
									"numinlets" : 1,
									"numoutlets" : 0,
									"offset" : [ 0.0, 0.0 ],
									"patching_rect" : [ 10.0, 333.0, 548.0, 23.0 ],
									"viewvisibility" : 1
								}

							}
, 							{
								"box" : 								{
									"args" : [ "@obj-name", "hoa.2d.play~", "@obj-desc", "A", "custom", "sfplay~", "object", "for", "ambisonics." ],
									"bgmode" : 0,
									"border" : 0,
									"clickthrough" : 0,
									"enablehscroll" : 0,
									"enablevscroll" : 0,
									"id" : "obj-6",
									"lockeddragscroll" : 0,
									"maxclass" : "bpatcher",
									"name" : "hoa.helpheader.maxpat",
									"numinlets" : 1,
									"numoutlets" : 0,
									"offset" : [ 0.0, 0.0 ],
									"patching_rect" : [ 7.0, 7.0, 483.0, 56.0 ],
									"viewvisibility" : 1
								}

							}
, 							{
								"box" : 								{
									"fontname" : "Arial",
									"fontsize" : 7.180877,
									"hidden" : 1,
									"id" : "obj-8",
									"linecount" : 2,
									"maxclass" : "newobj",
									"numinlets" : 4,
									"numoutlets" : 0,
									"patching_rect" : [ 424.0, 23.5, 52.0, 25.0 ],
									"style" : "",
									"text" : "bgcolor 0.93 0.93 0.92 1."
								}

							}
, 							{
								"box" : 								{
									"bgfillcolor_angle" : 270.0,
									"bgfillcolor_autogradient" : 0.79,
									"bgfillcolor_color" : [ 0.290196, 0.309804, 0.301961, 1.0 ],
									"bgfillcolor_color1" : [ 1.0, 1.0, 1.0, 1.0 ],
									"bgfillcolor_color2" : [ 0.685, 0.685, 0.685, 1.0 ],
									"bgfillcolor_proportion" : 0.39,
									"bgfillcolor_type" : "gradient",
									"fontname" : "Arial",
									"fontsize" : 11.595187,
									"id" : "obj-14",
									"maxclass" : "message",
									"numinlets" : 2,
									"numoutlets" : 1,
									"outlettype" : [ "" ],
									"patching_rect" : [ 326.5, 183.0, 48.0, 21.0 ],
									"style" : "",
									"text" : "sfplay~",
									"textcolor" : [ 0.0, 0.0, 0.0, 1.0 ]
								}

							}
, 							{
								"box" : 								{
									"fontname" : "Arial",
									"fontsize" : 12.0,
									"hidden" : 1,
									"id" : "obj-101",
									"maxclass" : "newobj",
									"numinlets" : 1,
									"numoutlets" : 0,
									"patcher" : 									{
										"fileversion" : 1,
										"appversion" : 										{
											"major" : 7,
											"minor" : 0,
											"revision" : 0,
											"architecture" : "x86",
											"modernui" : 1
										}
,
										"rect" : [ 50.0, 94.0, 264.0, 148.0 ],
										"bglocked" : 0,
										"openinpresentation" : 0,
										"default_fontsize" : 12.0,
										"default_fontface" : 0,
										"default_fontname" : "Arial",
										"gridonopen" : 1,
										"gridsize" : [ 15.0, 15.0 ],
										"gridsnaponopen" : 1,
										"objectsnaponopen" : 1,
										"statusbarvisible" : 2,
										"toolbarvisible" : 1,
										"lefttoolbarpinned" : 0,
										"toptoolbarpinned" : 0,
										"righttoolbarpinned" : 0,
										"bottomtoolbarpinned" : 0,
										"toolbars_unpinned_last_save" : 0,
										"tallnewobj" : 0,
										"boxanimatetime" : 200,
										"enablehscroll" : 1,
										"enablevscroll" : 1,
										"devicewidth" : 0.0,
										"description" : "",
										"digest" : "",
										"tags" : "",
										"style" : "",
										"subpatcher_template" : "",
										"boxes" : [ 											{
												"box" : 												{
													"fontname" : "Arial",
													"fontsize" : 12.0,
													"id" : "obj-2",
													"maxclass" : "newobj",
													"numinlets" : 1,
													"numoutlets" : 1,
													"outlettype" : [ "" ],
													"patching_rect" : [ 99.0, 63.5, 83.0, 20.0 ],
													"style" : "",
													"text" : "prepend help",
													"varname" : "phelp"
												}

											}
, 											{
												"box" : 												{
													"fontname" : "Arial",
													"fontsize" : 12.0,
													"id" : "obj-3",
													"maxclass" : "newobj",
													"numinlets" : 1,
													"numoutlets" : 1,
													"outlettype" : [ "" ],
													"patching_rect" : [ 99.0, 90.5, 56.0, 20.0 ],
													"style" : "",
													"text" : "pcontrol"
												}

											}
, 											{
												"box" : 												{
													"comment" : "From umenu label out",
													"id" : "obj-4",
													"maxclass" : "inlet",
													"numinlets" : 0,
													"numoutlets" : 1,
													"outlettype" : [ "" ],
													"patching_rect" : [ 99.0, 36.0, 25.0, 25.0 ],
													"style" : ""
												}

											}
 ],
										"lines" : [ 											{
												"patchline" : 												{
													"destination" : [ "obj-3", 0 ],
													"disabled" : 0,
													"hidden" : 0,
													"source" : [ "obj-2", 0 ]
												}

											}
, 											{
												"patchline" : 												{
													"destination" : [ "obj-2", 0 ],
													"disabled" : 0,
													"hidden" : 0,
													"source" : [ "obj-4", 0 ]
												}

											}
 ]
									}
,
									"patching_rect" : [ 363.5, 209.0, 69.0, 22.0 ],
									"saved_object_attributes" : 									{
										"description" : "",
										"digest" : "",
										"globalpatchername" : "",
										"style" : "",
										"tags" : ""
									}
,
									"style" : "",
									"text" : "p see_also"
								}

							}
, 							{
								"box" : 								{
									"fontname" : "Arial",
									"fontsize" : 11.595187,
									"id" : "obj-36",
									"maxclass" : "message",
									"numinlets" : 2,
									"numoutlets" : 1,
									"outlettype" : [ "" ],
									"patching_rect" : [ 145.0, 114.0, 49.0, 21.0 ],
									"style" : "",
									"text" : "resume"
								}

							}
, 							{
								"box" : 								{
									"fontname" : "Arial",
									"fontsize" : 11.595187,
									"id" : "obj-37",
									"maxclass" : "message",
									"numinlets" : 2,
									"numoutlets" : 1,
									"outlettype" : [ "" ],
									"patching_rect" : [ 94.0, 114.0, 42.0, 21.0 ],
									"style" : "",
									"text" : "pause"
								}

							}
, 							{
								"box" : 								{
									"fontname" : "Arial",
									"fontsize" : 11.595187,
									"id" : "obj-10",
									"maxclass" : "message",
									"numinlets" : 2,
									"numoutlets" : 1,
									"outlettype" : [ "" ],
									"patching_rect" : [ 54.0, 114.0, 32.5, 21.0 ],
									"style" : "",
									"text" : "1"
								}

							}
, 							{
								"box" : 								{
									"fontname" : "Arial",
									"fontsize" : 11.595187,
									"id" : "obj-41",
									"maxclass" : "message",
									"numinlets" : 2,
									"numoutlets" : 1,
									"outlettype" : [ "" ],
									"patching_rect" : [ 10.0, 114.0, 36.0, 21.0 ],
									"style" : "",
									"text" : "open"
								}

							}
, 							{
								"box" : 								{
									"id" : "obj-7",
									"maxclass" : "button",
									"numinlets" : 1,
									"numoutlets" : 1,
									"outlettype" : [ "bang" ],
									"patching_rect" : [ 226.5, 194.0, 20.0, 20.0 ],
									"style" : ""
								}

							}
, 							{
								"box" : 								{
									"fontname" : "Arial",
									"fontsize" : 11.595187,
									"id" : "obj-4",
									"maxclass" : "newobj",
									"numinlets" : 15,
									"numoutlets" : 16,
									"outlettype" : [ "signal", "signal", "signal", "signal", "signal", "signal", "signal", "signal", "signal", "signal", "signal", "signal", "signal", "signal", "signal", "signal" ],
									"patching_rect" : [ 10.0, 261.0, 221.5, 21.0 ],
									"style" : "",
									"text" : "hoa.2d.decoder~ 7 16"
								}

							}
, 							{
								"box" : 								{
									"fontname" : "Arial",
									"fontsize" : 11.595187,
									"id" : "obj-1",
									"maxclass" : "newobj",
									"numinlets" : 2,
									"numoutlets" : 16,
									"outlettype" : [ "signal", "signal", "signal", "signal", "signal", "signal", "signal", "signal", "signal", "signal", "signal", "signal", "signal", "signal", "signal", "bang" ],
									"patching_rect" : [ 10.0, 156.0, 235.5, 21.0 ],
									"saved_object_attributes" : 									{
										"basictuning" : 440,
										"followglobaltempo" : 0,
										"formantcorrection" : 0,
										"mode" : "basic",
										"originallength" : [ 0.0, "ticks" ],
										"originaltempo" : 120.0,
										"pitchcorrection" : 0,
										"quality" : "basic",
										"timestretch" : [ 0 ]
									}
,
									"style" : "",
									"text" : "hoa.2d.play~ 7"
								}

							}
, 							{
								"box" : 								{
									"fontname" : "Arial",
									"fontsize" : 11.595187,
									"id" : "obj-12",
									"maxclass" : "newobj",
									"numinlets" : 16,
									"numoutlets" : 0,
									"patching_rect" : [ 10.0, 304.0, 221.5, 21.0 ],
									"style" : "",
									"text" : "hoa.dac~ 1:16"
								}

							}
, 							{
								"box" : 								{
									"fontname" : "Arial",
									"fontsize" : 11.595187,
									"hidden" : 1,
									"id" : "obj-15",
									"maxclass" : "newobj",
									"numinlets" : 1,
									"numoutlets" : 0,
									"patching_rect" : [ 266.0, 144.0, 74.0, 21.0 ],
									"saved_object_attributes" : 									{
										"nhcolor" : [ 0.0, 0.0, 1.0, 1.0 ],
										"phcolor" : [ 1.0, 0.0, 0.0, 1.0 ],
										"planecolor" : [ 1.0, 1.0, 1.0, 1.0 ],
										"zhcolor" : [ 0.2, 0.2, 0.2, 1.0 ]
									}
,
									"style" : "",
									"text" : "hoa.connect"
								}

							}
, 							{
								"box" : 								{
									"fontname" : "Arial",
									"fontsize" : 11.595187,
									"hidden" : 1,
									"id" : "obj-22",
									"maxclass" : "newobj",
									"numinlets" : 0,
									"numoutlets" : 1,
									"outlettype" : [ "bang" ],
									"patcher" : 									{
										"fileversion" : 1,
										"appversion" : 										{
											"major" : 7,
											"minor" : 0,
											"revision" : 0,
											"architecture" : "x86",
											"modernui" : 1
										}
,
										"rect" : [ 50.0, 94.0, 640.0, 480.0 ],
										"bglocked" : 0,
										"openinpresentation" : 0,
										"default_fontsize" : 12.0,
										"default_fontface" : 0,
										"default_fontname" : "Arial",
										"gridonopen" : 1,
										"gridsize" : [ 15.0, 15.0 ],
										"gridsnaponopen" : 1,
										"objectsnaponopen" : 1,
										"statusbarvisible" : 2,
										"toolbarvisible" : 1,
										"lefttoolbarpinned" : 0,
										"toptoolbarpinned" : 0,
										"righttoolbarpinned" : 0,
										"bottomtoolbarpinned" : 0,
										"toolbars_unpinned_last_save" : 0,
										"tallnewobj" : 0,
										"boxanimatetime" : 200,
										"enablehscroll" : 1,
										"enablevscroll" : 1,
										"devicewidth" : 0.0,
										"description" : "",
										"digest" : "",
										"tags" : "",
										"style" : "",
										"subpatcher_template" : "",
										"boxes" : [ 											{
												"box" : 												{
													"id" : "obj-10",
													"maxclass" : "button",
													"numinlets" : 1,
													"numoutlets" : 1,
													"outlettype" : [ "bang" ],
													"patching_rect" : [ 50.0, 160.0, 20.0, 20.0 ],
													"style" : ""
												}

											}
, 											{
												"box" : 												{
													"fontname" : "Arial",
													"fontsize" : 11.595187,
													"id" : "obj-23",
													"maxclass" : "newobj",
													"numinlets" : 2,
													"numoutlets" : 2,
													"outlettype" : [ "bang", "" ],
													"patching_rect" : [ 50.0, 130.0, 41.0, 19.0 ],
													"style" : "",
													"text" : "sel 32"
												}

											}
, 											{
												"box" : 												{
													"fontname" : "Arial",
													"fontsize" : 11.595187,
													"id" : "obj-17",
													"maxclass" : "newobj",
													"numinlets" : 0,
													"numoutlets" : 4,
													"outlettype" : [ "int", "int", "int", "int" ],
													"patching_rect" : [ 50.0, 100.0, 59.5, 19.0 ],
													"style" : "",
													"text" : "key"
												}

											}
, 											{
												"box" : 												{
													"comment" : "",
													"id" : "obj-21",
													"maxclass" : "outlet",
													"numinlets" : 1,
													"numoutlets" : 0,
													"patching_rect" : [ 50.0, 240.0, 25.0, 25.0 ],
													"style" : ""
												}

											}
 ],
										"lines" : [ 											{
												"patchline" : 												{
													"destination" : [ "obj-21", 0 ],
													"disabled" : 0,
													"hidden" : 0,
													"source" : [ "obj-10", 0 ]
												}

											}
, 											{
												"patchline" : 												{
													"destination" : [ "obj-23", 0 ],
													"disabled" : 0,
													"hidden" : 0,
													"source" : [ "obj-17", 0 ]
												}

											}
, 											{
												"patchline" : 												{
													"destination" : [ "obj-10", 0 ],
													"disabled" : 0,
													"hidden" : 0,
													"source" : [ "obj-23", 0 ]
												}

											}
 ],
										"styles" : [ 											{
												"name" : "newobjBlue-1",
												"default" : 												{
													"accentcolor" : [ 0.317647, 0.654902, 0.976471, 1.0 ]
												}
,
												"parentstyle" : "",
												"multi" : 0
											}
, 											{
												"name" : "newobjBlue-2",
												"default" : 												{
													"accentcolor" : [ 0.317647, 0.654902, 0.976471, 1.0 ]
												}
,
												"parentstyle" : "",
												"multi" : 0
											}
, 											{
												"name" : "newobjGreen-1",
												"default" : 												{
													"accentcolor" : [ 0.0, 0.533333, 0.168627, 1.0 ]
												}
,
												"parentstyle" : "",
												"multi" : 0
											}
, 											{
												"name" : "newobjGreen-2",
												"default" : 												{
													"accentcolor" : [ 0.0, 0.533333, 0.168627, 1.0 ]
												}
,
												"parentstyle" : "",
												"multi" : 0
											}
, 											{
												"name" : "newobjYellow-1",
												"default" : 												{
													"fontsize" : [ 12.059008 ],
													"accentcolor" : [ 0.82517, 0.78181, 0.059545, 1.0 ]
												}
,
												"parentstyle" : "",
												"multi" : 0
											}
, 											{
												"name" : "newobjYellow-2",
												"default" : 												{
													"fontsize" : [ 12.059008 ],
													"accentcolor" : [ 0.82517, 0.78181, 0.059545, 1.0 ]
												}
,
												"parentstyle" : "",
												"multi" : 0
											}
 ]
									}
,
									"patching_rect" : [ 266.0, 114.0, 69.0, 21.0 ],
									"saved_object_attributes" : 									{
										"description" : "",
										"digest" : "",
										"globalpatchername" : "",
										"style" : "",
										"tags" : ""
									}
,
									"style" : "",
									"text" : "p spaceBar"
								}

							}
, 							{
								"box" : 								{
									"fontname" : "Arial",
									"fontsize" : 11.595187,
									"id" : "obj-17",
									"linecount" : 2,
									"maxclass" : "comment",
									"numinlets" : 1,
									"numoutlets" : 0,
									"patching_rect" : [ 301.5, 182.0, 166.0, 32.0 ],
									"style" : "",
									"text" : "see                 help for more information about this object"
								}

							}
, 							{
								"box" : 								{
									"angle" : 0.0,
									"bgcolor" : [ 0.94324, 0.954082, 0.954082, 1.0 ],
									"border" : 1,
									"bordercolor" : [ 0.75, 0.75, 0.75, 1.0 ],
									"id" : "obj-9",
									"maxclass" : "panel",
									"mode" : 0,
									"numinlets" : 1,
									"numoutlets" : 0,
									"patching_rect" : [ 301.5, 182.0, 166.0, 32.0 ],
									"proportion" : 0.39,
									"rounded" : 0,
									"style" : ""
								}

							}
 ],
						"lines" : [ 							{
								"patchline" : 								{
									"color" : [ 1.0, 0.0, 0.0, 1.0 ],
									"destination" : [ "obj-4", 14 ],
									"disabled" : 0,
									"hidden" : 0,
									"source" : [ "obj-1", 14 ]
								}

							}
, 							{
								"patchline" : 								{
									"color" : [ 0.0, 0.0, 1.0, 1.0 ],
									"destination" : [ "obj-4", 13 ],
									"disabled" : 0,
									"hidden" : 0,
									"source" : [ "obj-1", 13 ]
								}

							}
, 							{
								"patchline" : 								{
									"color" : [ 1.0, 0.0, 0.0, 1.0 ],
									"destination" : [ "obj-4", 12 ],
									"disabled" : 0,
									"hidden" : 0,
									"source" : [ "obj-1", 12 ]
								}

							}
, 							{
								"patchline" : 								{
									"color" : [ 0.0, 0.0, 1.0, 1.0 ],
									"destination" : [ "obj-4", 11 ],
									"disabled" : 0,
									"hidden" : 0,
									"source" : [ "obj-1", 11 ]
								}

							}
, 							{
								"patchline" : 								{
									"color" : [ 1.0, 0.0, 0.0, 1.0 ],
									"destination" : [ "obj-4", 10 ],
									"disabled" : 0,
									"hidden" : 0,
									"source" : [ "obj-1", 10 ]
								}

							}
, 							{
								"patchline" : 								{
									"color" : [ 0.0, 0.0, 1.0, 1.0 ],
									"destination" : [ "obj-4", 9 ],
									"disabled" : 0,
									"hidden" : 0,
									"source" : [ "obj-1", 9 ]
								}

							}
, 							{
								"patchline" : 								{
									"color" : [ 1.0, 0.0, 0.0, 1.0 ],
									"destination" : [ "obj-4", 8 ],
									"disabled" : 0,
									"hidden" : 0,
									"source" : [ "obj-1", 8 ]
								}

							}
, 							{
								"patchline" : 								{
									"color" : [ 0.0, 0.0, 1.0, 1.0 ],
									"destination" : [ "obj-4", 7 ],
									"disabled" : 0,
									"hidden" : 0,
									"source" : [ "obj-1", 7 ]
								}

							}
, 							{
								"patchline" : 								{
									"color" : [ 1.0, 0.0, 0.0, 1.0 ],
									"destination" : [ "obj-4", 6 ],
									"disabled" : 0,
									"hidden" : 0,
									"source" : [ "obj-1", 6 ]
								}

							}
, 							{
								"patchline" : 								{
									"color" : [ 0.0, 0.0, 1.0, 1.0 ],
									"destination" : [ "obj-4", 5 ],
									"disabled" : 0,
									"hidden" : 0,
									"source" : [ "obj-1", 5 ]
								}

							}
, 							{
								"patchline" : 								{
									"color" : [ 1.0, 0.0, 0.0, 1.0 ],
									"destination" : [ "obj-4", 4 ],
									"disabled" : 0,
									"hidden" : 0,
									"source" : [ "obj-1", 4 ]
								}

							}
, 							{
								"patchline" : 								{
									"color" : [ 0.0, 0.0, 1.0, 1.0 ],
									"destination" : [ "obj-4", 3 ],
									"disabled" : 0,
									"hidden" : 0,
									"source" : [ "obj-1", 3 ]
								}

							}
, 							{
								"patchline" : 								{
									"color" : [ 1.0, 0.0, 0.0, 1.0 ],
									"destination" : [ "obj-4", 2 ],
									"disabled" : 0,
									"hidden" : 0,
									"source" : [ "obj-1", 2 ]
								}

							}
, 							{
								"patchline" : 								{
									"color" : [ 0.0, 0.0, 1.0, 1.0 ],
									"destination" : [ "obj-4", 1 ],
									"disabled" : 0,
									"hidden" : 0,
									"source" : [ "obj-1", 1 ]
								}

							}
, 							{
								"patchline" : 								{
									"color" : [ 1.0, 0.0, 0.0, 1.0 ],
									"destination" : [ "obj-4", 0 ],
									"disabled" : 0,
									"hidden" : 0,
									"source" : [ "obj-1", 0 ]
								}

							}
, 							{
								"patchline" : 								{
									"destination" : [ "obj-7", 0 ],
									"disabled" : 0,
									"hidden" : 0,
									"source" : [ "obj-1", 15 ]
								}

							}
, 							{
								"patchline" : 								{
									"destination" : [ "obj-1", 0 ],
									"disabled" : 0,
									"hidden" : 0,
									"midpoints" : [ 63.5, 141.0, 19.5, 141.0 ],
									"source" : [ "obj-10", 0 ]
								}

							}
, 							{
								"patchline" : 								{
									"destination" : [ "obj-101", 0 ],
									"disabled" : 0,
									"hidden" : 1,
									"source" : [ "obj-14", 0 ]
								}

							}
, 							{
								"patchline" : 								{
									"destination" : [ "obj-15", 0 ],
									"disabled" : 0,
									"hidden" : 1,
									"midpoints" : [ 275.5, 135.0, 275.5, 135.0 ],
									"source" : [ "obj-22", 0 ]
								}

							}
, 							{
								"patchline" : 								{
									"destination" : [ "obj-1", 0 ],
									"disabled" : 0,
									"hidden" : 0,
									"midpoints" : [ 154.5, 141.0, 19.5, 141.0 ],
									"source" : [ "obj-36", 0 ]
								}

							}
, 							{
								"patchline" : 								{
									"destination" : [ "obj-1", 0 ],
									"disabled" : 0,
									"hidden" : 0,
									"midpoints" : [ 103.5, 141.0, 19.5, 141.0 ],
									"source" : [ "obj-37", 0 ]
								}

							}
, 							{
								"patchline" : 								{
									"destination" : [ "obj-12", 15 ],
									"disabled" : 0,
									"hidden" : 0,
									"source" : [ "obj-4", 15 ]
								}

							}
, 							{
								"patchline" : 								{
									"destination" : [ "obj-12", 14 ],
									"disabled" : 0,
									"hidden" : 0,
									"source" : [ "obj-4", 14 ]
								}

							}
, 							{
								"patchline" : 								{
									"destination" : [ "obj-12", 13 ],
									"disabled" : 0,
									"hidden" : 0,
									"source" : [ "obj-4", 13 ]
								}

							}
, 							{
								"patchline" : 								{
									"destination" : [ "obj-12", 12 ],
									"disabled" : 0,
									"hidden" : 0,
									"source" : [ "obj-4", 12 ]
								}

							}
, 							{
								"patchline" : 								{
									"destination" : [ "obj-12", 11 ],
									"disabled" : 0,
									"hidden" : 0,
									"source" : [ "obj-4", 11 ]
								}

							}
, 							{
								"patchline" : 								{
									"destination" : [ "obj-12", 10 ],
									"disabled" : 0,
									"hidden" : 0,
									"source" : [ "obj-4", 10 ]
								}

							}
, 							{
								"patchline" : 								{
									"destination" : [ "obj-12", 9 ],
									"disabled" : 0,
									"hidden" : 0,
									"source" : [ "obj-4", 9 ]
								}

							}
, 							{
								"patchline" : 								{
									"destination" : [ "obj-12", 8 ],
									"disabled" : 0,
									"hidden" : 0,
									"source" : [ "obj-4", 8 ]
								}

							}
, 							{
								"patchline" : 								{
									"destination" : [ "obj-12", 7 ],
									"disabled" : 0,
									"hidden" : 0,
									"source" : [ "obj-4", 7 ]
								}

							}
, 							{
								"patchline" : 								{
									"destination" : [ "obj-12", 6 ],
									"disabled" : 0,
									"hidden" : 0,
									"source" : [ "obj-4", 6 ]
								}

							}
, 							{
								"patchline" : 								{
									"destination" : [ "obj-12", 5 ],
									"disabled" : 0,
									"hidden" : 0,
									"source" : [ "obj-4", 5 ]
								}

							}
, 							{
								"patchline" : 								{
									"destination" : [ "obj-12", 4 ],
									"disabled" : 0,
									"hidden" : 0,
									"source" : [ "obj-4", 4 ]
								}

							}
, 							{
								"patchline" : 								{
									"destination" : [ "obj-12", 3 ],
									"disabled" : 0,
									"hidden" : 0,
									"source" : [ "obj-4", 3 ]
								}

							}
, 							{
								"patchline" : 								{
									"destination" : [ "obj-12", 2 ],
									"disabled" : 0,
									"hidden" : 0,
									"source" : [ "obj-4", 2 ]
								}

							}
, 							{
								"patchline" : 								{
									"destination" : [ "obj-12", 1 ],
									"disabled" : 0,
									"hidden" : 0,
									"source" : [ "obj-4", 1 ]
								}

							}
, 							{
								"patchline" : 								{
									"destination" : [ "obj-12", 0 ],
									"disabled" : 0,
									"hidden" : 0,
									"source" : [ "obj-4", 0 ]
								}

							}
, 							{
								"patchline" : 								{
									"destination" : [ "obj-1", 0 ],
									"disabled" : 0,
									"hidden" : 0,
									"source" : [ "obj-41", 0 ]
								}

							}
 ],
						"styles" : [ 							{
								"name" : "newobjBlue-1",
								"default" : 								{
									"accentcolor" : [ 0.317647, 0.654902, 0.976471, 1.0 ]
								}
,
								"parentstyle" : "",
								"multi" : 0
							}
, 							{
								"name" : "newobjGreen-1",
								"default" : 								{
									"accentcolor" : [ 0.0, 0.533333, 0.168627, 1.0 ]
								}
,
								"parentstyle" : "",
								"multi" : 0
							}
, 							{
								"name" : "newobjYellow-1",
								"default" : 								{
									"fontsize" : [ 12.059008 ],
									"accentcolor" : [ 0.82517, 0.78181, 0.059545, 1.0 ]
								}
,
								"parentstyle" : "",
								"multi" : 0
							}
 ]
					}
,
					"patching_rect" : [ 28.5, 20.0, 34.0, 20.0 ],
					"saved_object_attributes" : 					{
						"description" : "",
						"digest" : "",
						"fontsize" : 11.595187,
						"globalpatchername" : "",
						"style" : "",
						"tags" : ""
					}
,
					"style" : "",
					"text" : "p 2d",
					"textcolor" : [ 0.209184, 0.209184, 0.209184, 1.0 ]
				}

			}
, 			{
				"box" : 				{
					"bgcolor" : [ 1.0, 1.0, 1.0, 1.0 ],
					"color" : [ 0.734694, 0.734694, 0.734694, 1.0 ],
					"fontname" : "Arial",
					"fontsize" : 12.0,
					"id" : "obj-24",
					"maxclass" : "newobj",
					"numinlets" : 0,
					"numoutlets" : 0,
					"patcher" : 					{
						"fileversion" : 1,
						"appversion" : 						{
							"major" : 7,
							"minor" : 0,
							"revision" : 0,
							"architecture" : "x86",
							"modernui" : 1
						}
,
						"rect" : [ 0.0, 26.0, 573.0, 369.0 ],
						"bglocked" : 0,
						"openinpresentation" : 0,
						"default_fontsize" : 13.0,
						"default_fontface" : 0,
						"default_fontname" : "Arial",
						"gridonopen" : 1,
						"gridsize" : [ 5.0, 5.0 ],
						"gridsnaponopen" : 1,
						"objectsnaponopen" : 1,
						"statusbarvisible" : 2,
						"toolbarvisible" : 1,
						"lefttoolbarpinned" : 0,
						"toptoolbarpinned" : 0,
						"righttoolbarpinned" : 0,
						"bottomtoolbarpinned" : 0,
						"toolbars_unpinned_last_save" : 0,
						"tallnewobj" : 0,
						"boxanimatetime" : 200,
						"enablehscroll" : 1,
						"enablevscroll" : 1,
						"devicewidth" : 0.0,
						"description" : "",
						"digest" : "",
						"tags" : "",
						"style" : "",
						"subpatcher_template" : "",
						"showontab" : 1,
						"boxes" : [  ],
						"lines" : [  ]
					}
,
					"patching_rect" : [ 80.0, 20.0, 50.0, 20.0 ],
					"saved_object_attributes" : 					{
						"description" : "",
						"digest" : "",
						"fontsize" : 13.0,
						"globalpatchername" : "",
						"style" : "",
						"tags" : ""
					}
,
					"style" : "",
					"text" : "p ?",
					"textcolor" : [ 0.209184, 0.209184, 0.209184, 1.0 ],
					"varname" : "q_tab[1]"
				}

			}
 ],
		"lines" : [  ],
		"dependency_cache" : [ 			{
				"name" : "hoa.helpheader.maxpat",
				"bootpath" : "~/Documents/programmation/CICM/sourceTree/HoaLibrary/Max/Package/HoaLibrary/misc/others",
				"patcherrelativepath" : "../../misc/others",
				"type" : "JSON",
				"implicit" : 1
			}
, 			{
				"name" : "hoa.2d.scope~.svg",
				"bootpath" : "~/Documents/programmation/CICM/sourceTree/HoaLibrary/Max/Package/HoaLibrary/misc/object-palettes",
				"patcherrelativepath" : "../../misc/object-palettes",
				"type" : "svg ",
				"implicit" : 1
			}
, 			{
				"name" : "hoa.helpcredit.maxpat",
				"bootpath" : "~/Documents/programmation/CICM/sourceTree/HoaLibrary/Max/Package/HoaLibrary/misc/others",
				"patcherrelativepath" : "../../misc/others",
				"type" : "JSON",
				"implicit" : 1
			}
, 			{
				"name" : "hoa.connect.mxo",
				"type" : "iLaX"
			}
, 			{
				"name" : "hoa.2d.decoder~.mxo",
				"type" : "iLaX"
			}
, 			{
				"name" : "hoa.3d.decoder~.mxo",
				"type" : "iLaX"
			}
 ],
		"embedsnapshot" : 0,
		"styles" : [ 			{
				"name" : "AudioStatus_Menu",
				"default" : 				{
					"bgfillcolor" : 					{
						"type" : "color",
						"color" : [ 0.294118, 0.313726, 0.337255, 1 ],
						"color1" : [ 0.454902, 0.462745, 0.482353, 0.0 ],
						"color2" : [ 0.290196, 0.309804, 0.301961, 1.0 ],
						"angle" : 270.0,
						"proportion" : 0.39,
						"autogradient" : 0
					}

				}
,
				"parentstyle" : "",
				"multi" : 0
			}
 ]
	}

}
