{
	"patcher" : 	{
		"fileversion" : 1,
		"appversion" : 		{
			"major" : 7,
			"minor" : 0,
			"revision" : 0,
			"architecture" : "x86",
			"modernui" : 1
		}
,
		"rect" : [ 100.0, 100.0, 619.0, 547.0 ],
		"bgcolor" : [ 0.93, 0.93, 0.92, 1.0 ],
		"bglocked" : 0,
		"openinpresentation" : 0,
		"default_fontsize" : 11.595187,
		"default_fontface" : 0,
		"default_fontname" : "Arial",
		"gridonopen" : 1,
		"gridsize" : [ 15.0, 15.0 ],
		"gridsnaponopen" : 1,
		"objectsnaponopen" : 1,
		"statusbarvisible" : 2,
		"toolbarvisible" : 1,
		"lefttoolbarpinned" : 0,
		"toptoolbarpinned" : 0,
		"righttoolbarpinned" : 0,
		"bottomtoolbarpinned" : 0,
		"toolbars_unpinned_last_save" : 0,
		"tallnewobj" : 0,
		"boxanimatetime" : 200,
		"enablehscroll" : 1,
		"enablevscroll" : 1,
		"devicewidth" : 0.0,
		"description" : "",
		"digest" : "",
		"tags" : "",
		"style" : "",
		"subpatcher_template" : "",
		"showrootpatcherontab" : 0,
		"showontab" : 0,
		"boxes" : [ 			{
				"box" : 				{
					"fontname" : "Arial",
					"fontsize" : 11.595187,
					"id" : "obj-1",
					"maxclass" : "newobj",
					"numinlets" : 0,
					"numoutlets" : 0,
					"patcher" : 					{
						"fileversion" : 1,
						"appversion" : 						{
							"major" : 7,
							"minor" : 0,
							"revision" : 0,
							"architecture" : "x86",
							"modernui" : 1
						}
,
						"rect" : [ 100.0, 126.0, 619.0, 521.0 ],
						"bgcolor" : [ 0.93, 0.93, 0.92, 1.0 ],
						"bglocked" : 0,
						"openinpresentation" : 0,
						"default_fontsize" : 12.0,
						"default_fontface" : 0,
						"default_fontname" : "Arial",
						"gridonopen" : 1,
						"gridsize" : [ 20.0, 20.0 ],
						"gridsnaponopen" : 1,
						"objectsnaponopen" : 1,
						"statusbarvisible" : 2,
						"toolbarvisible" : 1,
						"lefttoolbarpinned" : 0,
						"toptoolbarpinned" : 0,
						"righttoolbarpinned" : 0,
						"bottomtoolbarpinned" : 0,
						"toolbars_unpinned_last_save" : 0,
						"tallnewobj" : 0,
						"boxanimatetime" : 200,
						"enablehscroll" : 1,
						"enablevscroll" : 1,
						"devicewidth" : 0.0,
						"description" : "",
						"digest" : "",
						"tags" : "",
						"style" : "",
						"subpatcher_template" : "",
						"showontab" : 1,
						"boxes" : [ 							{
								"box" : 								{
									"bgcolor" : [ 0.853045, 0.853045, 0.853045, 1.0 ],
									"color" : [ 0.92549, 0.364706, 0.341176, 1.0 ],
									"id" : "obj-4",
									"local" : 1,
									"maxclass" : "ezdac~",
									"numinlets" : 2,
									"numoutlets" : 0,
									"patching_rect" : [ 490.0, 395.0, 45.0, 45.0 ],
									"style" : ""
								}

							}
, 							{
								"box" : 								{
									"fontname" : "Arial",
									"fontsize" : 12.0,
									"id" : "obj-2",
									"maxclass" : "newobj",
									"numinlets" : 16,
									"numoutlets" : 20,
									"outlettype" : [ "signal", "signal", "signal", "signal", "signal", "signal", "signal", "signal", "signal", "signal", "signal", "signal", "signal", "signal", "signal", "signal", "signal", "signal", "signal", "signal" ],
									"patching_rect" : [ 49.899994, 356.0, 275.5, 22.0 ],
									"style" : "",
									"text" : "hoa.3d.decoder~ 3 20"
								}

							}
, 							{
								"box" : 								{
									"fontname" : "Arial",
									"fontsize" : 12.0,
									"id" : "obj-1",
									"maxclass" : "newobj",
									"numinlets" : 20,
									"numoutlets" : 0,
									"patching_rect" : [ 50.0, 420.0, 275.381256, 22.0 ],
									"style" : "",
									"text" : "hoa.dac~ 1:20"
								}

							}
, 							{
								"box" : 								{
									"args" : [ "@module", 0, "@file", "cello-f2.aif", "@loop", 1 ],
									"bgmode" : 0,
									"border" : 0,
									"clickthrough" : 0,
									"enablehscroll" : 0,
									"enablevscroll" : 0,
									"id" : "obj-11",
									"lockeddragscroll" : 0,
									"maxclass" : "bpatcher",
									"name" : "demosound.maxpat",
									"numinlets" : 0,
									"numoutlets" : 1,
									"offset" : [ 0.0, 0.0 ],
									"outlettype" : [ "signal" ],
									"patching_rect" : [ 50.0, 138.0, 221.0, 93.0 ],
									"viewvisibility" : 1
								}

							}
, 							{
								"box" : 								{
									"fontname" : "Arial",
									"fontsize" : 12.0,
									"id" : "obj-3",
									"linecount" : 3,
									"maxclass" : "comment",
									"numinlets" : 1,
									"numoutlets" : 0,
									"patching_rect" : [ 292.0, 146.0, 310.0, 47.0 ],
									"style" : "",
									"text" : "@maxsize set the maximum delay size in samples\n@delay set the inital delay in samples\n@factor set the initial diffusion factor between 0 and 1.",
									"textcolor" : [ 0.30292, 0.30292, 0.30292, 1.0 ],
									"varname" : "autohelp_top_description[4]"
								}

							}
, 							{
								"box" : 								{
									"angle" : 0.0,
									"bgcolor" : [ 0.94324, 0.954082, 0.954082, 1.0 ],
									"border" : 1,
									"bordercolor" : [ 0.75, 0.75, 0.75, 1.0 ],
									"id" : "obj-5",
									"maxclass" : "panel",
									"mode" : 0,
									"numinlets" : 1,
									"numoutlets" : 0,
									"patching_rect" : [ 292.0, 146.0, 310.0, 47.0 ],
									"proportion" : 0.39,
									"rounded" : 0,
									"style" : ""
								}

							}
, 							{
								"box" : 								{
									"fontname" : "Arial",
									"fontsize" : 11.595187,
									"id" : "obj-36",
									"maxclass" : "number",
									"maximum" : 44100,
									"minimum" : 0,
									"numinlets" : 1,
									"numoutlets" : 2,
									"outlettype" : [ "", "bang" ],
									"parameter_enable" : 0,
									"patching_rect" : [ 407.0, 313.0, 50.0, 21.0 ],
									"style" : ""
								}

							}
, 							{
								"box" : 								{
									"fontname" : "Arial",
									"fontsize" : 12.0,
									"id" : "obj-33",
									"linecount" : 2,
									"maxclass" : "comment",
									"numinlets" : 1,
									"numoutlets" : 0,
									"patching_rect" : [ 505.0, 242.0, 91.0, 33.0 ],
									"style" : "",
									"text" : "diffusion factor (0 - 1) :",
									"textcolor" : [ 0.30292, 0.30292, 0.30292, 1.0 ],
									"varname" : "autohelp_top_description[3]"
								}

							}
, 							{
								"box" : 								{
									"fontname" : "Arial",
									"fontsize" : 12.0,
									"id" : "obj-30",
									"linecount" : 2,
									"maxclass" : "comment",
									"numinlets" : 1,
									"numoutlets" : 0,
									"patching_rect" : [ 407.0, 277.0, 76.0, 33.0 ],
									"style" : "",
									"text" : "delay time (samples) :",
									"textcolor" : [ 0.30292, 0.30292, 0.30292, 1.0 ],
									"varname" : "autohelp_top_description[2]"
								}

							}
, 							{
								"box" : 								{
									"fontname" : "Arial",
									"fontsize" : 11.595187,
									"hidden" : 1,
									"id" : "obj-27",
									"maxclass" : "newobj",
									"numinlets" : 1,
									"numoutlets" : 1,
									"outlettype" : [ "" ],
									"patching_rect" : [ 505.0, 249.0, 79.0, 21.0 ],
									"style" : "",
									"text" : "loadmess 0.5"
								}

							}
, 							{
								"box" : 								{
									"fontname" : "Arial",
									"fontsize" : 11.595187,
									"hidden" : 1,
									"id" : "obj-26",
									"maxclass" : "newobj",
									"numinlets" : 1,
									"numoutlets" : 1,
									"outlettype" : [ "" ],
									"patching_rect" : [ 407.0, 249.0, 96.0, 21.0 ],
									"style" : "",
									"text" : "loadmess 44100"
								}

							}
, 							{
								"box" : 								{
									"fontname" : "Arial",
									"fontsize" : 11.595187,
									"format" : 6,
									"id" : "obj-17",
									"maxclass" : "flonum",
									"maximum" : 1.0,
									"minimum" : 0.0,
									"numinlets" : 1,
									"numoutlets" : 2,
									"outlettype" : [ "", "bang" ],
									"parameter_enable" : 0,
									"patching_rect" : [ 505.0, 276.0, 50.0, 21.0 ],
									"style" : ""
								}

							}
, 							{
								"box" : 								{
									"fontname" : "Arial",
									"fontsize" : 11.595187,
									"id" : "obj-9",
									"maxclass" : "newobj",
									"numinlets" : 1,
									"numoutlets" : 1,
									"outlettype" : [ "" ],
									"patching_rect" : [ 505.0, 301.0, 85.0, 21.0 ],
									"style" : "",
									"text" : "prepend factor"
								}

							}
, 							{
								"box" : 								{
									"args" : [ "@obj-name", "hoa.syn.decorrelation~", "@obj-desc", "An", "ambisonics", "soundfield", "decorrelator." ],
									"bgmode" : 0,
									"border" : 0,
									"clickthrough" : 0,
									"enablehscroll" : 0,
									"enablevscroll" : 0,
									"id" : "obj-18",
									"lockeddragscroll" : 0,
									"maxclass" : "bpatcher",
									"name" : "hoa.helpheader.maxpat",
									"numinlets" : 1,
									"numoutlets" : 0,
									"offset" : [ 0.0, 0.0 ],
									"patching_rect" : [ 7.0, 6.0, 483.0, 56.0 ],
									"viewvisibility" : 1
								}

							}
, 							{
								"box" : 								{
									"fontname" : "Arial",
									"fontsize" : 7.180877,
									"hidden" : 1,
									"id" : "obj-19",
									"linecount" : 2,
									"maxclass" : "newobj",
									"numinlets" : 4,
									"numoutlets" : 0,
									"patching_rect" : [ 406.0, 22.5, 52.0, 25.0 ],
									"style" : "",
									"text" : "bgcolor 0.93 0.93 0.92 1."
								}

							}
, 							{
								"box" : 								{
									"args" : [ "@size", 0 ],
									"bgmode" : 0,
									"border" : 0,
									"clickthrough" : 0,
									"enablehscroll" : 0,
									"enablevscroll" : 0,
									"id" : "obj-20",
									"lockeddragscroll" : 0,
									"maxclass" : "bpatcher",
									"name" : "hoa.helpcredit.maxpat",
									"numinlets" : 1,
									"numoutlets" : 0,
									"offset" : [ 0.0, 0.0 ],
									"patching_rect" : [ 27.0, 464.916626, 548.0, 23.0 ],
									"viewvisibility" : 1
								}

							}
, 							{
								"box" : 								{
									"fontname" : "Arial",
									"fontsize" : 12.0,
									"id" : "obj-21",
									"linecount" : 2,
									"maxclass" : "comment",
									"numinlets" : 1,
									"numoutlets" : 0,
									"patching_rect" : [ 7.0, 72.0, 540.0, 33.0 ],
									"style" : "",
									"text" : "hoa.syn.decorrelation~ allows you to delay the different harmonics depending on the number of harmonics, to generate a diffuse sound field with signal decorrelation.",
									"textcolor" : [ 0.30292, 0.30292, 0.30292, 1.0 ],
									"varname" : "autohelp_top_description[1]"
								}

							}
, 							{
								"box" : 								{
									"angle" : 0.0,
									"bgcolor" : [ 0.94324, 0.954082, 0.954082, 1.0 ],
									"border" : 1,
									"bordercolor" : [ 0.75, 0.75, 0.75, 1.0 ],
									"id" : "obj-22",
									"maxclass" : "panel",
									"mode" : 0,
									"numinlets" : 1,
									"numoutlets" : 0,
									"patching_rect" : [ 7.0, 72.0, 540.0, 32.0 ],
									"proportion" : 0.39,
									"rounded" : 0,
									"style" : ""
								}

							}
, 							{
								"box" : 								{
									"fontname" : "Arial",
									"fontsize" : 11.595187,
									"hidden" : 1,
									"id" : "obj-46",
									"maxclass" : "newobj",
									"numinlets" : 0,
									"numoutlets" : 1,
									"outlettype" : [ "bang" ],
									"patcher" : 									{
										"fileversion" : 1,
										"appversion" : 										{
											"major" : 7,
											"minor" : 0,
											"revision" : 0,
											"architecture" : "x86",
											"modernui" : 1
										}
,
										"rect" : [ 0.0, 0.0, 640.0, 480.0 ],
										"bglocked" : 0,
										"openinpresentation" : 0,
										"default_fontsize" : 12.0,
										"default_fontface" : 0,
										"default_fontname" : "Arial",
										"gridonopen" : 1,
										"gridsize" : [ 15.0, 15.0 ],
										"gridsnaponopen" : 1,
										"objectsnaponopen" : 1,
										"statusbarvisible" : 2,
										"toolbarvisible" : 1,
										"lefttoolbarpinned" : 0,
										"toptoolbarpinned" : 0,
										"righttoolbarpinned" : 0,
										"bottomtoolbarpinned" : 0,
										"toolbars_unpinned_last_save" : 0,
										"tallnewobj" : 0,
										"boxanimatetime" : 200,
										"enablehscroll" : 1,
										"enablevscroll" : 1,
										"devicewidth" : 0.0,
										"description" : "",
										"digest" : "",
										"tags" : "",
										"style" : "",
										"subpatcher_template" : "",
										"boxes" : [ 											{
												"box" : 												{
													"id" : "obj-10",
													"maxclass" : "button",
													"numinlets" : 1,
													"numoutlets" : 1,
													"outlettype" : [ "bang" ],
													"patching_rect" : [ 50.0, 160.0, 20.0, 20.0 ],
													"style" : ""
												}

											}
, 											{
												"box" : 												{
													"fontname" : "Arial",
													"fontsize" : 11.595187,
													"id" : "obj-23",
													"maxclass" : "newobj",
													"numinlets" : 2,
													"numoutlets" : 2,
													"outlettype" : [ "bang", "" ],
													"patching_rect" : [ 50.0, 130.0, 41.0, 19.0 ],
													"style" : "",
													"text" : "sel 32"
												}

											}
, 											{
												"box" : 												{
													"fontname" : "Arial",
													"fontsize" : 11.595187,
													"id" : "obj-17",
													"maxclass" : "newobj",
													"numinlets" : 0,
													"numoutlets" : 4,
													"outlettype" : [ "int", "int", "int", "int" ],
													"patching_rect" : [ 50.0, 100.0, 59.5, 19.0 ],
													"style" : "",
													"text" : "key"
												}

											}
, 											{
												"box" : 												{
													"comment" : "",
													"id" : "obj-45",
													"maxclass" : "outlet",
													"numinlets" : 1,
													"numoutlets" : 0,
													"patching_rect" : [ 50.0, 240.0, 25.0, 25.0 ],
													"style" : ""
												}

											}
 ],
										"lines" : [ 											{
												"patchline" : 												{
													"destination" : [ "obj-45", 0 ],
													"disabled" : 0,
													"hidden" : 0,
													"source" : [ "obj-10", 0 ]
												}

											}
, 											{
												"patchline" : 												{
													"destination" : [ "obj-23", 0 ],
													"disabled" : 0,
													"hidden" : 0,
													"midpoints" : [ 59.5, 121.0, 59.5, 121.0 ],
													"source" : [ "obj-17", 0 ]
												}

											}
, 											{
												"patchline" : 												{
													"destination" : [ "obj-10", 0 ],
													"disabled" : 0,
													"hidden" : 0,
													"midpoints" : [ 59.5, 151.0, 59.5, 151.0 ],
													"source" : [ "obj-23", 0 ]
												}

											}
 ],
										"styles" : [ 											{
												"name" : "AudioStatus_Menu",
												"default" : 												{
													"bgfillcolor" : 													{
														"type" : "color",
														"color" : [ 0.294118, 0.313726, 0.337255, 1 ],
														"color1" : [ 0.454902, 0.462745, 0.482353, 0.0 ],
														"color2" : [ 0.290196, 0.309804, 0.301961, 1.0 ],
														"angle" : 270.0,
														"proportion" : 0.39,
														"autogradient" : 0
													}

												}
,
												"parentstyle" : "",
												"multi" : 0
											}
 ]
									}
,
									"patching_rect" : [ 501.5, 13.0, 51.0, 21.0 ],
									"saved_object_attributes" : 									{
										"description" : "",
										"digest" : "",
										"globalpatchername" : "",
										"style" : "",
										"tags" : ""
									}
,
									"style" : "",
									"text" : "p key32"
								}

							}
, 							{
								"box" : 								{
									"fontname" : "Arial",
									"fontsize" : 11.595187,
									"hidden" : 1,
									"id" : "obj-31",
									"maxclass" : "newobj",
									"numinlets" : 1,
									"numoutlets" : 0,
									"patching_rect" : [ 501.5, 43.0, 74.0, 21.0 ],
									"saved_object_attributes" : 									{
										"nhcolor" : [ 0.0, 0.0, 1.0, 1.0 ],
										"phcolor" : [ 1.0, 0.0, 0.0, 1.0 ],
										"planecolor" : [ 1.0, 1.0, 1.0, 1.0 ],
										"zhcolor" : [ 0.2, 0.2, 0.2, 1.0 ]
									}
,
									"style" : "",
									"text" : "hoa.connect"
								}

							}
, 							{
								"box" : 								{
									"fontname" : "Arial",
									"fontsize" : 11.595187,
									"id" : "obj-14",
									"linecount" : 3,
									"maxclass" : "newobj",
									"numinlets" : 1,
									"numoutlets" : 16,
									"outlettype" : [ "signal", "signal", "signal", "signal", "signal", "signal", "signal", "signal", "signal", "signal", "signal", "signal", "signal", "signal", "signal", "signal" ],
									"patching_rect" : [ 50.0, 271.0, 274.999969, 47.0 ],
									"style" : "",
									"text" : "hoa.3d.process~ 3 hoa.syn.decorrelation~ harmonics @maxsize 44100 @delay 44100 @factor 0.5"
								}

							}
 ],
						"lines" : [ 							{
								"patchline" : 								{
									"destination" : [ "obj-14", 0 ],
									"disabled" : 0,
									"hidden" : 0,
									"source" : [ "obj-11", 0 ]
								}

							}
, 							{
								"patchline" : 								{
									"color" : [ 1.0, 0.0, 0.0, 1.0 ],
									"destination" : [ "obj-2", 15 ],
									"disabled" : 0,
									"hidden" : 0,
									"source" : [ "obj-14", 15 ]
								}

							}
, 							{
								"patchline" : 								{
									"color" : [ 1.0, 0.0, 0.0, 1.0 ],
									"destination" : [ "obj-2", 14 ],
									"disabled" : 0,
									"hidden" : 0,
									"source" : [ "obj-14", 14 ]
								}

							}
, 							{
								"patchline" : 								{
									"color" : [ 1.0, 0.0, 0.0, 1.0 ],
									"destination" : [ "obj-2", 13 ],
									"disabled" : 0,
									"hidden" : 0,
									"source" : [ "obj-14", 13 ]
								}

							}
, 							{
								"patchline" : 								{
									"color" : [ 0.2, 0.2, 0.2, 1.0 ],
									"destination" : [ "obj-2", 12 ],
									"disabled" : 0,
									"hidden" : 0,
									"source" : [ "obj-14", 12 ]
								}

							}
, 							{
								"patchline" : 								{
									"color" : [ 0.0, 0.0, 1.0, 1.0 ],
									"destination" : [ "obj-2", 11 ],
									"disabled" : 0,
									"hidden" : 0,
									"source" : [ "obj-14", 11 ]
								}

							}
, 							{
								"patchline" : 								{
									"color" : [ 0.0, 0.0, 1.0, 1.0 ],
									"destination" : [ "obj-2", 10 ],
									"disabled" : 0,
									"hidden" : 0,
									"source" : [ "obj-14", 10 ]
								}

							}
, 							{
								"patchline" : 								{
									"color" : [ 0.0, 0.0, 1.0, 1.0 ],
									"destination" : [ "obj-2", 9 ],
									"disabled" : 0,
									"hidden" : 0,
									"source" : [ "obj-14", 9 ]
								}

							}
, 							{
								"patchline" : 								{
									"color" : [ 1.0, 0.0, 0.0, 1.0 ],
									"destination" : [ "obj-2", 8 ],
									"disabled" : 0,
									"hidden" : 0,
									"source" : [ "obj-14", 8 ]
								}

							}
, 							{
								"patchline" : 								{
									"color" : [ 1.0, 0.0, 0.0, 1.0 ],
									"destination" : [ "obj-2", 7 ],
									"disabled" : 0,
									"hidden" : 0,
									"source" : [ "obj-14", 7 ]
								}

							}
, 							{
								"patchline" : 								{
									"color" : [ 0.2, 0.2, 0.2, 1.0 ],
									"destination" : [ "obj-2", 6 ],
									"disabled" : 0,
									"hidden" : 0,
									"source" : [ "obj-14", 6 ]
								}

							}
, 							{
								"patchline" : 								{
									"color" : [ 0.0, 0.0, 1.0, 1.0 ],
									"destination" : [ "obj-2", 5 ],
									"disabled" : 0,
									"hidden" : 0,
									"source" : [ "obj-14", 5 ]
								}

							}
, 							{
								"patchline" : 								{
									"color" : [ 0.0, 0.0, 1.0, 1.0 ],
									"destination" : [ "obj-2", 4 ],
									"disabled" : 0,
									"hidden" : 0,
									"source" : [ "obj-14", 4 ]
								}

							}
, 							{
								"patchline" : 								{
									"color" : [ 1.0, 0.0, 0.0, 1.0 ],
									"destination" : [ "obj-2", 3 ],
									"disabled" : 0,
									"hidden" : 0,
									"source" : [ "obj-14", 3 ]
								}

							}
, 							{
								"patchline" : 								{
									"color" : [ 0.2, 0.2, 0.2, 1.0 ],
									"destination" : [ "obj-2", 2 ],
									"disabled" : 0,
									"hidden" : 0,
									"source" : [ "obj-14", 2 ]
								}

							}
, 							{
								"patchline" : 								{
									"color" : [ 0.0, 0.0, 1.0, 1.0 ],
									"destination" : [ "obj-2", 1 ],
									"disabled" : 0,
									"hidden" : 0,
									"source" : [ "obj-14", 1 ]
								}

							}
, 							{
								"patchline" : 								{
									"color" : [ 0.2, 0.2, 0.2, 1.0 ],
									"destination" : [ "obj-2", 0 ],
									"disabled" : 0,
									"hidden" : 0,
									"source" : [ "obj-14", 0 ]
								}

							}
, 							{
								"patchline" : 								{
									"destination" : [ "obj-9", 0 ],
									"disabled" : 0,
									"hidden" : 0,
									"source" : [ "obj-17", 0 ]
								}

							}
, 							{
								"patchline" : 								{
									"destination" : [ "obj-1", 19 ],
									"disabled" : 0,
									"hidden" : 0,
									"source" : [ "obj-2", 19 ]
								}

							}
, 							{
								"patchline" : 								{
									"destination" : [ "obj-1", 18 ],
									"disabled" : 0,
									"hidden" : 0,
									"source" : [ "obj-2", 18 ]
								}

							}
, 							{
								"patchline" : 								{
									"destination" : [ "obj-1", 17 ],
									"disabled" : 0,
									"hidden" : 0,
									"source" : [ "obj-2", 17 ]
								}

							}
, 							{
								"patchline" : 								{
									"destination" : [ "obj-1", 16 ],
									"disabled" : 0,
									"hidden" : 0,
									"source" : [ "obj-2", 16 ]
								}

							}
, 							{
								"patchline" : 								{
									"destination" : [ "obj-1", 15 ],
									"disabled" : 0,
									"hidden" : 0,
									"source" : [ "obj-2", 15 ]
								}

							}
, 							{
								"patchline" : 								{
									"destination" : [ "obj-1", 14 ],
									"disabled" : 0,
									"hidden" : 0,
									"source" : [ "obj-2", 14 ]
								}

							}
, 							{
								"patchline" : 								{
									"destination" : [ "obj-1", 13 ],
									"disabled" : 0,
									"hidden" : 0,
									"source" : [ "obj-2", 13 ]
								}

							}
, 							{
								"patchline" : 								{
									"destination" : [ "obj-1", 12 ],
									"disabled" : 0,
									"hidden" : 0,
									"source" : [ "obj-2", 12 ]
								}

							}
, 							{
								"patchline" : 								{
									"destination" : [ "obj-1", 11 ],
									"disabled" : 0,
									"hidden" : 0,
									"source" : [ "obj-2", 11 ]
								}

							}
, 							{
								"patchline" : 								{
									"destination" : [ "obj-1", 10 ],
									"disabled" : 0,
									"hidden" : 0,
									"source" : [ "obj-2", 10 ]
								}

							}
, 							{
								"patchline" : 								{
									"destination" : [ "obj-1", 9 ],
									"disabled" : 0,
									"hidden" : 0,
									"source" : [ "obj-2", 9 ]
								}

							}
, 							{
								"patchline" : 								{
									"destination" : [ "obj-1", 8 ],
									"disabled" : 0,
									"hidden" : 0,
									"source" : [ "obj-2", 8 ]
								}

							}
, 							{
								"patchline" : 								{
									"destination" : [ "obj-1", 7 ],
									"disabled" : 0,
									"hidden" : 0,
									"source" : [ "obj-2", 7 ]
								}

							}
, 							{
								"patchline" : 								{
									"destination" : [ "obj-1", 6 ],
									"disabled" : 0,
									"hidden" : 0,
									"source" : [ "obj-2", 6 ]
								}

							}
, 							{
								"patchline" : 								{
									"destination" : [ "obj-1", 5 ],
									"disabled" : 0,
									"hidden" : 0,
									"source" : [ "obj-2", 5 ]
								}

							}
, 							{
								"patchline" : 								{
									"destination" : [ "obj-1", 4 ],
									"disabled" : 0,
									"hidden" : 0,
									"source" : [ "obj-2", 4 ]
								}

							}
, 							{
								"patchline" : 								{
									"destination" : [ "obj-1", 3 ],
									"disabled" : 0,
									"hidden" : 0,
									"source" : [ "obj-2", 3 ]
								}

							}
, 							{
								"patchline" : 								{
									"destination" : [ "obj-1", 2 ],
									"disabled" : 0,
									"hidden" : 0,
									"source" : [ "obj-2", 2 ]
								}

							}
, 							{
								"patchline" : 								{
									"destination" : [ "obj-1", 1 ],
									"disabled" : 0,
									"hidden" : 0,
									"source" : [ "obj-2", 1 ]
								}

							}
, 							{
								"patchline" : 								{
									"destination" : [ "obj-1", 0 ],
									"disabled" : 0,
									"hidden" : 0,
									"source" : [ "obj-2", 0 ]
								}

							}
, 							{
								"patchline" : 								{
									"destination" : [ "obj-36", 0 ],
									"disabled" : 0,
									"hidden" : 1,
									"source" : [ "obj-26", 0 ]
								}

							}
, 							{
								"patchline" : 								{
									"destination" : [ "obj-17", 0 ],
									"disabled" : 0,
									"hidden" : 1,
									"source" : [ "obj-27", 0 ]
								}

							}
, 							{
								"patchline" : 								{
									"destination" : [ "obj-14", 0 ],
									"disabled" : 0,
									"hidden" : 0,
									"midpoints" : [ 416.5, 343.0, 389.0, 343.0, 389.0, 238.0, 59.5, 238.0 ],
									"source" : [ "obj-36", 0 ]
								}

							}
, 							{
								"patchline" : 								{
									"destination" : [ "obj-31", 0 ],
									"disabled" : 0,
									"hidden" : 1,
									"midpoints" : [ 511.0, 34.0, 511.0, 34.0 ],
									"source" : [ "obj-46", 0 ]
								}

							}
, 							{
								"patchline" : 								{
									"destination" : [ "obj-14", 0 ],
									"disabled" : 0,
									"hidden" : 0,
									"midpoints" : [ 514.5, 343.0, 389.0, 343.0, 389.0, 238.0, 59.5, 238.0 ],
									"source" : [ "obj-9", 0 ]
								}

							}
 ],
						"styles" : [ 							{
								"name" : "newobjBlue-1",
								"default" : 								{
									"accentcolor" : [ 0.317647, 0.654902, 0.976471, 1.0 ]
								}
,
								"parentstyle" : "",
								"multi" : 0
							}
, 							{
								"name" : "newobjGreen-1",
								"default" : 								{
									"accentcolor" : [ 0.0, 0.533333, 0.168627, 1.0 ]
								}
,
								"parentstyle" : "",
								"multi" : 0
							}
, 							{
								"name" : "newobjYellow-1",
								"default" : 								{
									"fontsize" : [ 12.059008 ],
									"accentcolor" : [ 0.82517, 0.78181, 0.059545, 1.0 ]
								}
,
								"parentstyle" : "",
								"multi" : 0
							}
 ]
					}
,
					"patching_rect" : [ 13.0, 83.0, 98.0, 19.0 ],
					"saved_object_attributes" : 					{
						"description" : "",
						"digest" : "",
						"globalpatchername" : "",
						"style" : "",
						"tags" : ""
					}
,
					"style" : "",
					"text" : "p \"3d harmonics\""
				}

			}
, 			{
				"box" : 				{
					"fontname" : "Arial",
					"fontsize" : 11.595187,
					"id" : "obj-8",
					"maxclass" : "newobj",
					"numinlets" : 0,
					"numoutlets" : 0,
					"patcher" : 					{
						"fileversion" : 1,
						"appversion" : 						{
							"major" : 7,
							"minor" : 0,
							"revision" : 0,
							"architecture" : "x86",
							"modernui" : 1
						}
,
						"rect" : [ 0.0, 26.0, 619.0, 521.0 ],
						"bgcolor" : [ 0.93, 0.93, 0.92, 1.0 ],
						"bglocked" : 0,
						"openinpresentation" : 0,
						"default_fontsize" : 12.0,
						"default_fontface" : 0,
						"default_fontname" : "Arial",
						"gridonopen" : 1,
						"gridsize" : [ 20.0, 20.0 ],
						"gridsnaponopen" : 1,
						"objectsnaponopen" : 1,
						"statusbarvisible" : 2,
						"toolbarvisible" : 1,
						"lefttoolbarpinned" : 0,
						"toptoolbarpinned" : 0,
						"righttoolbarpinned" : 0,
						"bottomtoolbarpinned" : 0,
						"toolbars_unpinned_last_save" : 0,
						"tallnewobj" : 0,
						"boxanimatetime" : 200,
						"enablehscroll" : 1,
						"enablevscroll" : 1,
						"devicewidth" : 0.0,
						"description" : "",
						"digest" : "",
						"tags" : "",
						"style" : "",
						"subpatcher_template" : "",
						"showontab" : 1,
						"boxes" : [ 							{
								"box" : 								{
									"args" : [ "@module", 0, "@file", "cello-f2.aif", "@loop", 1 ],
									"bgmode" : 0,
									"border" : 0,
									"clickthrough" : 0,
									"enablehscroll" : 0,
									"enablevscroll" : 0,
									"id" : "obj-4",
									"lockeddragscroll" : 0,
									"maxclass" : "bpatcher",
									"name" : "demosound.maxpat",
									"numinlets" : 0,
									"numoutlets" : 1,
									"offset" : [ 0.0, 0.0 ],
									"outlettype" : [ "signal" ],
									"patching_rect" : [ 30.0, 107.0, 221.0, 93.0 ],
									"viewvisibility" : 1
								}

							}
, 							{
								"box" : 								{
									"channels" : 16,
									"id" : "obj-7",
									"maxclass" : "hoa.gain~",
									"numinlets" : 17,
									"numoutlets" : 17,
									"outlettype" : [ "signal", "signal", "signal", "signal", "signal", "signal", "signal", "signal", "signal", "signal", "signal", "signal", "signal", "signal", "signal", "signal", "" ],
									"parameter_enable" : 1,
									"patching_rect" : [ 30.00001, 263.5, 349.666656, 19.0 ],
									"saved_attribute_attributes" : 									{
										"valueof" : 										{
											"parameter_longname" : "hoa.gain~",
											"parameter_shortname" : "hoa.gain~",
											"parameter_type" : 3,
											"parameter_initial_enable" : 1,
											"parameter_initial" : [ 0, -16.018312 ],
											"parameter_invisible" : 1
										}

									}
,
									"varname" : "hoa.gain~"
								}

							}
, 							{
								"box" : 								{
									"fontname" : "Arial",
									"fontsize" : 12.0,
									"id" : "obj-3",
									"linecount" : 3,
									"maxclass" : "comment",
									"numinlets" : 1,
									"numoutlets" : 0,
									"patching_rect" : [ 272.0, 114.0, 310.0, 47.0 ],
									"style" : "",
									"text" : "@maxsize set the maximum delay size in samples\n@delay set the inital delay in samples\n@factor set the initial diffusion factor between 0 and 1.",
									"textcolor" : [ 0.30292, 0.30292, 0.30292, 1.0 ],
									"varname" : "autohelp_top_description[4]"
								}

							}
, 							{
								"box" : 								{
									"angle" : 0.0,
									"bgcolor" : [ 0.94324, 0.954082, 0.954082, 1.0 ],
									"border" : 1,
									"bordercolor" : [ 0.75, 0.75, 0.75, 1.0 ],
									"id" : "obj-5",
									"maxclass" : "panel",
									"mode" : 0,
									"numinlets" : 1,
									"numoutlets" : 0,
									"patching_rect" : [ 272.0, 114.0, 310.0, 47.0 ],
									"proportion" : 0.39,
									"rounded" : 0,
									"style" : ""
								}

							}
, 							{
								"box" : 								{
									"fontname" : "Arial",
									"fontsize" : 12.0,
									"id" : "obj-36",
									"linecount" : 2,
									"maxclass" : "comment",
									"numinlets" : 1,
									"numoutlets" : 0,
									"patching_rect" : [ 406.0, 433.0, 176.0, 33.0 ],
									"style" : "",
									"text" : "Manage delay time of each channel with a list",
									"textcolor" : [ 0.30292, 0.30292, 0.30292, 1.0 ],
									"varname" : "autohelp_top_description[2]"
								}

							}
, 							{
								"box" : 								{
									"angle" : 0.0,
									"bgcolor" : [ 0.94324, 0.954082, 0.954082, 1.0 ],
									"border" : 1,
									"bordercolor" : [ 0.75, 0.75, 0.75, 1.0 ],
									"id" : "obj-37",
									"maxclass" : "panel",
									"mode" : 0,
									"numinlets" : 1,
									"numoutlets" : 0,
									"patching_rect" : [ 406.0, 433.0, 176.0, 33.0 ],
									"proportion" : 0.39,
									"rounded" : 0,
									"style" : ""
								}

							}
, 							{
								"box" : 								{
									"fontname" : "Arial",
									"fontsize" : 12.0,
									"id" : "obj-8",
									"maxclass" : "newobj",
									"numinlets" : 16,
									"numoutlets" : 15,
									"outlettype" : [ "signal", "signal", "signal", "signal", "signal", "signal", "signal", "signal", "signal", "signal", "signal", "signal", "signal", "signal", "signal" ],
									"patching_rect" : [ 30.0, 298.0, 329.0, 22.0 ],
									"style" : "",
									"text" : "hoa.2d.recomposer~ 7 16 fixe"
								}

							}
, 							{
								"box" : 								{
									"channels" : 16,
									"color" : [ 1.0, 1.0, 1.0, 1.0 ],
									"fontface" : 0,
									"fontname" : "Arial",
									"fontsize" : 12.0,
									"hoa_2d_space_saved_state" : [ 141.784317, 142.366287, 159.009491, 146.573898, 90.167961, 0.0, 114.473686, 120.873741, 147.141739, 169.933929, 180.573639, 168.137512, 172.279739, 174.1427, 0.0, 0.0 ],
									"id" : "obj-6",
									"maxclass" : "hoa.2d.space",
									"minmax" : [ 0.0, 200.0 ],
									"numinlets" : 1,
									"numoutlets" : 2,
									"outlettype" : [ "list", "int" ],
									"parameter_enable" : 1,
									"patching_rect" : [ 406.0, 237.0, 176.0, 176.0 ],
									"saved_attribute_attributes" : 									{
										"valueof" : 										{
											"parameter_longname" : "hoa.2d.space",
											"parameter_shortname" : "hoa.2d.space",
											"parameter_type" : 3,
											"parameter_initial_enable" : 1,
											"parameter_initial" : [ 141.784317, 142.366287, 159.009491, 146.573898, 90.167961, 0.0, 114.473686, 120.873741, 147.141739, 169.933929, 180.573639, 168.137512, 172.279739, 174.1427, 0.0, 0.0 ],
											"parameter_invisible" : 1
										}

									}
,
									"spcolor" : [ 0.5, 0.5, 0.5, 0.5 ],
									"varname" : "hoa.2d.space"
								}

							}
, 							{
								"box" : 								{
									"bgcolor" : [ 0.853045, 0.853045, 0.853045, 1.0 ],
									"color" : [ 0.92549, 0.364706, 0.341176, 1.0 ],
									"id" : "obj-1",
									"local" : 1,
									"maxclass" : "ezdac~",
									"numinlets" : 2,
									"numoutlets" : 0,
									"patching_rect" : [ 40.0, 412.0, 45.0, 45.0 ],
									"style" : ""
								}

							}
, 							{
								"box" : 								{
									"bgmode" : 0,
									"border" : 1,
									"clickthrough" : 0,
									"enablehscroll" : 0,
									"enablevscroll" : 0,
									"id" : "obj-2",
									"lockeddragscroll" : 0,
									"maxclass" : "bpatcher",
									"name" : "hoa.helpout_7.maxpat",
									"numinlets" : 15,
									"numoutlets" : 0,
									"offset" : [ 0.0, 0.0 ],
									"patching_rect" : [ 30.0, 334.0, 329.0, 132.0 ],
									"viewvisibility" : 1
								}

							}
, 							{
								"box" : 								{
									"args" : [ "@obj-name", "hoa.syn.decorrelation~", "@obj-desc", "An", "ambisonics", "soundfield", "decorrelator." ],
									"bgmode" : 0,
									"border" : 0,
									"clickthrough" : 0,
									"enablehscroll" : 0,
									"enablevscroll" : 0,
									"id" : "obj-18",
									"lockeddragscroll" : 0,
									"maxclass" : "bpatcher",
									"name" : "hoa.helpheader.maxpat",
									"numinlets" : 1,
									"numoutlets" : 0,
									"offset" : [ 0.0, 0.0 ],
									"patching_rect" : [ 7.0, 6.0, 483.0, 56.0 ],
									"viewvisibility" : 1
								}

							}
, 							{
								"box" : 								{
									"fontname" : "Arial",
									"fontsize" : 7.180877,
									"hidden" : 1,
									"id" : "obj-19",
									"linecount" : 2,
									"maxclass" : "newobj",
									"numinlets" : 4,
									"numoutlets" : 0,
									"patching_rect" : [ 406.0, 22.5, 52.0, 25.0 ],
									"style" : "",
									"text" : "bgcolor 0.93 0.93 0.92 1."
								}

							}
, 							{
								"box" : 								{
									"args" : [ "@size", 0 ],
									"bgmode" : 0,
									"border" : 0,
									"clickthrough" : 0,
									"enablehscroll" : 0,
									"enablevscroll" : 0,
									"id" : "obj-20",
									"lockeddragscroll" : 0,
									"maxclass" : "bpatcher",
									"name" : "hoa.helpcredit.maxpat",
									"numinlets" : 1,
									"numoutlets" : 0,
									"offset" : [ 0.0, 0.0 ],
									"patching_rect" : [ 30.0, 486.916626, 548.0, 23.0 ],
									"viewvisibility" : 1
								}

							}
, 							{
								"box" : 								{
									"fontname" : "Arial",
									"fontsize" : 12.0,
									"id" : "obj-21",
									"linecount" : 2,
									"maxclass" : "comment",
									"numinlets" : 1,
									"numoutlets" : 0,
									"patching_rect" : [ 7.0, 72.0, 548.0, 33.0 ],
									"style" : "",
									"text" : "hoa.syn.decorrelation~ allows you to delay the differents channels to decorrelate them and generate a diffuse soundfield.",
									"textcolor" : [ 0.30292, 0.30292, 0.30292, 1.0 ],
									"varname" : "autohelp_top_description[1]"
								}

							}
, 							{
								"box" : 								{
									"angle" : 0.0,
									"bgcolor" : [ 0.94324, 0.954082, 0.954082, 1.0 ],
									"border" : 1,
									"bordercolor" : [ 0.75, 0.75, 0.75, 1.0 ],
									"id" : "obj-22",
									"maxclass" : "panel",
									"mode" : 0,
									"numinlets" : 1,
									"numoutlets" : 0,
									"patching_rect" : [ 7.0, 72.0, 540.0, 32.0 ],
									"proportion" : 0.39,
									"rounded" : 0,
									"style" : ""
								}

							}
, 							{
								"box" : 								{
									"fontname" : "Arial",
									"fontsize" : 11.595187,
									"hidden" : 1,
									"id" : "obj-46",
									"maxclass" : "newobj",
									"numinlets" : 0,
									"numoutlets" : 1,
									"outlettype" : [ "bang" ],
									"patcher" : 									{
										"fileversion" : 1,
										"appversion" : 										{
											"major" : 7,
											"minor" : 0,
											"revision" : 0,
											"architecture" : "x86",
											"modernui" : 1
										}
,
										"rect" : [ 0.0, 0.0, 640.0, 480.0 ],
										"bglocked" : 0,
										"openinpresentation" : 0,
										"default_fontsize" : 12.0,
										"default_fontface" : 0,
										"default_fontname" : "Arial",
										"gridonopen" : 1,
										"gridsize" : [ 15.0, 15.0 ],
										"gridsnaponopen" : 1,
										"objectsnaponopen" : 1,
										"statusbarvisible" : 2,
										"toolbarvisible" : 1,
										"lefttoolbarpinned" : 0,
										"toptoolbarpinned" : 0,
										"righttoolbarpinned" : 0,
										"bottomtoolbarpinned" : 0,
										"toolbars_unpinned_last_save" : 0,
										"tallnewobj" : 0,
										"boxanimatetime" : 200,
										"enablehscroll" : 1,
										"enablevscroll" : 1,
										"devicewidth" : 0.0,
										"description" : "",
										"digest" : "",
										"tags" : "",
										"style" : "",
										"subpatcher_template" : "",
										"boxes" : [ 											{
												"box" : 												{
													"id" : "obj-10",
													"maxclass" : "button",
													"numinlets" : 1,
													"numoutlets" : 1,
													"outlettype" : [ "bang" ],
													"patching_rect" : [ 50.0, 160.0, 20.0, 20.0 ],
													"style" : ""
												}

											}
, 											{
												"box" : 												{
													"fontname" : "Arial",
													"fontsize" : 11.595187,
													"id" : "obj-23",
													"maxclass" : "newobj",
													"numinlets" : 2,
													"numoutlets" : 2,
													"outlettype" : [ "bang", "" ],
													"patching_rect" : [ 50.0, 130.0, 41.0, 19.0 ],
													"style" : "",
													"text" : "sel 32"
												}

											}
, 											{
												"box" : 												{
													"fontname" : "Arial",
													"fontsize" : 11.595187,
													"id" : "obj-17",
													"maxclass" : "newobj",
													"numinlets" : 0,
													"numoutlets" : 4,
													"outlettype" : [ "int", "int", "int", "int" ],
													"patching_rect" : [ 50.0, 100.0, 59.5, 19.0 ],
													"style" : "",
													"text" : "key"
												}

											}
, 											{
												"box" : 												{
													"comment" : "",
													"id" : "obj-45",
													"maxclass" : "outlet",
													"numinlets" : 1,
													"numoutlets" : 0,
													"patching_rect" : [ 50.0, 240.0, 25.0, 25.0 ],
													"style" : ""
												}

											}
 ],
										"lines" : [ 											{
												"patchline" : 												{
													"destination" : [ "obj-45", 0 ],
													"disabled" : 0,
													"hidden" : 0,
													"source" : [ "obj-10", 0 ]
												}

											}
, 											{
												"patchline" : 												{
													"destination" : [ "obj-23", 0 ],
													"disabled" : 0,
													"hidden" : 0,
													"midpoints" : [ 59.5, 121.0, 59.5, 121.0 ],
													"source" : [ "obj-17", 0 ]
												}

											}
, 											{
												"patchline" : 												{
													"destination" : [ "obj-10", 0 ],
													"disabled" : 0,
													"hidden" : 0,
													"midpoints" : [ 59.5, 151.0, 59.5, 151.0 ],
													"source" : [ "obj-23", 0 ]
												}

											}
 ]
									}
,
									"patching_rect" : [ 501.5, 13.0, 51.0, 21.0 ],
									"saved_object_attributes" : 									{
										"description" : "",
										"digest" : "",
										"globalpatchername" : "",
										"style" : "",
										"tags" : ""
									}
,
									"style" : "",
									"text" : "p key32"
								}

							}
, 							{
								"box" : 								{
									"fontname" : "Arial",
									"fontsize" : 11.595187,
									"hidden" : 1,
									"id" : "obj-31",
									"maxclass" : "newobj",
									"numinlets" : 1,
									"numoutlets" : 0,
									"patching_rect" : [ 501.5, 43.0, 74.0, 21.0 ],
									"saved_object_attributes" : 									{
										"nhcolor" : [ 0.0, 0.0, 1.0, 1.0 ],
										"phcolor" : [ 1.0, 0.0, 0.0, 1.0 ],
										"planecolor" : [ 1.0, 1.0, 1.0, 1.0 ],
										"zhcolor" : [ 0.2, 0.2, 0.2, 1.0 ]
									}
,
									"style" : "",
									"text" : "hoa.connect"
								}

							}
, 							{
								"box" : 								{
									"fontname" : "Arial",
									"fontsize" : 11.595187,
									"id" : "obj-14",
									"linecount" : 2,
									"maxclass" : "newobj",
									"numinlets" : 1,
									"numoutlets" : 16,
									"outlettype" : [ "signal", "signal", "signal", "signal", "signal", "signal", "signal", "signal", "signal", "signal", "signal", "signal", "signal", "signal", "signal", "signal" ],
									"patching_rect" : [ 30.0, 213.0, 329.0, 34.0 ],
									"style" : "",
									"text" : "hoa.2d.process~ 16 hoa.syn.decorrelation~ planewaves @maxsize 44100 @delay 44100 @factor 0.5"
								}

							}
, 							{
								"box" : 								{
									"attr" : "minmax",
									"fontface" : 0,
									"fontname" : "Arial",
									"fontsize" : 12.0,
									"id" : "obj-11",
									"lock" : 1,
									"maxclass" : "attrui",
									"numinlets" : 1,
									"numoutlets" : 1,
									"outlettype" : [ "" ],
									"patching_rect" : [ 406.0, 207.0, 176.0, 22.0 ],
									"style" : "",
									"text_width" : 53.0
								}

							}
 ],
						"lines" : [ 							{
								"patchline" : 								{
									"destination" : [ "obj-6", 0 ],
									"disabled" : 0,
									"hidden" : 0,
									"source" : [ "obj-11", 0 ]
								}

							}
, 							{
								"patchline" : 								{
									"color" : [ 1.0, 1.0, 1.0, 1.0 ],
									"destination" : [ "obj-7", 15 ],
									"disabled" : 0,
									"hidden" : 0,
									"source" : [ "obj-14", 15 ]
								}

							}
, 							{
								"patchline" : 								{
									"color" : [ 1.0, 1.0, 1.0, 1.0 ],
									"destination" : [ "obj-7", 14 ],
									"disabled" : 0,
									"hidden" : 0,
									"source" : [ "obj-14", 14 ]
								}

							}
, 							{
								"patchline" : 								{
									"color" : [ 1.0, 1.0, 1.0, 1.0 ],
									"destination" : [ "obj-7", 13 ],
									"disabled" : 0,
									"hidden" : 0,
									"source" : [ "obj-14", 13 ]
								}

							}
, 							{
								"patchline" : 								{
									"color" : [ 1.0, 1.0, 1.0, 1.0 ],
									"destination" : [ "obj-7", 12 ],
									"disabled" : 0,
									"hidden" : 0,
									"source" : [ "obj-14", 12 ]
								}

							}
, 							{
								"patchline" : 								{
									"color" : [ 1.0, 1.0, 1.0, 1.0 ],
									"destination" : [ "obj-7", 11 ],
									"disabled" : 0,
									"hidden" : 0,
									"source" : [ "obj-14", 11 ]
								}

							}
, 							{
								"patchline" : 								{
									"color" : [ 1.0, 1.0, 1.0, 1.0 ],
									"destination" : [ "obj-7", 10 ],
									"disabled" : 0,
									"hidden" : 0,
									"source" : [ "obj-14", 10 ]
								}

							}
, 							{
								"patchline" : 								{
									"color" : [ 1.0, 1.0, 1.0, 1.0 ],
									"destination" : [ "obj-7", 9 ],
									"disabled" : 0,
									"hidden" : 0,
									"source" : [ "obj-14", 9 ]
								}

							}
, 							{
								"patchline" : 								{
									"color" : [ 1.0, 1.0, 1.0, 1.0 ],
									"destination" : [ "obj-7", 8 ],
									"disabled" : 0,
									"hidden" : 0,
									"source" : [ "obj-14", 8 ]
								}

							}
, 							{
								"patchline" : 								{
									"color" : [ 1.0, 1.0, 1.0, 1.0 ],
									"destination" : [ "obj-7", 7 ],
									"disabled" : 0,
									"hidden" : 0,
									"source" : [ "obj-14", 7 ]
								}

							}
, 							{
								"patchline" : 								{
									"color" : [ 1.0, 1.0, 1.0, 1.0 ],
									"destination" : [ "obj-7", 6 ],
									"disabled" : 0,
									"hidden" : 0,
									"source" : [ "obj-14", 6 ]
								}

							}
, 							{
								"patchline" : 								{
									"color" : [ 1.0, 1.0, 1.0, 1.0 ],
									"destination" : [ "obj-7", 5 ],
									"disabled" : 0,
									"hidden" : 0,
									"source" : [ "obj-14", 5 ]
								}

							}
, 							{
								"patchline" : 								{
									"color" : [ 1.0, 1.0, 1.0, 1.0 ],
									"destination" : [ "obj-7", 4 ],
									"disabled" : 0,
									"hidden" : 0,
									"source" : [ "obj-14", 4 ]
								}

							}
, 							{
								"patchline" : 								{
									"color" : [ 1.0, 1.0, 1.0, 1.0 ],
									"destination" : [ "obj-7", 3 ],
									"disabled" : 0,
									"hidden" : 0,
									"source" : [ "obj-14", 3 ]
								}

							}
, 							{
								"patchline" : 								{
									"color" : [ 1.0, 1.0, 1.0, 1.0 ],
									"destination" : [ "obj-7", 2 ],
									"disabled" : 0,
									"hidden" : 0,
									"source" : [ "obj-14", 2 ]
								}

							}
, 							{
								"patchline" : 								{
									"color" : [ 1.0, 1.0, 1.0, 1.0 ],
									"destination" : [ "obj-7", 1 ],
									"disabled" : 0,
									"hidden" : 0,
									"source" : [ "obj-14", 1 ]
								}

							}
, 							{
								"patchline" : 								{
									"color" : [ 1.0, 1.0, 1.0, 1.0 ],
									"destination" : [ "obj-7", 0 ],
									"disabled" : 0,
									"hidden" : 0,
									"source" : [ "obj-14", 0 ]
								}

							}
, 							{
								"patchline" : 								{
									"destination" : [ "obj-14", 0 ],
									"disabled" : 0,
									"hidden" : 0,
									"source" : [ "obj-4", 0 ]
								}

							}
, 							{
								"patchline" : 								{
									"destination" : [ "obj-31", 0 ],
									"disabled" : 0,
									"hidden" : 1,
									"midpoints" : [ 511.0, 34.0, 511.0, 34.0 ],
									"source" : [ "obj-46", 0 ]
								}

							}
, 							{
								"patchline" : 								{
									"destination" : [ "obj-14", 0 ],
									"disabled" : 0,
									"hidden" : 0,
									"midpoints" : [ 415.5, 422.0, 388.5, 422.0, 388.5, 206.0, 39.5, 206.0 ],
									"source" : [ "obj-6", 0 ]
								}

							}
, 							{
								"patchline" : 								{
									"color" : [ 1.0, 1.0, 1.0, 1.0 ],
									"destination" : [ "obj-8", 15 ],
									"disabled" : 0,
									"hidden" : 0,
									"source" : [ "obj-7", 15 ]
								}

							}
, 							{
								"patchline" : 								{
									"color" : [ 1.0, 1.0, 1.0, 1.0 ],
									"destination" : [ "obj-8", 14 ],
									"disabled" : 0,
									"hidden" : 0,
									"source" : [ "obj-7", 14 ]
								}

							}
, 							{
								"patchline" : 								{
									"color" : [ 1.0, 1.0, 1.0, 1.0 ],
									"destination" : [ "obj-8", 13 ],
									"disabled" : 0,
									"hidden" : 0,
									"source" : [ "obj-7", 13 ]
								}

							}
, 							{
								"patchline" : 								{
									"color" : [ 1.0, 1.0, 1.0, 1.0 ],
									"destination" : [ "obj-8", 12 ],
									"disabled" : 0,
									"hidden" : 0,
									"source" : [ "obj-7", 12 ]
								}

							}
, 							{
								"patchline" : 								{
									"color" : [ 1.0, 1.0, 1.0, 1.0 ],
									"destination" : [ "obj-8", 11 ],
									"disabled" : 0,
									"hidden" : 0,
									"source" : [ "obj-7", 11 ]
								}

							}
, 							{
								"patchline" : 								{
									"color" : [ 1.0, 1.0, 1.0, 1.0 ],
									"destination" : [ "obj-8", 10 ],
									"disabled" : 0,
									"hidden" : 0,
									"source" : [ "obj-7", 10 ]
								}

							}
, 							{
								"patchline" : 								{
									"color" : [ 1.0, 1.0, 1.0, 1.0 ],
									"destination" : [ "obj-8", 9 ],
									"disabled" : 0,
									"hidden" : 0,
									"source" : [ "obj-7", 9 ]
								}

							}
, 							{
								"patchline" : 								{
									"color" : [ 1.0, 1.0, 1.0, 1.0 ],
									"destination" : [ "obj-8", 8 ],
									"disabled" : 0,
									"hidden" : 0,
									"source" : [ "obj-7", 8 ]
								}

							}
, 							{
								"patchline" : 								{
									"color" : [ 1.0, 1.0, 1.0, 1.0 ],
									"destination" : [ "obj-8", 7 ],
									"disabled" : 0,
									"hidden" : 0,
									"source" : [ "obj-7", 7 ]
								}

							}
, 							{
								"patchline" : 								{
									"color" : [ 1.0, 1.0, 1.0, 1.0 ],
									"destination" : [ "obj-8", 6 ],
									"disabled" : 0,
									"hidden" : 0,
									"source" : [ "obj-7", 6 ]
								}

							}
, 							{
								"patchline" : 								{
									"color" : [ 1.0, 1.0, 1.0, 1.0 ],
									"destination" : [ "obj-8", 5 ],
									"disabled" : 0,
									"hidden" : 0,
									"source" : [ "obj-7", 5 ]
								}

							}
, 							{
								"patchline" : 								{
									"color" : [ 1.0, 1.0, 1.0, 1.0 ],
									"destination" : [ "obj-8", 4 ],
									"disabled" : 0,
									"hidden" : 0,
									"source" : [ "obj-7", 4 ]
								}

							}
, 							{
								"patchline" : 								{
									"color" : [ 1.0, 1.0, 1.0, 1.0 ],
									"destination" : [ "obj-8", 3 ],
									"disabled" : 0,
									"hidden" : 0,
									"source" : [ "obj-7", 3 ]
								}

							}
, 							{
								"patchline" : 								{
									"color" : [ 1.0, 1.0, 1.0, 1.0 ],
									"destination" : [ "obj-8", 2 ],
									"disabled" : 0,
									"hidden" : 0,
									"source" : [ "obj-7", 2 ]
								}

							}
, 							{
								"patchline" : 								{
									"color" : [ 1.0, 1.0, 1.0, 1.0 ],
									"destination" : [ "obj-8", 1 ],
									"disabled" : 0,
									"hidden" : 0,
									"source" : [ "obj-7", 1 ]
								}

							}
, 							{
								"patchline" : 								{
									"color" : [ 1.0, 1.0, 1.0, 1.0 ],
									"destination" : [ "obj-8", 0 ],
									"disabled" : 0,
									"hidden" : 0,
									"source" : [ "obj-7", 0 ]
								}

							}
, 							{
								"patchline" : 								{
									"color" : [ 1.0, 0.0, 0.0, 1.0 ],
									"destination" : [ "obj-2", 14 ],
									"disabled" : 0,
									"hidden" : 0,
									"source" : [ "obj-8", 14 ]
								}

							}
, 							{
								"patchline" : 								{
									"color" : [ 0.0, 0.0, 1.0, 1.0 ],
									"destination" : [ "obj-2", 13 ],
									"disabled" : 0,
									"hidden" : 0,
									"source" : [ "obj-8", 13 ]
								}

							}
, 							{
								"patchline" : 								{
									"color" : [ 1.0, 0.0, 0.0, 1.0 ],
									"destination" : [ "obj-2", 12 ],
									"disabled" : 0,
									"hidden" : 0,
									"source" : [ "obj-8", 12 ]
								}

							}
, 							{
								"patchline" : 								{
									"color" : [ 0.0, 0.0, 1.0, 1.0 ],
									"destination" : [ "obj-2", 11 ],
									"disabled" : 0,
									"hidden" : 0,
									"source" : [ "obj-8", 11 ]
								}

							}
, 							{
								"patchline" : 								{
									"color" : [ 1.0, 0.0, 0.0, 1.0 ],
									"destination" : [ "obj-2", 10 ],
									"disabled" : 0,
									"hidden" : 0,
									"source" : [ "obj-8", 10 ]
								}

							}
, 							{
								"patchline" : 								{
									"color" : [ 0.0, 0.0, 1.0, 1.0 ],
									"destination" : [ "obj-2", 9 ],
									"disabled" : 0,
									"hidden" : 0,
									"source" : [ "obj-8", 9 ]
								}

							}
, 							{
								"patchline" : 								{
									"color" : [ 1.0, 0.0, 0.0, 1.0 ],
									"destination" : [ "obj-2", 8 ],
									"disabled" : 0,
									"hidden" : 0,
									"source" : [ "obj-8", 8 ]
								}

							}
, 							{
								"patchline" : 								{
									"color" : [ 0.0, 0.0, 1.0, 1.0 ],
									"destination" : [ "obj-2", 7 ],
									"disabled" : 0,
									"hidden" : 0,
									"source" : [ "obj-8", 7 ]
								}

							}
, 							{
								"patchline" : 								{
									"color" : [ 1.0, 0.0, 0.0, 1.0 ],
									"destination" : [ "obj-2", 6 ],
									"disabled" : 0,
									"hidden" : 0,
									"source" : [ "obj-8", 6 ]
								}

							}
, 							{
								"patchline" : 								{
									"color" : [ 0.0, 0.0, 1.0, 1.0 ],
									"destination" : [ "obj-2", 5 ],
									"disabled" : 0,
									"hidden" : 0,
									"source" : [ "obj-8", 5 ]
								}

							}
, 							{
								"patchline" : 								{
									"color" : [ 1.0, 0.0, 0.0, 1.0 ],
									"destination" : [ "obj-2", 4 ],
									"disabled" : 0,
									"hidden" : 0,
									"source" : [ "obj-8", 4 ]
								}

							}
, 							{
								"patchline" : 								{
									"color" : [ 0.0, 0.0, 1.0, 1.0 ],
									"destination" : [ "obj-2", 3 ],
									"disabled" : 0,
									"hidden" : 0,
									"source" : [ "obj-8", 3 ]
								}

							}
, 							{
								"patchline" : 								{
									"color" : [ 1.0, 0.0, 0.0, 1.0 ],
									"destination" : [ "obj-2", 2 ],
									"disabled" : 0,
									"hidden" : 0,
									"source" : [ "obj-8", 2 ]
								}

							}
, 							{
								"patchline" : 								{
									"color" : [ 0.0, 0.0, 1.0, 1.0 ],
									"destination" : [ "obj-2", 1 ],
									"disabled" : 0,
									"hidden" : 0,
									"source" : [ "obj-8", 1 ]
								}

							}
, 							{
								"patchline" : 								{
									"color" : [ 0.2, 0.2, 0.2, 1.0 ],
									"destination" : [ "obj-2", 0 ],
									"disabled" : 0,
									"hidden" : 0,
									"source" : [ "obj-8", 0 ]
								}

							}
 ],
						"styles" : [ 							{
								"name" : "newobjBlue-1",
								"default" : 								{
									"accentcolor" : [ 0.317647, 0.654902, 0.976471, 1.0 ]
								}
,
								"parentstyle" : "",
								"multi" : 0
							}
, 							{
								"name" : "newobjGreen-1",
								"default" : 								{
									"accentcolor" : [ 0.0, 0.533333, 0.168627, 1.0 ]
								}
,
								"parentstyle" : "",
								"multi" : 0
							}
, 							{
								"name" : "newobjYellow-1",
								"default" : 								{
									"fontsize" : [ 12.059008 ],
									"accentcolor" : [ 0.82517, 0.78181, 0.059545, 1.0 ]
								}
,
								"parentstyle" : "",
								"multi" : 0
							}
 ]
					}
,
					"patching_rect" : [ 13.0, 53.0, 106.0, 19.0 ],
					"saved_object_attributes" : 					{
						"description" : "",
						"digest" : "",
						"globalpatchername" : "",
						"style" : "",
						"tags" : ""
					}
,
					"style" : "",
					"text" : "p \"2d planewaves\""
				}

			}
, 			{
				"box" : 				{
					"fontname" : "Arial",
					"fontsize" : 11.595187,
					"id" : "obj-7",
					"maxclass" : "newobj",
					"numinlets" : 0,
					"numoutlets" : 0,
					"patcher" : 					{
						"fileversion" : 1,
						"appversion" : 						{
							"major" : 7,
							"minor" : 0,
							"revision" : 0,
							"architecture" : "x86",
							"modernui" : 1
						}
,
						"rect" : [ 0.0, 26.0, 619.0, 521.0 ],
						"bgcolor" : [ 0.93, 0.93, 0.92, 1.0 ],
						"bglocked" : 0,
						"openinpresentation" : 0,
						"default_fontsize" : 12.0,
						"default_fontface" : 0,
						"default_fontname" : "Arial",
						"gridonopen" : 1,
						"gridsize" : [ 20.0, 20.0 ],
						"gridsnaponopen" : 1,
						"objectsnaponopen" : 1,
						"statusbarvisible" : 2,
						"toolbarvisible" : 1,
						"lefttoolbarpinned" : 0,
						"toptoolbarpinned" : 0,
						"righttoolbarpinned" : 0,
						"bottomtoolbarpinned" : 0,
						"toolbars_unpinned_last_save" : 0,
						"tallnewobj" : 0,
						"boxanimatetime" : 200,
						"enablehscroll" : 1,
						"enablevscroll" : 1,
						"devicewidth" : 0.0,
						"description" : "",
						"digest" : "",
						"tags" : "",
						"style" : "",
						"subpatcher_template" : "",
						"showontab" : 1,
						"boxes" : [ 							{
								"box" : 								{
									"args" : [ "@module", 0, "@file", "cello-f2.aif", "@loop", 1 ],
									"bgmode" : 0,
									"border" : 0,
									"clickthrough" : 0,
									"enablehscroll" : 0,
									"enablevscroll" : 0,
									"id" : "obj-11",
									"lockeddragscroll" : 0,
									"maxclass" : "bpatcher",
									"name" : "demosound.maxpat",
									"numinlets" : 0,
									"numoutlets" : 1,
									"offset" : [ 0.0, 0.0 ],
									"outlettype" : [ "signal" ],
									"patching_rect" : [ 50.0, 138.0, 221.0, 93.0 ],
									"viewvisibility" : 1
								}

							}
, 							{
								"box" : 								{
									"bgcolor" : [ 0.853045, 0.853045, 0.853045, 1.0 ],
									"color" : [ 0.92549, 0.364706, 0.341176, 1.0 ],
									"id" : "obj-1",
									"local" : 1,
									"maxclass" : "ezdac~",
									"numinlets" : 2,
									"numoutlets" : 0,
									"patching_rect" : [ 60.0, 388.0, 45.0, 45.0 ],
									"style" : ""
								}

							}
, 							{
								"box" : 								{
									"bgmode" : 0,
									"border" : 1,
									"clickthrough" : 0,
									"enablehscroll" : 0,
									"enablevscroll" : 0,
									"id" : "obj-2",
									"lockeddragscroll" : 0,
									"maxclass" : "bpatcher",
									"name" : "hoa.helpout_7.maxpat",
									"numinlets" : 15,
									"numoutlets" : 0,
									"offset" : [ 0.0, 0.0 ],
									"patching_rect" : [ 50.0, 308.0, 329.0, 132.0 ],
									"viewvisibility" : 1
								}

							}
, 							{
								"box" : 								{
									"fontname" : "Arial",
									"fontsize" : 12.0,
									"id" : "obj-3",
									"linecount" : 3,
									"maxclass" : "comment",
									"numinlets" : 1,
									"numoutlets" : 0,
									"patching_rect" : [ 292.0, 146.0, 310.0, 47.0 ],
									"style" : "",
									"text" : "@maxsize set the maximum delay size in samples\n@delay set the inital delay in samples\n@factor set the initial diffusion factor between 0 and 1.",
									"textcolor" : [ 0.30292, 0.30292, 0.30292, 1.0 ],
									"varname" : "autohelp_top_description[4]"
								}

							}
, 							{
								"box" : 								{
									"angle" : 0.0,
									"bgcolor" : [ 0.94324, 0.954082, 0.954082, 1.0 ],
									"border" : 1,
									"bordercolor" : [ 0.75, 0.75, 0.75, 1.0 ],
									"id" : "obj-5",
									"maxclass" : "panel",
									"mode" : 0,
									"numinlets" : 1,
									"numoutlets" : 0,
									"patching_rect" : [ 292.0, 146.0, 310.0, 47.0 ],
									"proportion" : 0.39,
									"rounded" : 0,
									"style" : ""
								}

							}
, 							{
								"box" : 								{
									"fontname" : "Arial",
									"fontsize" : 11.595187,
									"id" : "obj-36",
									"maxclass" : "number",
									"maximum" : 44100,
									"minimum" : 0,
									"numinlets" : 1,
									"numoutlets" : 2,
									"outlettype" : [ "", "bang" ],
									"parameter_enable" : 0,
									"patching_rect" : [ 407.0, 313.0, 50.0, 21.0 ],
									"style" : ""
								}

							}
, 							{
								"box" : 								{
									"fontname" : "Arial",
									"fontsize" : 12.0,
									"id" : "obj-33",
									"linecount" : 2,
									"maxclass" : "comment",
									"numinlets" : 1,
									"numoutlets" : 0,
									"patching_rect" : [ 505.0, 242.0, 91.0, 33.0 ],
									"style" : "",
									"text" : "diffusion factor (0 - 1) :",
									"textcolor" : [ 0.30292, 0.30292, 0.30292, 1.0 ],
									"varname" : "autohelp_top_description[3]"
								}

							}
, 							{
								"box" : 								{
									"fontname" : "Arial",
									"fontsize" : 12.0,
									"id" : "obj-30",
									"linecount" : 2,
									"maxclass" : "comment",
									"numinlets" : 1,
									"numoutlets" : 0,
									"patching_rect" : [ 407.0, 277.0, 76.0, 33.0 ],
									"style" : "",
									"text" : "delay time (samples) :",
									"textcolor" : [ 0.30292, 0.30292, 0.30292, 1.0 ],
									"varname" : "autohelp_top_description[2]"
								}

							}
, 							{
								"box" : 								{
									"fontname" : "Arial",
									"fontsize" : 11.595187,
									"hidden" : 1,
									"id" : "obj-27",
									"maxclass" : "newobj",
									"numinlets" : 1,
									"numoutlets" : 1,
									"outlettype" : [ "" ],
									"patching_rect" : [ 505.0, 249.0, 79.0, 21.0 ],
									"style" : "",
									"text" : "loadmess 0.5"
								}

							}
, 							{
								"box" : 								{
									"fontname" : "Arial",
									"fontsize" : 11.595187,
									"hidden" : 1,
									"id" : "obj-26",
									"maxclass" : "newobj",
									"numinlets" : 1,
									"numoutlets" : 1,
									"outlettype" : [ "" ],
									"patching_rect" : [ 407.0, 249.0, 96.0, 21.0 ],
									"style" : "",
									"text" : "loadmess 44100"
								}

							}
, 							{
								"box" : 								{
									"fontname" : "Arial",
									"fontsize" : 11.595187,
									"format" : 6,
									"id" : "obj-17",
									"maxclass" : "flonum",
									"maximum" : 1.0,
									"minimum" : 0.0,
									"numinlets" : 1,
									"numoutlets" : 2,
									"outlettype" : [ "", "bang" ],
									"parameter_enable" : 0,
									"patching_rect" : [ 505.0, 276.0, 50.0, 21.0 ],
									"style" : ""
								}

							}
, 							{
								"box" : 								{
									"fontname" : "Arial",
									"fontsize" : 11.595187,
									"id" : "obj-9",
									"maxclass" : "newobj",
									"numinlets" : 1,
									"numoutlets" : 1,
									"outlettype" : [ "" ],
									"patching_rect" : [ 505.0, 301.0, 85.0, 21.0 ],
									"style" : "",
									"text" : "prepend factor"
								}

							}
, 							{
								"box" : 								{
									"args" : [ "@obj-name", "hoa.syn.decorrelation~", "@obj-desc", "An", "ambisonics", "soundfield", "decorrelator." ],
									"bgmode" : 0,
									"border" : 0,
									"clickthrough" : 0,
									"enablehscroll" : 0,
									"enablevscroll" : 0,
									"id" : "obj-18",
									"lockeddragscroll" : 0,
									"maxclass" : "bpatcher",
									"name" : "hoa.helpheader.maxpat",
									"numinlets" : 1,
									"numoutlets" : 0,
									"offset" : [ 0.0, 0.0 ],
									"patching_rect" : [ 7.0, 6.0, 483.0, 56.0 ],
									"viewvisibility" : 1
								}

							}
, 							{
								"box" : 								{
									"fontname" : "Arial",
									"fontsize" : 7.180877,
									"hidden" : 1,
									"id" : "obj-19",
									"linecount" : 2,
									"maxclass" : "newobj",
									"numinlets" : 4,
									"numoutlets" : 0,
									"patching_rect" : [ 406.0, 22.5, 52.0, 25.0 ],
									"style" : "",
									"text" : "bgcolor 0.93 0.93 0.92 1."
								}

							}
, 							{
								"box" : 								{
									"args" : [ "@size", 0 ],
									"bgmode" : 0,
									"border" : 0,
									"clickthrough" : 0,
									"enablehscroll" : 0,
									"enablevscroll" : 0,
									"id" : "obj-20",
									"lockeddragscroll" : 0,
									"maxclass" : "bpatcher",
									"name" : "hoa.helpcredit.maxpat",
									"numinlets" : 1,
									"numoutlets" : 0,
									"offset" : [ 0.0, 0.0 ],
									"patching_rect" : [ 27.0, 464.916626, 548.0, 23.0 ],
									"viewvisibility" : 1
								}

							}
, 							{
								"box" : 								{
									"fontname" : "Arial",
									"fontsize" : 12.0,
									"id" : "obj-21",
									"linecount" : 2,
									"maxclass" : "comment",
									"numinlets" : 1,
									"numoutlets" : 0,
									"patching_rect" : [ 7.0, 72.0, 540.0, 33.0 ],
									"style" : "",
									"text" : "hoa.syn.decorrelation~ allows you to delay the different harmonics depending on the number of harmonics to generate a diffuse sound field with signal decorrelation.",
									"textcolor" : [ 0.30292, 0.30292, 0.30292, 1.0 ],
									"varname" : "autohelp_top_description[1]"
								}

							}
, 							{
								"box" : 								{
									"angle" : 0.0,
									"bgcolor" : [ 0.94324, 0.954082, 0.954082, 1.0 ],
									"border" : 1,
									"bordercolor" : [ 0.75, 0.75, 0.75, 1.0 ],
									"id" : "obj-22",
									"maxclass" : "panel",
									"mode" : 0,
									"numinlets" : 1,
									"numoutlets" : 0,
									"patching_rect" : [ 7.0, 72.0, 540.0, 32.0 ],
									"proportion" : 0.39,
									"rounded" : 0,
									"style" : ""
								}

							}
, 							{
								"box" : 								{
									"fontname" : "Arial",
									"fontsize" : 11.595187,
									"hidden" : 1,
									"id" : "obj-46",
									"maxclass" : "newobj",
									"numinlets" : 0,
									"numoutlets" : 1,
									"outlettype" : [ "bang" ],
									"patcher" : 									{
										"fileversion" : 1,
										"appversion" : 										{
											"major" : 7,
											"minor" : 0,
											"revision" : 0,
											"architecture" : "x86",
											"modernui" : 1
										}
,
										"rect" : [ 0.0, 0.0, 640.0, 480.0 ],
										"bglocked" : 0,
										"openinpresentation" : 0,
										"default_fontsize" : 12.0,
										"default_fontface" : 0,
										"default_fontname" : "Arial",
										"gridonopen" : 1,
										"gridsize" : [ 15.0, 15.0 ],
										"gridsnaponopen" : 1,
										"objectsnaponopen" : 1,
										"statusbarvisible" : 2,
										"toolbarvisible" : 1,
										"lefttoolbarpinned" : 0,
										"toptoolbarpinned" : 0,
										"righttoolbarpinned" : 0,
										"bottomtoolbarpinned" : 0,
										"toolbars_unpinned_last_save" : 0,
										"tallnewobj" : 0,
										"boxanimatetime" : 200,
										"enablehscroll" : 1,
										"enablevscroll" : 1,
										"devicewidth" : 0.0,
										"description" : "",
										"digest" : "",
										"tags" : "",
										"style" : "",
										"subpatcher_template" : "",
										"boxes" : [ 											{
												"box" : 												{
													"id" : "obj-10",
													"maxclass" : "button",
													"numinlets" : 1,
													"numoutlets" : 1,
													"outlettype" : [ "bang" ],
													"patching_rect" : [ 50.0, 160.0, 20.0, 20.0 ],
													"style" : ""
												}

											}
, 											{
												"box" : 												{
													"fontname" : "Arial",
													"fontsize" : 11.595187,
													"id" : "obj-23",
													"maxclass" : "newobj",
													"numinlets" : 2,
													"numoutlets" : 2,
													"outlettype" : [ "bang", "" ],
													"patching_rect" : [ 50.0, 130.0, 41.0, 19.0 ],
													"style" : "",
													"text" : "sel 32"
												}

											}
, 											{
												"box" : 												{
													"fontname" : "Arial",
													"fontsize" : 11.595187,
													"id" : "obj-17",
													"maxclass" : "newobj",
													"numinlets" : 0,
													"numoutlets" : 4,
													"outlettype" : [ "int", "int", "int", "int" ],
													"patching_rect" : [ 50.0, 100.0, 59.5, 19.0 ],
													"style" : "",
													"text" : "key"
												}

											}
, 											{
												"box" : 												{
													"comment" : "",
													"id" : "obj-45",
													"maxclass" : "outlet",
													"numinlets" : 1,
													"numoutlets" : 0,
													"patching_rect" : [ 50.0, 240.0, 25.0, 25.0 ],
													"style" : ""
												}

											}
 ],
										"lines" : [ 											{
												"patchline" : 												{
													"destination" : [ "obj-45", 0 ],
													"disabled" : 0,
													"hidden" : 0,
													"source" : [ "obj-10", 0 ]
												}

											}
, 											{
												"patchline" : 												{
													"destination" : [ "obj-23", 0 ],
													"disabled" : 0,
													"hidden" : 0,
													"midpoints" : [ 59.5, 121.0, 59.5, 121.0 ],
													"source" : [ "obj-17", 0 ]
												}

											}
, 											{
												"patchline" : 												{
													"destination" : [ "obj-10", 0 ],
													"disabled" : 0,
													"hidden" : 0,
													"midpoints" : [ 59.5, 151.0, 59.5, 151.0 ],
													"source" : [ "obj-23", 0 ]
												}

											}
 ]
									}
,
									"patching_rect" : [ 501.5, 13.0, 51.0, 21.0 ],
									"saved_object_attributes" : 									{
										"description" : "",
										"digest" : "",
										"globalpatchername" : "",
										"style" : "",
										"tags" : ""
									}
,
									"style" : "",
									"text" : "p key32"
								}

							}
, 							{
								"box" : 								{
									"fontname" : "Arial",
									"fontsize" : 11.595187,
									"hidden" : 1,
									"id" : "obj-31",
									"maxclass" : "newobj",
									"numinlets" : 1,
									"numoutlets" : 0,
									"patching_rect" : [ 501.5, 43.0, 74.0, 21.0 ],
									"saved_object_attributes" : 									{
										"nhcolor" : [ 0.0, 0.0, 1.0, 1.0 ],
										"phcolor" : [ 1.0, 0.0, 0.0, 1.0 ],
										"planecolor" : [ 1.0, 1.0, 1.0, 1.0 ],
										"zhcolor" : [ 0.2, 0.2, 0.2, 1.0 ]
									}
,
									"style" : "",
									"text" : "hoa.connect"
								}

							}
, 							{
								"box" : 								{
									"fontname" : "Arial",
									"fontsize" : 11.595187,
									"id" : "obj-14",
									"linecount" : 2,
									"maxclass" : "newobj",
									"numinlets" : 1,
									"numoutlets" : 15,
									"outlettype" : [ "signal", "signal", "signal", "signal", "signal", "signal", "signal", "signal", "signal", "signal", "signal", "signal", "signal", "signal", "signal" ],
									"patching_rect" : [ 50.0, 251.0, 329.0, 34.0 ],
									"style" : "",
									"text" : "hoa.2d.process~ 7 hoa.syn.decorrelation~ harmonics @maxsize 44100 @delay 44100 @factor 0.5"
								}

							}
 ],
						"lines" : [ 							{
								"patchline" : 								{
									"destination" : [ "obj-14", 0 ],
									"disabled" : 0,
									"hidden" : 0,
									"source" : [ "obj-11", 0 ]
								}

							}
, 							{
								"patchline" : 								{
									"color" : [ 1.0, 0.0, 0.0, 1.0 ],
									"destination" : [ "obj-2", 14 ],
									"disabled" : 0,
									"hidden" : 0,
									"source" : [ "obj-14", 14 ]
								}

							}
, 							{
								"patchline" : 								{
									"color" : [ 0.0, 0.0, 1.0, 1.0 ],
									"destination" : [ "obj-2", 13 ],
									"disabled" : 0,
									"hidden" : 0,
									"source" : [ "obj-14", 13 ]
								}

							}
, 							{
								"patchline" : 								{
									"color" : [ 1.0, 0.0, 0.0, 1.0 ],
									"destination" : [ "obj-2", 12 ],
									"disabled" : 0,
									"hidden" : 0,
									"source" : [ "obj-14", 12 ]
								}

							}
, 							{
								"patchline" : 								{
									"color" : [ 0.0, 0.0, 1.0, 1.0 ],
									"destination" : [ "obj-2", 11 ],
									"disabled" : 0,
									"hidden" : 0,
									"source" : [ "obj-14", 11 ]
								}

							}
, 							{
								"patchline" : 								{
									"color" : [ 1.0, 0.0, 0.0, 1.0 ],
									"destination" : [ "obj-2", 10 ],
									"disabled" : 0,
									"hidden" : 0,
									"source" : [ "obj-14", 10 ]
								}

							}
, 							{
								"patchline" : 								{
									"color" : [ 0.0, 0.0, 1.0, 1.0 ],
									"destination" : [ "obj-2", 9 ],
									"disabled" : 0,
									"hidden" : 0,
									"source" : [ "obj-14", 9 ]
								}

							}
, 							{
								"patchline" : 								{
									"color" : [ 1.0, 0.0, 0.0, 1.0 ],
									"destination" : [ "obj-2", 8 ],
									"disabled" : 0,
									"hidden" : 0,
									"source" : [ "obj-14", 8 ]
								}

							}
, 							{
								"patchline" : 								{
									"color" : [ 0.0, 0.0, 1.0, 1.0 ],
									"destination" : [ "obj-2", 7 ],
									"disabled" : 0,
									"hidden" : 0,
									"source" : [ "obj-14", 7 ]
								}

							}
, 							{
								"patchline" : 								{
									"color" : [ 1.0, 0.0, 0.0, 1.0 ],
									"destination" : [ "obj-2", 6 ],
									"disabled" : 0,
									"hidden" : 0,
									"source" : [ "obj-14", 6 ]
								}

							}
, 							{
								"patchline" : 								{
									"color" : [ 0.0, 0.0, 1.0, 1.0 ],
									"destination" : [ "obj-2", 5 ],
									"disabled" : 0,
									"hidden" : 0,
									"source" : [ "obj-14", 5 ]
								}

							}
, 							{
								"patchline" : 								{
									"color" : [ 1.0, 0.0, 0.0, 1.0 ],
									"destination" : [ "obj-2", 4 ],
									"disabled" : 0,
									"hidden" : 0,
									"source" : [ "obj-14", 4 ]
								}

							}
, 							{
								"patchline" : 								{
									"color" : [ 0.0, 0.0, 1.0, 1.0 ],
									"destination" : [ "obj-2", 3 ],
									"disabled" : 0,
									"hidden" : 0,
									"source" : [ "obj-14", 3 ]
								}

							}
, 							{
								"patchline" : 								{
									"color" : [ 1.0, 0.0, 0.0, 1.0 ],
									"destination" : [ "obj-2", 2 ],
									"disabled" : 0,
									"hidden" : 0,
									"source" : [ "obj-14", 2 ]
								}

							}
, 							{
								"patchline" : 								{
									"color" : [ 0.0, 0.0, 1.0, 1.0 ],
									"destination" : [ "obj-2", 1 ],
									"disabled" : 0,
									"hidden" : 0,
									"source" : [ "obj-14", 1 ]
								}

							}
, 							{
								"patchline" : 								{
									"color" : [ 0.2, 0.2, 0.2, 1.0 ],
									"destination" : [ "obj-2", 0 ],
									"disabled" : 0,
									"hidden" : 0,
									"source" : [ "obj-14", 0 ]
								}

							}
, 							{
								"patchline" : 								{
									"destination" : [ "obj-9", 0 ],
									"disabled" : 0,
									"hidden" : 0,
									"source" : [ "obj-17", 0 ]
								}

							}
, 							{
								"patchline" : 								{
									"destination" : [ "obj-36", 0 ],
									"disabled" : 0,
									"hidden" : 1,
									"source" : [ "obj-26", 0 ]
								}

							}
, 							{
								"patchline" : 								{
									"destination" : [ "obj-17", 0 ],
									"disabled" : 0,
									"hidden" : 1,
									"source" : [ "obj-27", 0 ]
								}

							}
, 							{
								"patchline" : 								{
									"destination" : [ "obj-14", 0 ],
									"disabled" : 0,
									"hidden" : 0,
									"midpoints" : [ 416.5, 343.0, 389.0, 343.0, 389.0, 238.0, 59.5, 238.0 ],
									"source" : [ "obj-36", 0 ]
								}

							}
, 							{
								"patchline" : 								{
									"destination" : [ "obj-31", 0 ],
									"disabled" : 0,
									"hidden" : 1,
									"midpoints" : [ 511.0, 34.0, 511.0, 34.0 ],
									"source" : [ "obj-46", 0 ]
								}

							}
, 							{
								"patchline" : 								{
									"destination" : [ "obj-14", 0 ],
									"disabled" : 0,
									"hidden" : 0,
									"midpoints" : [ 514.5, 343.0, 389.0, 343.0, 389.0, 238.0, 59.5, 238.0 ],
									"source" : [ "obj-9", 0 ]
								}

							}
 ],
						"styles" : [ 							{
								"name" : "newobjBlue-1",
								"default" : 								{
									"accentcolor" : [ 0.317647, 0.654902, 0.976471, 1.0 ]
								}
,
								"parentstyle" : "",
								"multi" : 0
							}
, 							{
								"name" : "newobjGreen-1",
								"default" : 								{
									"accentcolor" : [ 0.0, 0.533333, 0.168627, 1.0 ]
								}
,
								"parentstyle" : "",
								"multi" : 0
							}
, 							{
								"name" : "newobjYellow-1",
								"default" : 								{
									"fontsize" : [ 12.059008 ],
									"accentcolor" : [ 0.82517, 0.78181, 0.059545, 1.0 ]
								}
,
								"parentstyle" : "",
								"multi" : 0
							}
 ]
					}
,
					"patching_rect" : [ 13.0, 23.0, 98.0, 19.0 ],
					"saved_object_attributes" : 					{
						"description" : "",
						"digest" : "",
						"globalpatchername" : "",
						"style" : "",
						"tags" : ""
					}
,
					"style" : "",
					"text" : "p \"2d harmonics\""
				}

			}
, 			{
				"box" : 				{
					"fontname" : "Arial",
					"fontsize" : 11.595187,
					"id" : "obj-6",
					"maxclass" : "newobj",
					"numinlets" : 0,
					"numoutlets" : 0,
					"patcher" : 					{
						"fileversion" : 1,
						"appversion" : 						{
							"major" : 7,
							"minor" : 0,
							"revision" : 0,
							"architecture" : "x86",
							"modernui" : 1
						}
,
						"rect" : [ 0.0, 26.0, 619.0, 521.0 ],
						"bglocked" : 0,
						"openinpresentation" : 0,
						"default_fontsize" : 12.0,
						"default_fontface" : 0,
						"default_fontname" : "Arial",
						"gridonopen" : 1,
						"gridsize" : [ 20.0, 20.0 ],
						"gridsnaponopen" : 1,
						"objectsnaponopen" : 1,
						"statusbarvisible" : 2,
						"toolbarvisible" : 1,
						"lefttoolbarpinned" : 0,
						"toptoolbarpinned" : 0,
						"righttoolbarpinned" : 0,
						"bottomtoolbarpinned" : 0,
						"toolbars_unpinned_last_save" : 0,
						"tallnewobj" : 0,
						"boxanimatetime" : 200,
						"enablehscroll" : 1,
						"enablevscroll" : 1,
						"devicewidth" : 0.0,
						"description" : "",
						"digest" : "",
						"tags" : "",
						"style" : "",
						"subpatcher_template" : "",
						"showontab" : 1,
						"boxes" : [  ],
						"lines" : [  ]
					}
,
					"patching_rect" : [ 115.0, 23.0, 35.0, 19.0 ],
					"saved_object_attributes" : 					{
						"description" : "",
						"digest" : "",
						"globalpatchername" : "",
						"style" : "",
						"tags" : ""
					}
,
					"style" : "",
					"text" : "p ?"
				}

			}
 ],
		"lines" : [  ],
		"parameters" : 		{
			"obj-7::obj-11::obj-21::obj-6" : [ "live.tab[5]", "live.tab[1]", 0 ],
			"obj-1::obj-11::obj-35" : [ "[5]", "Level", 0 ],
			"obj-1::obj-11::obj-21::obj-6" : [ "live.tab[3]", "live.tab[1]", 0 ],
			"obj-7::obj-11::obj-35" : [ "[6]", "Level", 0 ],
			"obj-8::obj-6" : [ "hoa.2d.space", "hoa.2d.space", 0 ],
			"obj-8::obj-4::obj-21::obj-6" : [ "live.tab[4]", "live.tab[1]", 0 ],
			"obj-8::obj-7" : [ "hoa.gain~", "hoa.gain~", 0 ],
			"obj-8::obj-4::obj-35" : [ "[1]", "Level", 0 ]
		}
,
		"dependency_cache" : [ 			{
				"name" : "hoa.syn.decorrelation~.maxpat",
				"bootpath" : "~/Documents/programmation/CICM/sourceTree/HoaLibrary/Max/Package/HoaLibrary/patchers/synth",
				"patcherrelativepath" : "../../patchers/synth",
				"type" : "JSON",
				"implicit" : 1
			}
, 			{
				"name" : "hoa.args.map.maxpat",
				"bootpath" : "~/Documents/programmation/CICM/sourceTree/HoaLibrary/Max/Package/HoaLibrary/misc/others",
				"patcherrelativepath" : "../../misc/others",
				"type" : "JSON",
				"implicit" : 1
			}
, 			{
				"name" : "hoa.mode.sel.maxpat",
				"bootpath" : "~/Documents/programmation/CICM/sourceTree/HoaLibrary/Max/Package/HoaLibrary/misc/others",
				"patcherrelativepath" : "../../misc/others",
				"type" : "JSON",
				"implicit" : 1
			}
, 			{
				"name" : "hoa.help.process.infos.maxpat",
				"bootpath" : "~/Documents/programmation/CICM/sourceTree/HoaLibrary/Max/Package/HoaLibrary/patchers/helputility",
				"patcherrelativepath" : "../../patchers/helputility",
				"type" : "JSON",
				"implicit" : 1
			}
, 			{
				"name" : "hoa.helpcredit.maxpat",
				"bootpath" : "~/Documents/programmation/CICM/sourceTree/HoaLibrary/Max/Package/HoaLibrary/misc/others",
				"patcherrelativepath" : "../../misc/others",
				"type" : "JSON",
				"implicit" : 1
			}
, 			{
				"name" : "hoa.helpheader.maxpat",
				"bootpath" : "~/Documents/programmation/CICM/sourceTree/HoaLibrary/Max/Package/HoaLibrary/misc/others",
				"patcherrelativepath" : "../../misc/others",
				"type" : "JSON",
				"implicit" : 1
			}
, 			{
				"name" : "hoa.2d.scope~.svg",
				"bootpath" : "~/Documents/programmation/CICM/sourceTree/HoaLibrary/Max/Package/HoaLibrary/misc/object-palettes",
				"patcherrelativepath" : "../../misc/object-palettes",
				"type" : "svg ",
				"implicit" : 1
			}
, 			{
				"name" : "hoa.helpout_7.maxpat",
				"bootpath" : "~/Documents/programmation/CICM/sourceTree/HoaLibrary/Max/Package/HoaLibrary/misc/others/hoa.helpout",
				"patcherrelativepath" : "../../misc/others/hoa.helpout",
				"type" : "JSON",
				"implicit" : 1
			}
, 			{
				"name" : "demosound.maxpat",
				"bootpath" : "/Applications/Max.app/Contents/Resources/C74/help/msp",
				"patcherrelativepath" : "../../../../../../../../../../../../Applications/Max.app/Contents/Resources/C74/help/msp",
				"type" : "JSON",
				"implicit" : 1
			}
, 			{
				"name" : "sine.svg",
				"bootpath" : "/Applications/Max.app/Contents/Resources/C74/media/max/picts/m4l-picts",
				"patcherrelativepath" : "../../../../../../../../../../../../Applications/Max.app/Contents/Resources/C74/media/max/picts/m4l-picts",
				"type" : "svg ",
				"implicit" : 1
			}
, 			{
				"name" : "saw.svg",
				"bootpath" : "/Applications/Max.app/Contents/Resources/C74/media/max/picts/m4l-picts",
				"patcherrelativepath" : "../../../../../../../../../../../../Applications/Max.app/Contents/Resources/C74/media/max/picts/m4l-picts",
				"type" : "svg ",
				"implicit" : 1
			}
, 			{
				"name" : "square.svg",
				"bootpath" : "/Applications/Max.app/Contents/Resources/C74/media/max/picts/m4l-picts",
				"patcherrelativepath" : "../../../../../../../../../../../../Applications/Max.app/Contents/Resources/C74/media/max/picts/m4l-picts",
				"type" : "svg ",
				"implicit" : 1
			}
, 			{
				"name" : "random.svg",
				"bootpath" : "/Applications/Max.app/Contents/Resources/C74/media/max/picts/m4l-picts",
				"patcherrelativepath" : "../../../../../../../../../../../../Applications/Max.app/Contents/Resources/C74/media/max/picts/m4l-picts",
				"type" : "svg ",
				"implicit" : 1
			}
, 			{
				"name" : "hoa.process~.mxo",
				"type" : "iLaX"
			}
, 			{
				"name" : "hoa.in.mxo",
				"type" : "iLaX"
			}
, 			{
				"name" : "hoa.thisprocess~.mxo",
				"type" : "iLaX"
			}
, 			{
				"name" : "hoa.out~.mxo",
				"type" : "iLaX"
			}
, 			{
				"name" : "hoa.in~.mxo",
				"type" : "iLaX"
			}
, 			{
				"name" : "hoa.connect.mxo",
				"type" : "iLaX"
			}
, 			{
				"name" : "hoa.2d.scope~.mxo",
				"type" : "iLaX"
			}
, 			{
				"name" : "hoa.gain~.mxo",
				"type" : "iLaX"
			}
, 			{
				"name" : "hoa.2d.meter~.mxo",
				"type" : "iLaX"
			}
, 			{
				"name" : "hoa.2d.decoder~.mxo",
				"type" : "iLaX"
			}
, 			{
				"name" : "hoa.2d.space.mxo",
				"type" : "iLaX"
			}
, 			{
				"name" : "hoa.2d.recomposer~.mxo",
				"type" : "iLaX"
			}
, 			{
				"name" : "hoa.3d.decoder~.mxo",
				"type" : "iLaX"
			}
 ],
		"embedsnapshot" : 0
	}

}
